<svg width="638" height="479" viewBox="0 0 638 479" fill="none" xmlns="http://www.w3.org/2000/svg">
<path d="M83.9119 316.522C80.5752 318.445 80.5732 323.259 83.9082 325.184L312.624 457.231C314.171 458.124 316.077 458.124 317.624 457.23L533.736 332.455C537.083 330.523 537.066 325.688 533.707 323.778L303.416 192.893C301.875 192.017 299.985 192.023 298.449 192.908L83.9119 316.522Z" fill="#CB9BEA"/>
<path style="mix-blend-mode:multiply" d="M460.604 313.497C441.193 324.822 427.317 332.414 397.474 349.464C420.075 363.197 437.588 375.83 440.124 377.329L507.21 337.948C501.994 335.205 484.768 325.38 460.604 313.497Z" fill="url(#paint0_linear_228_782)"/>
<path style="mix-blend-mode:multiply" d="M165.099 371.157L222.152 337.757C217.813 335.476 209.28 327.565 193.25 319.191C193.22 319.305 193.166 319.41 193.091 319.501C193.017 319.591 192.925 319.665 192.82 319.718C177.401 328.224 162.02 336.731 146.676 345.238C143.072 347.263 137.569 351.06 134.028 353.213C144.316 358.875 152.083 364.553 165.099 371.157Z" fill="url(#paint1_linear_228_782)"/>
<path style="mix-blend-mode:multiply" d="M255.487 423.903C259.969 426.949 265.695 429.613 270.097 432.675L299.493 415.418C294.931 413.009 279.843 404.476 258.677 394.013C249.251 399.515 241.308 404.013 231.658 409.468C239.713 413.998 247.799 418.687 255.487 423.903Z" fill="url(#paint2_linear_228_782)"/>
<path d="M64.7252 126.499L65.9374 193.345C65.9525 194.054 66.1461 194.747 66.5004 195.361C66.8547 195.975 67.3581 196.489 67.9641 196.856C68.5701 197.224 69.259 197.432 69.9669 197.463C70.6749 197.493 71.3791 197.344 72.0143 197.03L128.812 168.735C129.754 168.264 130.543 167.537 131.088 166.636C131.633 165.736 131.911 164.699 131.891 163.647L130.678 96.7682C130.666 95.9958 130.457 95.2393 130.071 94.5701C129.685 93.9009 129.134 93.3412 128.472 92.9437C127.81 92.5462 127.057 92.3241 126.285 92.2984C125.513 92.2727 124.747 92.4442 124.059 92.7967L67.7397 121.507C66.8247 121.979 66.0585 122.695 65.5263 123.576C64.9941 124.458 64.7168 125.469 64.7252 126.499Z" fill="#8805FA"/>
<path d="M122.034 136.627C111.219 139.674 114.952 151.684 107.184 158.064C97.7257 165.88 94.1051 143.789 82.5573 145.145C68.6329 146.74 65.9374 193.314 65.9374 193.314C68.1385 198.593 72.0143 196.998 72.0143 196.998L131.97 167.124L131.508 141.396C128.988 138.509 125.877 136.244 122.034 136.627Z" fill="#8805FA"/>
<path opacity="0.3" d="M122.034 136.627C111.219 139.674 114.952 151.684 107.184 158.064C97.7257 165.88 94.1051 143.789 82.5573 145.145C68.6329 146.74 65.9374 193.314 65.9374 193.314C68.1385 198.593 72.0143 196.998 72.0143 196.998L131.97 167.124L131.508 141.396C128.988 138.509 125.877 136.244 122.034 136.627Z" fill="#181816"/>
<path d="M408.735 283.91C406.932 283.91 404.396 285.824 402.753 286.622L398.224 288.695C398.224 288.695 395.209 299.86 393.439 304.023C391.668 308.186 385.464 317.118 387.665 320.468C389.146 322.516 391.345 323.929 393.823 324.426C396.301 324.923 398.875 324.466 401.031 323.147C406.725 319.957 406.566 309.622 408.623 305.602C410.33 302.253 409.532 295.139 409.532 293.608C409.669 290.355 409.401 287.097 408.735 283.91Z" fill="#181816"/>
<path d="M361.969 263.526C360.167 263.526 357.631 265.44 355.988 266.238L351.458 268.455C351.458 268.455 349.863 280.673 346.673 283.783C343.483 286.893 331.441 293.465 333.594 296.814C334.967 298.903 337.093 300.382 339.529 300.944C341.965 301.505 344.524 301.106 346.673 299.829C352.367 296.639 356.084 290.259 360.151 288.664C363.644 287.276 362.161 278.216 362.304 275.17C362.722 271.292 362.61 267.374 361.969 263.526Z" fill="#181816"/>
<path d="M353.835 149.212C353.835 149.212 346.083 190.523 346.785 213.172C347.487 235.821 347.885 263.558 349.608 275.839C349.608 275.839 364.617 277.929 369.721 273.431C369.721 273.431 371.236 194.032 371.316 194.478C373.613 204.926 384.395 258.438 385.543 261.931C386.692 265.424 392.226 293.639 392.226 293.639C395.842 294.541 399.604 294.687 403.279 294.07C406.953 293.452 410.461 292.084 413.584 290.051C413.584 290.051 411.717 249.426 408.24 238.006C404.763 226.586 392.641 154.811 386.74 149.196" fill="#8805FA"/>
<path opacity="0.67" d="M353.835 149.212C353.835 149.212 346.083 190.523 346.785 213.172C347.487 235.821 347.885 263.558 349.608 275.839C349.608 275.839 364.617 277.929 369.721 273.431C369.721 273.431 371.236 194.032 371.316 194.478C373.613 204.926 384.395 258.438 385.543 261.931C386.692 265.424 392.226 293.639 392.226 293.639C395.842 294.541 399.604 294.687 403.279 294.07C406.953 293.452 410.461 292.084 413.584 290.051C413.584 290.051 411.717 249.426 408.24 238.006C404.763 226.586 392.641 154.811 386.74 149.196" fill="#181816"/>
<path d="M386.357 152.529C386.357 152.529 399.643 113.914 394.332 105.078C389.021 96.2419 367.456 89.2877 357.136 90.1809C346.817 91.0741 353.436 152.083 355.063 152.529C356.69 152.976 371.874 163.439 386.357 152.529Z" fill="#F7931E"/>
<path d="M390.775 101.107L374.666 94.4238C371.741 108.587 368.711 122.724 365.574 136.835L388.08 140.79C388.08 140.79 401.478 133.422 403.551 121.65C405.625 109.879 391.349 101.649 390.775 101.107Z" fill="#F7931E"/>
<path d="M358.253 113.436C358.253 113.436 356.1 92.3346 356.1 90.4844C349.83 92.2781 343.968 95.2738 338.842 99.3047C336.221 101.332 333.782 103.584 331.553 106.036C330.023 107.475 328.754 109.17 327.804 111.044C327.143 113.269 327.077 115.628 327.613 117.886C328.609 123.126 330.389 128.186 332.893 132.895C335.521 138.394 338.769 143.574 342.574 148.335C343.754 149.786 347.551 155.162 350.039 154.3C355.015 152.562 357.073 146.772 357.073 146.772C357.073 146.772 354.776 142.258 352.288 136.66C350.82 133.358 344.217 125.846 343.324 120.71C343.977 119.825 344.685 118.984 345.445 118.19C348.731 114.968 354.17 115.558 358.253 113.436Z" fill="#F7931E"/>
<path d="M360.135 91.6643L363.325 108.284L367.919 102.941L371.396 109.608L380.711 96.9757C380.711 96.9757 366.435 90.3086 360.135 91.6643Z" fill="#ED6B00"/>
<path d="M378.015 84.2483C375.607 86.9279 370.949 85.7157 367.887 85.0299C364.17 84.1845 359.912 81.9355 360.231 77.5014C360.231 76.8315 359.242 76.8315 359.194 77.5014C358.859 82.111 363.038 84.8863 367.026 85.8911C370.566 86.7843 375.926 88.1082 378.749 84.982C379.243 84.5354 378.51 83.7538 378.015 84.2483Z" fill="#009245"/>
<path d="M358.253 74.7258C358.253 74.7258 358.253 97.2791 366.531 98.7465C375.623 100.342 380.727 90.0378 380.727 90.0378C380.727 90.0378 381.891 70.1163 372.863 68.3618C363.836 66.6073 358.508 71.7751 358.253 74.7258Z" fill="#FBB5AD"/>
<path d="M374.315 87.725C374.315 87.725 376.5 79.0642 378.924 81.9192C381.349 84.7743 375.001 90.9948 375.001 90.9948" fill="#FBB5AD"/>
<path d="M376.516 65.5381C376.516 65.5381 384.586 66.4153 386.947 72.8432C389.308 79.271 383.263 91.9832 378.972 94.0567L384.22 82.8917L383.964 75.2516L376.516 65.5381Z" fill="#5C2E2E"/>
<path d="M386.803 75.7147C386.149 71.2168 383.167 69.0316 379.259 66.7189L378.286 66.1925C379.035 65.5803 379.635 64.8058 380.041 63.9276C380.094 63.8377 380.123 63.7352 380.124 63.6305C380.125 63.5258 380.099 63.4227 380.047 63.3317C379.995 63.2408 379.919 63.1654 379.829 63.1131C379.738 63.0608 379.635 63.0337 379.53 63.0344C379.021 63.0548 378.522 63.1801 378.064 63.4024C377.605 63.6247 377.198 63.9393 376.867 64.3264C376.412 63.396 375.797 62.5535 375.048 61.8382C374.974 61.7688 374.883 61.7194 374.784 61.6944C374.686 61.6694 374.582 61.6696 374.484 61.695C374.385 61.7204 374.295 61.7702 374.221 61.8399C374.147 61.9095 374.091 61.9967 374.059 62.0934C373.882 62.528 373.803 62.9964 373.828 63.4651C373.853 63.9338 373.981 64.3913 374.203 64.8049C370.142 63.9506 365.909 64.5966 362.288 66.6232C360.964 67.4163 359.844 68.5088 359.019 69.8132C357.922 69.7022 356.817 69.9012 355.829 70.3874C354.762 70.8834 353.887 71.7146 353.337 72.7542C352.787 73.7937 352.592 74.9846 352.782 76.1453C353.372 78.8568 356.243 79.75 358.684 79.3353C359.939 79.1036 361.114 78.5545 362.097 77.7403C361.363 78.9685 360.996 80.5475 363.373 81.0898C367.504 82.0309 369.482 79.5746 369.753 81.6321C369.96 83.3069 372.289 84.2479 373.98 84.2798C374.107 84.535 374.41 85.2209 374.777 86.1619C375.611 85.8878 376.502 85.8383 377.361 86.0184C377.428 85.9441 377.511 85.8866 377.603 85.8502C377.696 85.8139 377.796 85.7998 377.896 85.8091C377.995 85.8184 378.09 85.8509 378.175 85.9038C378.259 85.9568 378.33 86.0288 378.382 86.1141C379.817 88.5704 379.482 91.25 378.924 94.0891C381.16 92.1707 383.002 89.8359 384.347 87.2146C386.283 83.7078 387.138 79.7064 386.803 75.7147ZM375.064 63.6245L375.24 63.8797C375.229 63.9431 375.229 64.0078 375.24 64.0711C375.24 64.2625 375.383 64.454 375.463 64.6294C375.25 64.3381 375.113 63.9982 375.064 63.6405V63.6245Z" fill="#5C2E2E"/>
<path d="M364.601 106.865L367.041 111.602L370.455 107.679L367.982 102.941L364.601 106.865Z" fill="#723100"/>
<path d="M367.041 111.65C367.041 111.65 370.455 135.575 373.421 151.19L369.083 159.5L363.389 152.435C363.389 152.435 361.06 136.086 367.041 111.65Z" fill="#723100"/>
<path d="M367.536 152.482L364.314 117.6L340.309 118.158L343.675 152.482H367.536Z" fill="#8805FA"/>
<path d="M375.702 138.765L365.255 130.949V133.884C365.255 133.884 355.813 129.657 355.35 131.507C354.887 133.358 356.578 139.482 358.173 140.073C359.768 140.663 366.435 142.768 366.435 142.768L371.699 144.363L375.702 138.765Z" fill="#FBB5AD"/>
<path d="M403.535 117.6C403.535 117.6 410.33 143.821 405.656 149.197C400.983 154.572 370.678 148.75 370.391 146.007C370.104 143.263 374.251 134.475 374.251 134.475L391.174 136.325" fill="#F7931E"/>
<path d="M351.921 152.482C351.921 152.482 358.301 151.414 359.529 154.923C360.215 156.773 355.318 154.923 355.318 154.923L351.857 165.21C350.831 163.904 350.27 162.294 350.262 160.633C350.24 158.278 350.453 155.927 350.9 153.615L351.921 152.482Z" fill="#FBB5AD"/>
<path d="M164.11 323.562C167.603 325.874 170.218 327.23 170.218 327.23C172.994 327.23 178.193 327.836 176.598 324.2C178.442 327.232 180.751 329.956 183.441 332.27C186.456 334.87 203.379 337.294 197.573 347.359C194.574 352.543 165.21 337.677 164.476 334.152C164.029 330.641 163.906 327.096 164.11 323.562Z" fill="#8C6864"/>
<path d="M176.79 306.447C175.982 311.479 175.837 316.594 176.359 321.664C176.519 322.764 176.662 323.944 176.886 325.125L164.014 322.956V306.447H176.79Z" fill="#F7931E"/>
<path d="M164.11 320.005C167.603 322.318 170.218 323.673 170.218 323.673C172.994 323.673 178.193 324.279 176.598 320.643C178.442 323.675 180.751 326.399 183.441 328.714C186.456 331.313 203.458 339.671 196.361 344.089C191.081 347.375 165.21 334.121 164.461 330.596C164.018 327.084 163.901 323.538 164.11 320.005Z" fill="#56403D"/>
<path d="M169.564 323.897C169.437 322.956 167.555 318.266 169.086 317.182C170.617 316.097 177.061 314.486 177.747 316.32C178.433 318.155 177.747 324.551 177.747 324.551" fill="#56403D"/>
<path d="M188.704 313.96C192.197 316.273 194.813 317.628 194.813 317.628C197.589 317.628 202.788 318.235 201.193 314.598C203.037 317.63 205.346 320.354 208.036 322.669C211.05 325.269 227.973 327.693 222.168 337.757C219.169 342.941 189.805 328.076 189.071 324.551C188.624 321.039 188.501 317.494 188.704 313.96Z" fill="#8C6864"/>
<path d="M201.385 296.846C200.577 301.877 200.432 306.993 200.954 312.062C201.114 313.163 201.257 314.343 201.48 315.523L188.609 313.354V296.846H201.385Z" fill="#F7931E"/>
<path d="M188.704 310.403C192.198 312.716 194.813 314.072 194.813 314.072C197.589 314.072 202.788 314.678 201.193 311.041C203.037 314.074 205.346 316.797 208.036 319.112C211.05 321.712 228.053 330.07 220.955 334.488C215.676 337.774 189.805 324.519 189.055 320.994C188.613 317.482 188.496 313.937 188.704 310.403Z" fill="#56403D"/>
<path d="M194.159 314.215C194.032 313.274 192.15 308.585 193.681 307.5C195.212 306.415 201.656 304.805 202.342 306.639C203.028 308.473 202.342 314.869 202.342 314.869" fill="#56403D"/>
<path d="M209.998 164.397C209.998 164.397 214.033 261.803 206.058 302.747C206.058 302.747 204.463 307.309 185.435 304.661L184.159 313.178C184.159 313.178 170.793 316.815 158.144 311.583C158.144 311.583 152.865 216.968 168.719 161.988" fill="#311E69"/>
<path d="M208.594 130.981C211.896 129.928 205.404 112.511 204.83 110.326C204.529 108.97 203.989 107.68 203.235 106.514C200.97 103.42 196.52 104.919 193.346 104.919C189.144 104.96 184.952 105.333 180.809 106.035C178.477 106.464 176.234 107.284 174.174 108.46C167.666 117.583 165.402 128.955 164.716 140.025C164.333 146.118 164.365 152.258 164.397 158.367C164.366 162.253 164.584 166.137 165.051 169.995C165.111 170.449 165.274 170.884 165.529 171.266C165.783 171.648 166.121 171.966 166.518 172.196C168.824 173.579 171.427 174.388 174.11 174.557C185.578 175.019 199.471 174.557 208.435 167.092C209.01 166.313 209.542 165.504 210.03 164.668L208.562 130.981H208.594Z" fill="#8805FA"/>
<path d="M197.684 146.453V133.518L223.858 122.48L231.275 125.399V161.845L202.98 174.908L196.983 171.112" fill="#42210B"/>
<path d="M164.413 158.399C157.666 152.769 153.63 147.904 159.755 126.26C164.971 107.79 180.809 106.083 180.809 106.083" fill="#8805FA"/>
<path d="M199.965 87.1986C199.965 87.1986 205.005 105.621 196.68 109.656C188.354 113.692 182.5 107.678 179.98 102.176C177.46 96.6729 178.385 83.7853 189.183 82.4774C198.546 81.345 199.965 87.1986 199.965 87.1986Z" fill="#F7931E"/>
<path d="M201.592 83.7059C202.469 81.457 202.836 77.4376 200.204 76.1935C199.212 75.8061 198.132 75.7024 197.084 75.8939C196.036 76.0855 195.062 76.5647 194.271 77.2781C193.33 76.5472 192.242 76.0301 191.081 75.7628C188.995 75.1452 186.786 75.0626 184.66 75.5225C182.533 75.9824 180.556 76.9701 178.911 78.3946C178.767 78.5381 178.6 78.6567 178.417 78.7455C178.164 78.8255 177.899 78.8579 177.635 78.8412C171.096 78.9528 169.66 86.3696 170.809 91.4098C171.958 96.662 174.751 101.411 178.784 104.967C180.523 106.385 182.546 107.413 184.717 107.982C184.793 108.002 184.873 108.004 184.95 107.988C185.027 107.971 185.098 107.937 185.159 107.887C185.22 107.837 185.268 107.773 185.299 107.701C185.331 107.629 185.344 107.55 185.339 107.471C185.41 107.429 185.472 107.373 185.52 107.306C185.569 107.239 185.603 107.163 185.621 107.082C185.639 107.001 185.64 106.918 185.624 106.837C185.609 106.756 185.577 106.678 185.53 106.61C184.975 105.507 184.78 104.257 184.972 103.037C184.986 102.951 184.979 102.862 184.951 102.778C184.924 102.695 184.876 102.62 184.813 102.559C184.893 102.472 184.945 102.362 184.963 102.245C184.98 102.128 184.962 102.008 184.91 101.901C184.859 101.795 184.776 101.706 184.673 101.647C184.571 101.588 184.452 101.561 184.334 101.57C183.634 101.656 182.923 101.58 182.256 101.347C181.59 101.115 180.986 100.733 180.49 100.23C179.884 99.5921 179.374 98.348 180.57 98.045C180.798 97.9927 181.035 97.9973 181.26 98.0585C181.485 98.1197 181.692 98.2356 181.862 98.3959C182.038 98.6996 182.246 98.9831 182.484 99.2412C182.573 99.3348 182.691 99.3965 182.819 99.4167C183.266 99.5602 183.84 99.1934 183.553 98.6989C183.355 98.3455 183.114 98.0186 182.835 97.726C182.436 97.0575 182.28 96.2719 182.394 95.5019C182.507 94.7319 182.883 94.0245 183.457 93.4992C185.052 92.1435 186.408 92.8772 188.242 92.9569C188.774 93.0282 189.315 92.9066 189.765 92.614C190.216 92.3215 190.547 91.8773 190.698 91.3619C190.704 90.6248 190.613 89.8901 190.427 89.1768C190.395 88.6322 190.53 88.0909 190.816 87.6259C191.101 87.161 191.522 86.7948 192.022 86.5769C193.888 85.8592 195.1 87.4223 196.472 88.3793C197.04 88.8043 197.695 89.0977 198.39 89.2384C199.085 89.3791 199.803 89.3635 200.492 89.1927C201.026 89.0559 201.518 88.7878 201.923 88.4128C202.328 88.0377 202.633 87.5676 202.811 87.0449C202.988 86.5222 203.032 85.9636 202.939 85.4195C202.846 84.8755 202.619 84.3632 202.278 83.9292C202.206 83.8192 202.099 83.7371 201.974 83.6964C201.85 83.6558 201.715 83.6591 201.592 83.7059ZM190.268 86.3217C190.472 85.9939 190.773 85.7375 191.129 85.588C191.249 85.533 191.361 85.4633 191.464 85.3807H191.575L191.751 85.4604C191.2 85.6279 190.693 85.9168 190.268 86.3058V86.3217ZM200.811 82.4299H200.731C200.817 82.2326 200.892 82.0302 200.954 81.8238C200.97 81.9833 200.858 82.2066 200.811 82.414V82.4299Z" fill="#935542"/>
<path d="M187.349 304.645C189.348 278.338 190.89 252.005 191.974 225.645C192.357 216.075 192.681 206.537 192.947 197.031C192.947 196.861 192.88 196.699 192.76 196.579C192.641 196.46 192.478 196.393 192.309 196.393C192.14 196.393 191.978 196.46 191.858 196.579C191.738 196.699 191.671 196.861 191.671 197.031C190.725 230.993 189.008 264.919 186.519 298.808C186.376 300.722 186.2 302.651 186.057 304.565L187.349 304.645Z" fill="white"/>
<path d="M211.497 152.881C211.497 152.881 212.709 149.962 210.7 148.845C208.69 147.729 199.327 148.845 199.327 148.845L201.129 145.655C201.353 145.033 201.034 144.714 200.252 144.587C198.099 144.204 196.376 146.804 195.467 148.399C195.105 148.985 194.856 149.634 194.734 150.313C194.734 150.823 194.734 151.621 194.239 151.908C193.723 151.916 193.212 151.812 192.74 151.605C192.038 155.034 191.225 158.431 190.539 161.845L194.542 162.929C194.542 162.929 207.509 167.06 208.817 165.864C209.659 164.986 210.215 163.874 210.412 162.674L212.007 161.239C213.602 159.803 211.29 157.682 211.29 157.682C211.916 157.635 212.513 157.397 213.001 157.001C213.488 156.604 213.843 156.068 214.017 155.465C214.767 153.296 211.497 152.881 211.497 152.881Z" fill="#F7931E"/>
<path d="M200.523 151.525C204.216 152.117 207.949 152.41 211.688 152.403C212.071 152.403 212.007 152.993 211.688 153.009C207.949 153.016 204.216 152.723 200.523 152.131C200.093 152.1 200.141 151.525 200.523 151.525Z" fill="#42210B"/>
<path d="M199.614 155.481C203.557 156.761 207.636 157.575 211.768 157.905C211.849 157.905 211.926 157.937 211.983 157.994C212.039 158.05 212.071 158.128 212.071 158.208C212.071 158.288 212.039 158.365 211.983 158.422C211.926 158.479 211.849 158.511 211.768 158.511C207.554 158.177 203.395 157.347 199.375 156.039C199.04 155.927 199.248 155.369 199.614 155.481Z" fill="#42210B"/>
<path d="M199.806 159.707C203.281 160.973 206.863 161.923 210.508 162.546C210.589 162.546 210.666 162.578 210.722 162.635C210.779 162.692 210.811 162.769 210.811 162.849C210.811 162.93 210.779 163.007 210.722 163.064C210.666 163.121 210.589 163.152 210.508 163.152C206.808 162.525 203.173 161.564 199.646 160.281C199.231 160.17 199.375 159.612 199.806 159.707Z" fill="#42210B"/>
<path d="M194.08 146.357C188.454 145.354 183.009 143.521 177.922 140.918C178.058 140.854 178.172 140.752 178.251 140.625C178.33 140.498 178.371 140.35 178.369 140.2C178.409 137.27 178.751 134.352 179.39 131.492C179.629 130.423 177.986 129.897 177.795 131.045C177.12 134.052 176.756 137.12 176.71 140.2L175.801 139.706C175.61 139.631 175.399 139.627 175.205 139.694C175.011 139.761 174.847 139.895 174.743 140.072C174.64 140.249 174.602 140.457 174.638 140.659C174.674 140.861 174.781 141.043 174.94 141.173C180.536 144.346 186.613 146.582 192.931 147.793C192.134 153.109 191.235 158.368 190.236 163.567C190.209 163.685 190.208 163.807 190.233 163.926C190.258 164.044 190.308 164.156 190.379 164.253C187.189 164.046 174.684 162.961 164.46 158.336L165.114 169.963C165.114 169.963 180.379 171.271 190.746 164.54C190.851 164.608 190.971 164.649 191.095 164.659C191.22 164.669 191.345 164.647 191.459 164.596C191.573 164.546 191.672 164.467 191.748 164.368C191.825 164.269 191.875 164.153 191.894 164.03C192.958 158.49 193.904 152.929 194.734 147.346C194.772 147.129 194.725 146.905 194.604 146.721C194.482 146.537 194.295 146.407 194.08 146.357Z" fill="#311E69"/>
<path d="M359.593 185.85C359.583 185.449 359.446 185.062 359.202 184.744C358.959 184.426 358.621 184.194 358.237 184.079C357.651 183.906 357.045 183.804 356.435 183.776C357.376 183.138 357.695 182.436 357.041 181.687C353.643 177.715 334.312 186.36 332.382 182.835C332.159 182.42 331.904 182.006 331.648 181.591C331.393 181.176 331.282 180.714 331.058 180.299C330.565 178.82 329.602 177.543 328.315 176.663C327.998 176.489 327.637 176.411 327.277 176.438C326.916 176.465 326.571 176.597 326.284 176.816C325.997 177.036 325.78 177.334 325.659 177.675C325.538 178.016 325.519 178.384 325.603 178.736C326.296 181.664 327.329 184.501 328.682 187.19C328.173 191.411 327.27 195.577 325.986 199.631C325.268 201.895 328.825 202.82 329.543 200.603C329.767 200.824 330.04 200.988 330.34 201.082C330.603 201.348 330.938 201.532 331.304 201.608C331.67 201.685 332.051 201.652 332.398 201.513C332.412 201.947 332.578 202.362 332.867 202.686C333.156 203.01 333.55 203.222 333.98 203.285C334.41 203.348 334.848 203.257 335.218 203.03C335.588 202.802 335.865 202.451 336.003 202.039C337.215 198.259 338.826 194.064 342.383 192.134H344.073C347.87 192.134 351.666 192.006 355.462 191.767C355.799 191.737 356.123 191.619 356.4 191.425C356.678 191.231 356.901 190.968 357.046 190.662C357.191 190.356 357.253 190.017 357.227 189.68C357.201 189.342 357.087 189.017 356.897 188.737C358.365 188.402 359.609 187.668 359.593 185.85Z" fill="#CE4823"/>
<path d="M279.635 401.095C279.492 395.72 273.431 395.433 271.788 391.748C271.299 390.297 271.163 388.749 271.389 387.234C271.069 387.233 270.752 387.166 270.459 387.037C270.165 386.909 269.901 386.721 269.683 386.486C269.465 386.252 269.297 385.975 269.19 385.673C269.083 385.371 269.039 385.05 269.061 384.73C269.218 382.011 269.755 379.326 270.656 376.755L262.282 369.02C262.282 369.02 255.567 379.738 254.945 382.067C254.323 384.395 253.844 402.259 254.387 403.982C254.929 405.705 257.943 405.29 259.459 404.907C260.974 404.524 259.459 390.871 260.91 391.589C262.362 392.307 263.239 404.03 265.169 406.646C267.099 409.261 278.854 408.145 278.854 408.145C278.854 408.145 279.779 406.47 279.635 401.095Z" fill="#273238"/>
<path d="M271.15 385.192C269.683 375.064 273.144 356.977 273.144 356.977L259.283 358.029L257.066 378.302C257.33 378.637 257.491 379.041 257.529 379.466C257.519 379.556 257.519 379.647 257.529 379.737L257.784 380.168C258.677 381.189 261.117 381.316 262.218 381.906C264.642 383.23 265.169 385.431 265.408 387.904C265.982 392.386 265.982 399.228 278.168 397.378C278.152 397.378 272.554 395.304 271.15 385.192Z" fill="#CE4823"/>
<path d="M299.573 409.372C299.158 404.013 293.097 404.013 291.295 400.408C290.736 398.985 290.523 397.449 290.673 395.927C290.352 395.942 290.031 395.891 289.73 395.777C289.429 395.663 289.155 395.489 288.925 395.264C288.694 395.04 288.513 394.77 288.391 394.473C288.269 394.175 288.21 393.856 288.217 393.534C288.25 390.832 288.658 388.149 289.429 385.559L280.72 378.254C280.72 378.254 274.531 389.275 274.021 391.636C273.511 393.997 273.893 411.861 274.531 413.551C275.169 415.242 278.136 414.684 279.635 414.237C281.135 413.791 279.013 400.217 280.449 400.855C281.884 401.493 283.384 413.168 285.441 415.689C287.499 418.209 299.19 416.518 299.19 416.518C299.19 416.518 299.988 414.7 299.573 409.372Z" fill="#273238"/>
<path d="M290.29 393.965C288.344 383.932 290.912 365.686 290.912 365.686L277.115 367.408L275.935 387.712C276.216 388.031 276.399 388.425 276.461 388.845C276.453 388.93 276.453 389.015 276.461 389.1L276.748 389.515C277.69 390.488 280.13 390.504 281.262 391.11C283.751 392.306 284.452 394.491 284.708 396.948C285.505 401.398 285.824 408.24 297.914 405.784C297.914 405.736 292.22 403.934 290.29 393.965Z" fill="#CE4823"/>
<path d="M259.538 181.399C259.538 181.399 251.563 183.744 247.847 203.331C244.131 222.917 242.009 233.923 246.125 239.76C250.24 245.598 264.563 255.232 264.563 255.232L281.438 232.583" fill="#FACA66"/>
<path d="M263.303 228.26C263.303 228.26 244.163 188.242 259.538 181.399C274.914 174.557 293.959 184.589 297.133 194.701C300.307 204.814 295.681 235.198 295.681 235.198C295.681 235.198 275.441 235.773 263.303 228.26Z" fill="#FACA66"/>
<path d="M294.533 190.012C294.533 190.012 307.819 212.342 318.043 209.264L326.736 189.518C326.736 189.518 344.281 194.957 342.686 205.691C342.686 205.691 327.007 232.551 315.762 234.082C304.517 235.613 290.625 221.322 290.625 221.322" fill="#FACA66"/>
<path d="M258.119 370.311C273.112 378.015 281.693 385.511 298.249 381.683C302.938 380.551 307.133 313.513 307.149 310.084C307.261 288.025 310.227 273.957 304.645 252.568C303.863 249.585 299.429 233.013 296.064 232.583L263.303 228.244C263.303 228.244 256.923 239.409 256.604 263.494C256.412 279.555 258.661 295.505 259.012 311.535C259.013 320.847 258.067 330.135 256.189 339.256C255.328 343.929 253.749 349.129 252.632 354.249C251.961 358.178 251.562 362.148 251.436 366.132C253.547 367.703 255.782 369.1 258.119 370.311Z" fill="#8805FA"/>
<path d="M264.483 184.43C263.829 184.079 260.623 178.05 264.93 176.455C269.236 174.86 283.416 176.455 283.32 179.039C283.224 181.623 283.32 185.563 283.32 185.563C280.266 186.653 277.023 187.114 273.786 186.92C270.549 186.725 267.385 185.878 264.483 184.43Z" fill="#E5572C"/>
<path d="M263.733 226.666C259.389 216.501 256.92 205.634 256.444 194.59C256.444 193.41 254.546 193.41 254.61 194.59C255.104 205.977 257.66 217.18 262.154 227.655C262.617 228.675 264.196 227.734 263.733 226.666Z" fill="#CE4823"/>
<path d="M248.086 167.921C244.258 174.556 253.27 187.907 244.29 191.639C242.237 192.334 240.078 192.669 237.91 192.628C235.65 192.604 233.41 193.061 231.339 193.968C229.269 194.876 227.414 196.213 225.9 197.891C221.115 203.585 221.45 212.964 225.756 218.881C230.669 225.628 239.027 226.506 246.22 223.3C263.223 215.739 252.361 183.425 265.169 174.764L265.791 160.217C265.791 160.217 252.967 159.5 248.086 167.921Z" fill="#935542"/>
<path d="M287.945 156.453C287.945 156.453 287.61 177.38 283.511 180.011C279.412 182.643 268.088 178.735 267.561 172.929C267.035 167.124 287.945 156.453 287.945 156.453Z" fill="#CE4823"/>
<path d="M276.398 146.421C276.398 146.421 269.172 143.582 258.661 149.611C248.15 155.64 251.595 175.131 263.861 179.118C276.126 183.106 279.253 171.143 281.565 166.358C283.878 161.573 287.945 159.835 287.866 157.602C287.786 155.369 287.626 146.086 276.398 146.421Z" fill="#935542"/>
<path d="M487.466 167.614C498.269 166.411 505.508 151.789 503.635 134.953C501.761 118.117 491.484 105.444 480.681 106.646C469.877 107.849 462.638 122.471 464.512 139.307C466.385 156.143 476.662 168.816 487.466 167.614Z" fill="#FFBE30"/>
<path d="M477.974 132.72L482.137 136.883V118.844C482.137 118.222 482.384 117.625 482.823 117.186C483.263 116.746 483.859 116.499 484.481 116.499C485.103 116.499 485.7 116.746 486.139 117.186C486.579 117.625 486.826 118.222 486.826 118.844V142.657C486.789 143.094 486.632 143.512 486.372 143.865C486.112 144.218 485.759 144.492 485.353 144.657C484.947 144.822 484.503 144.872 484.071 144.8C483.638 144.729 483.234 144.539 482.902 144.252L474.736 136.086C474.353 135.643 474.148 135.074 474.164 134.489C474.179 133.904 474.412 133.346 474.818 132.924C475.224 132.503 475.772 132.248 476.356 132.21C476.94 132.172 477.517 132.354 477.974 132.72Z" fill="#56403D"/>
<path d="M452.342 271.15V331.617C452.342 331.617 510.448 334.807 510.448 331.617V271.15" fill="#8805FA"/>
<path d="M481.403 344.377C497.453 344.377 510.464 338.435 510.464 331.106C510.464 323.777 497.453 317.836 481.403 317.836C465.353 317.836 452.342 323.777 452.342 331.106C452.342 338.435 465.353 344.377 481.403 344.377Z" fill="#8805FA"/>
<path d="M481.403 284.436C497.453 284.436 510.464 278.495 510.464 271.166C510.464 263.837 497.453 257.896 481.403 257.896C465.353 257.896 452.342 263.837 452.342 271.166C452.342 278.495 465.353 284.436 481.403 284.436Z" fill="#3129A3"/>
<path d="M463.284 281.486L463.491 281.598C464.608 281.98 465.74 282.331 466.888 282.634L458.913 216.426C458.234 216.168 457.497 216.102 456.783 216.234C456.069 216.366 455.404 216.692 454.862 217.176L462.965 281.374L463.284 281.486Z" fill="#F78B72"/>
<path d="M472.311 283.543L474.768 221.338C474.139 220.977 473.422 220.795 472.697 220.812C471.971 220.828 471.264 221.044 470.653 221.434L468.643 282.953C469.854 283.22 471.078 283.417 472.311 283.543Z" fill="#F78B72"/>
<path d="M481.403 284.436L489.378 219.647L505.615 228.197L499.075 282.618C493.343 284.286 487.355 284.902 481.403 284.436Z" fill="#FCB749"/>
<path style="mix-blend-mode:multiply" d="M409.596 302.109C399.452 296.574 374.937 292.683 354.569 282.618C331.074 296.319 314.279 305.522 278.136 326.162C305.49 342.782 326.688 358.062 329.766 359.88L401.079 323.195C401.015 319.59 409.532 305.746 409.596 302.109Z" fill="url(#paint3_linear_228_782)"/>
<defs>
<linearGradient id="paint0_linear_228_782" x1="488.628" y1="323.881" x2="436.265" y2="353.356" gradientUnits="userSpaceOnUse">
<stop stop-color="#808080"/>
<stop offset="1" stop-color="white"/>
</linearGradient>
<linearGradient id="paint1_linear_228_782" x1="196.233" y1="334.312" x2="149.388" y2="362.783" gradientUnits="userSpaceOnUse">
<stop stop-color="#808080"/>
<stop offset="1" stop-color="white"/>
</linearGradient>
<linearGradient id="paint2_linear_228_782" x1="273.479" y1="403.646" x2="257.593" y2="421.287" gradientUnits="userSpaceOnUse">
<stop stop-color="#808080"/>
<stop offset="1" stop-color="white"/>
</linearGradient>
<linearGradient id="paint3_linear_228_782" x1="383.31" y1="284.277" x2="337.454" y2="326.704" gradientUnits="userSpaceOnUse">
<stop stop-color="#808080"/>
<stop offset="1" stop-color="white"/>
</linearGradient>
</defs>
</svg>
