<svg width="632" height="474" viewBox="0 0 632 474" fill="none" xmlns="http://www.w3.org/2000/svg">
<path d="M306.757 458.2L62.0782 313.598C54.2888 309.221 47.6054 302.048 55.2052 297.34L300.753 155.803C304.434 153.528 310.028 152.027 313.772 154.223L570.617 303.296C578.406 307.815 579.797 320.455 572.007 324.974L339.005 457.963C334.114 460.801 328.567 462.316 322.912 462.358C317.257 462.4 311.689 460.966 306.757 458.2Z" fill="#FFBE30"/>
<path d="M304.94 130.903C302.08 129.228 298.288 129.797 294.954 130.903C281.272 135.643 261.506 145.123 261.774 162.14C261.913 171.254 262.822 180.339 264.492 189.3C265.14 192.823 268.173 208.892 270.275 211.926C273.435 216.46 284.795 194.546 287.418 192.839C291.905 189.9 296.266 186.772 300.563 183.565C303.723 181.179 310.897 177.403 312.192 173.626C312.436 172.774 312.548 171.89 312.524 171.004C312.741 163.023 312.297 155.037 311.197 147.13C310.407 142.058 310.043 133.905 304.94 130.903Z" fill="#297600"/>
<path opacity="0.32" d="M110.742 339.257L159.485 311.623L128.881 294.243L79.79 321.577C90.1548 327.36 100.441 333.38 110.742 339.257Z" fill="url(#paint0_linear_228_2111)"/>
<path opacity="0.32" d="M277.369 314.815L173.579 379.785L278.507 440.52L372.09 380.133" fill="url(#paint1_linear_228_2111)"/>
<path d="M208.955 241.645L228.199 343.255L333.175 404.132L498.221 302.333L506.659 201.671" fill="#E57A61"/>
<path d="M208.955 241.645L322.146 307.91L506.659 201.671L393.373 135.169L208.955 241.645Z" fill="#FF9476"/>
<path d="M333.175 404.132L323.078 307.91L506.659 201.671L498.221 302.333L333.175 404.132Z" fill="#D16550"/>
<path d="M351.013 60.2296V109.921L412.759 74.26C414.996 72.9567 416.862 71.1019 418.179 68.8726C419.496 66.6432 420.219 64.1136 420.28 61.5252L421.196 22.3886C421.214 21.3474 420.957 20.32 420.45 19.4104C419.943 18.5008 419.205 17.7413 418.31 17.2088C417.415 16.6764 416.395 16.3898 415.354 16.3783C414.312 16.3667 413.287 16.6306 412.38 17.143L357.649 48.743C355.632 49.9073 353.958 51.5816 352.793 53.5978C351.628 55.614 351.014 57.9011 351.013 60.2296Z" fill="#8805FA"/>
<path d="M351.013 109.92V127.49L367.255 96.585" fill="#8805FA"/>
<path d="M332.906 212.352C332.941 211.107 332.697 209.871 332.191 208.734C331.685 207.596 330.931 206.586 329.983 205.779C330.357 205.723 330.702 205.543 330.962 205.268C331.222 204.993 331.382 204.638 331.417 204.262C331.451 203.885 331.358 203.507 331.153 203.189C330.947 202.871 330.641 202.632 330.283 202.508C327.739 201.797 325.053 200.818 322.383 200.202C322.206 200.084 322.007 200.004 321.799 199.965C316.372 198.961 311.351 196.41 307.342 192.618C307.061 192.373 306.708 192.226 306.337 192.2C305.965 192.175 305.595 192.271 305.284 192.475C304.972 192.679 304.736 192.98 304.611 193.331C304.486 193.682 304.48 194.064 304.592 194.419C304.297 194.569 304.047 194.794 303.867 195.071C303.686 195.348 303.582 195.668 303.565 195.999C303.255 196.038 302.962 196.163 302.718 196.359C302.474 196.555 302.29 196.815 302.185 197.11C302.08 197.405 302.059 197.723 302.124 198.029C302.189 198.335 302.338 198.616 302.554 198.843C303.126 199.472 303.733 200.068 304.371 200.628C304.393 200.743 304.43 200.855 304.482 200.96C304.301 201.13 304.156 201.334 304.055 201.56C303.344 200.897 302.681 200.202 302.001 199.633C300.421 198.258 297.988 200.612 299.647 201.987C301.392 203.764 303.376 205.29 305.54 206.522C308.7 209.682 312.903 210.393 317.327 210.045L317.817 210.345C319.918 211.736 319.729 214.406 320.061 216.665C320.156 216.975 320.339 217.25 320.587 217.459C320.835 217.667 321.137 217.8 321.458 217.842C321.78 217.884 322.106 217.832 322.399 217.694C322.692 217.555 322.939 217.335 323.11 217.06C323.892 214.641 323.892 212.038 323.11 209.618C323.715 209.856 324.257 210.228 324.695 210.707C325.133 211.187 325.456 211.76 325.638 212.383C326.056 214.01 326.368 215.662 326.57 217.329C326.965 219.43 330.188 218.545 329.73 216.444C329.952 216.485 330.181 216.473 330.397 216.41C330.614 216.347 330.813 216.234 330.978 216.081C331.144 215.927 331.272 215.738 331.351 215.526C331.431 215.315 331.46 215.089 331.437 214.864C331.437 214.564 331.437 214.248 331.437 213.948C331.641 213.948 331.843 213.907 332.03 213.825C332.217 213.743 332.385 213.624 332.523 213.474C332.661 213.323 332.767 213.146 332.833 212.953C332.899 212.76 332.924 212.555 332.906 212.352Z" fill="#FFE9CA"/>
<path d="M365.486 176.834C366.307 175.396 365.201 173.421 364.411 172.094C362.831 169.806 360.919 167.767 358.739 166.042C358.453 165.809 358.1 165.675 357.732 165.66C357.364 165.644 357.001 165.748 356.697 165.956C356.393 166.164 356.164 166.465 356.045 166.814C355.926 167.163 355.924 167.54 356.037 167.891C355.853 167.809 355.654 167.766 355.453 167.765C355.265 167.417 354.999 167.119 354.675 166.894C354.351 166.669 353.979 166.523 353.588 166.469C352.293 165.347 350.539 166.99 351.076 168.428C350.693 168.478 350.342 168.667 350.089 168.958C349.836 169.249 349.698 169.622 349.701 170.008C349.764 171.264 350.174 172.479 350.886 173.516C349.833 172.462 348.78 171.409 347.726 170.356C346.399 169.06 344.045 170.925 345.183 172.473L345.751 173.247C345.936 173.501 346.187 173.698 346.478 173.816L347.347 174.669C348.306 176.091 349.327 177.466 350.412 178.793C350.26 178.906 350.132 179.049 350.038 179.213C349.943 179.377 349.884 179.559 349.863 179.748C349.842 179.936 349.861 180.127 349.917 180.308C349.974 180.489 350.067 180.656 350.191 180.8C352.071 183.217 356.511 190.706 360.256 187.12C361.204 188.468 362.104 189.853 362.958 191.275C363.099 191.54 363.314 191.759 363.576 191.907C363.839 192.054 364.137 192.124 364.438 192.107C364.738 192.09 365.028 191.988 365.272 191.813C365.516 191.638 365.706 191.396 365.817 191.117C366.051 190.977 366.234 190.768 366.342 190.519C366.45 190.269 366.476 189.992 366.418 189.727C366.224 188.521 365.885 187.343 365.407 186.219C367.097 184.987 366.892 183.059 365.944 181.479C366.21 180.718 366.306 179.908 366.227 179.106C366.148 178.304 365.895 177.528 365.486 176.834Z" fill="#FFE9CA"/>
<path d="M348.311 182.616C351.471 174.89 358.85 169.344 366.655 165.931L360.43 161.444C353.462 155.298 346.747 148.804 339.89 142.484C332.179 135.39 324.895 125.736 313.867 124.172C308.811 123.461 302.807 124.583 297.862 125.61C292.176 126.578 286.925 129.269 282.82 133.32C278.428 138.06 276.705 144.696 274.92 150.7C272.952 157.118 271.577 163.702 270.812 170.371C270.291 175.111 269.738 180.847 271.634 185.429C272.825 188.214 274.314 190.863 276.073 193.329C281.547 198.882 287.75 203.666 294.512 207.549C296.313 208.602 298.151 209.608 300.026 210.566C304.403 204.657 311.086 198.906 318.402 196.583L304.308 187.103L330.22 171.841L348.311 182.616Z" fill="#8805FA"/>
<path d="M318.733 178.54L313.899 124.188L303.313 121.028L292.727 124.599C302.017 128.723 305.856 174.717 308.053 184.781C308.195 184.766 318.56 178.635 318.733 178.54Z" fill="#F7FFEB"/>
<path d="M326.633 205.4C326.286 205.147 325.954 205.732 326.302 205.969C327.613 206.868 328.715 208.039 329.533 209.402C330.351 210.765 330.866 212.289 331.042 213.869C331.042 214.295 331.753 214.295 331.705 213.869C331.524 212.174 330.977 210.539 330.101 209.076C329.226 207.614 328.042 206.36 326.633 205.4Z" fill="#BC3B1D"/>
<path d="M324.801 207.281C324.437 207.059 324.105 207.628 324.469 207.849C325.874 208.708 327.037 209.913 327.844 211.348C328.652 212.784 329.078 214.402 329.082 216.05C329.082 216.138 329.117 216.222 329.18 216.284C329.242 216.346 329.326 216.381 329.414 216.381C329.502 216.381 329.587 216.346 329.649 216.284C329.711 216.222 329.746 216.138 329.746 216.05C329.741 214.287 329.283 212.555 328.417 211.02C327.552 209.485 326.306 208.197 324.801 207.281Z" fill="#BC3B1D"/>
<path d="M330.726 205.526C327.853 203.226 324.659 201.358 321.246 199.981C320.851 199.823 320.677 200.47 321.072 200.628C324.354 201.969 327.425 203.779 330.188 206C330.583 206.269 331.057 205.795 330.726 205.526Z" fill="#BC3B1D"/>
<path d="M365.533 186.693C366.113 186.259 366.532 185.645 366.724 184.947C366.916 184.248 366.869 183.506 366.592 182.837C366.434 182.3 366.26 181.763 366.039 181.257C366.073 181.227 366.1 181.189 366.118 181.147C367.176 178.951 365.802 176.897 364.806 174.953C364.617 174.574 364.032 174.953 364.237 175.285C365.043 176.865 366.276 178.635 365.707 180.42C365.152 179.142 364.458 177.928 363.637 176.802C363.384 176.454 362.8 176.802 363.068 177.134C364.38 178.919 367.808 184.37 365.201 186.155C365.156 186.183 365.119 186.221 365.091 186.266C364.049 183.512 362.824 180.83 361.425 178.24C361.22 177.86 360.651 178.24 360.856 178.571C361.897 180.492 362.841 182.465 363.684 184.481C364.032 185.313 364.358 186.155 364.664 187.009C364.838 187.483 365.012 187.957 365.17 188.431C365.328 188.905 365.422 189.078 365.454 189.252C365.57 189.617 365.57 190.009 365.454 190.374C365.362 190.667 365.163 190.915 364.896 191.067C364.63 191.22 364.315 191.265 364.016 191.196C363.658 191.1 363.345 190.882 363.131 190.579C362.942 190.579 362.863 190.232 362.515 189.679L361.804 188.557L360.019 185.745L356.511 180.12C356.274 179.756 355.705 180.12 355.942 180.452L361.646 189.442C362.373 190.595 363.842 193.392 365.644 191.986C367.224 190.801 365.865 188.178 365.296 186.74C365.337 186.75 365.379 186.751 365.42 186.743C365.461 186.735 365.499 186.717 365.533 186.693Z" fill="#BC3B1D"/>
<path opacity="0.47" d="M306.315 187.34C302.944 183.907 299.726 180.336 296.661 176.628V168.538C296.661 168.272 296.555 168.017 296.367 167.829C296.179 167.641 295.924 167.535 295.657 167.535C295.391 167.535 295.136 167.641 294.948 167.829C294.76 168.017 294.654 168.272 294.654 168.538V174.132L293.406 172.552C292.616 171.54 291.21 172.962 291.984 173.974C292.758 174.985 293.785 176.249 294.686 177.355C294.719 177.47 294.776 177.576 294.852 177.669C294.928 177.761 295.022 177.837 295.128 177.892C298.225 181.642 301.475 185.25 304.877 188.715C305.793 189.679 307.215 188.257 306.315 187.34Z" fill="#56403D"/>
<path opacity="0.47" d="M330.236 171.841L326.159 154.903L322.794 176.139L330.236 171.841Z" fill="#56403D"/>
<path d="M294.97 126.89C295.049 127.348 307.247 137.618 307.247 137.618L308.953 131.93L312.998 136.749L314.404 129.845L313.899 124.22" fill="#C7D1B6"/>
<path d="M302.775 126.668C294.164 129.97 284.321 123.018 287.86 108.056C291.02 94.4203 307.816 96.0477 307.816 96.0477" fill="#DD966F"/>
<path d="M305.825 99.5397C297.925 99.1447 292.6 109.146 292.948 114.502C293.068 116.498 293.451 118.469 294.085 120.364C294.265 120.396 294.44 120.449 294.607 120.522C295.736 120.839 296.744 121.488 297.498 122.386C298.288 123.461 298.557 124.82 299.315 125.926C300.697 127.813 302.681 129.173 304.94 129.781C305.599 129.89 306.264 129.964 306.931 130.002C317.485 130.634 317.454 106.808 317.785 105.259C316.289 103.538 314.456 102.143 312.398 101.159C310.341 100.175 308.104 99.6242 305.825 99.5397Z" fill="#FFE9CA"/>
<path d="M305.161 112.18L314.641 110.331C315.095 108.625 315.165 106.839 314.847 105.101L315.921 109.92H319.429C319.429 109.92 321.893 100.567 311.228 96.8697C300.563 93.1725 290.341 99.0185 290.72 108.498C290.829 113.887 292.903 119.051 296.55 123.019C296.55 123.019 291.178 113.997 293.027 117.836C295.302 122.576 297.609 113.523 297.514 110.789L298.683 112.859L305.161 112.18Z" fill="#DD966F"/>
<path d="M299.284 119.164C299.281 118.442 299.126 117.728 298.829 117.069C298.533 116.41 298.101 115.821 297.561 115.34C296.598 114.503 295.033 113.76 293.959 114.851C292.885 115.941 293.327 117.647 293.659 118.848C294.107 120.469 294.912 121.969 296.013 123.24C297.119 124.552 298.999 122.656 297.893 121.36C297.571 120.96 297.285 120.532 297.04 120.08C297.223 120.265 297.456 120.391 297.71 120.443C297.964 120.495 298.228 120.47 298.468 120.372C298.708 120.274 298.914 120.107 299.059 119.892C299.204 119.677 299.282 119.423 299.284 119.164ZM296.124 117.774C296.429 118.174 296.6 118.661 296.613 119.164C296.613 119.164 296.613 119.259 296.613 119.306C296.398 118.813 296.234 118.3 296.124 117.774Z" fill="#FFE9CA"/>
<path d="M303.297 121.36C305.47 121.36 307.231 119.379 307.231 116.936C307.231 114.492 305.47 112.512 303.297 112.512C301.124 112.512 299.363 114.492 299.363 116.936C299.363 119.379 301.124 121.36 303.297 121.36Z" stroke="#603813" stroke-width="0.25" stroke-miterlimit="10"/>
<path d="M313.425 118.831C315.344 118.831 316.901 116.851 316.901 114.407C316.901 111.964 315.344 109.983 313.425 109.983C311.505 109.983 309.949 111.964 309.949 114.407C309.949 116.851 311.505 118.831 313.425 118.831Z" stroke="#603813" stroke-width="0.25" stroke-miterlimit="10"/>
<path d="M308.906 115.34C308.885 115.219 308.822 115.11 308.728 115.031C308.634 114.952 308.515 114.909 308.392 114.909C308.27 114.909 308.151 114.952 308.057 115.031C307.963 115.11 307.9 115.219 307.879 115.34C307.886 116.208 308.041 117.068 308.337 117.884C308.712 118.714 308.973 119.591 309.111 120.491C308.599 120.727 308.071 120.928 307.531 121.091C306.915 121.328 307.184 122.324 307.8 122.087C308.7 121.739 310.154 121.597 310.091 120.396C310.059 118.5 308.89 117.078 308.906 115.34Z" fill="#D66145"/>
<path d="M307.231 117.283L310.407 116.588" stroke="#603813" stroke-width="0.25" stroke-miterlimit="10"/>
<path d="M296.598 114.771L299.473 116.588" stroke="#603813" stroke-width="0.25" stroke-miterlimit="10"/>
<path d="M308.337 123.903C308.08 124.111 307.782 124.263 307.464 124.349C307.145 124.436 306.811 124.455 306.484 124.406C306.158 124.357 305.845 124.241 305.565 124.064C305.286 123.888 305.046 123.656 304.861 123.382C304.561 123.05 304.055 123.54 304.355 123.887C304.613 124.218 304.933 124.494 305.299 124.699C305.664 124.905 306.066 125.035 306.482 125.084C306.898 125.132 307.32 125.098 307.722 124.982C308.125 124.866 308.5 124.671 308.827 124.409C309.159 124.093 308.653 123.587 308.337 123.903Z" fill="#D66145"/>
<path d="M284.511 118.421C287.975 118.421 290.783 115.613 290.783 112.149C290.783 108.684 287.975 105.876 284.511 105.876C281.046 105.876 278.238 108.684 278.238 112.149C278.238 115.613 281.046 118.421 284.511 118.421Z" fill="#DD966F"/>
<path d="M312.413 97.8654C312.413 97.8654 310.154 95.4954 300.358 100.251C291.621 104.486 294.401 114.771 294.401 114.771L291.526 116.588C291.526 116.588 287.054 107.108 292.49 100.314C299.363 91.735 306.599 94.7686 306.599 94.7686C306.599 94.7686 310.849 95.7798 312.413 97.8654Z" fill="#3F281C"/>
<path d="M308.1 125.989C307.913 126.003 307.736 126.074 307.591 126.192C307.447 126.311 307.343 126.472 307.294 126.653L307.199 126.763C305.448 127.3 303.58 127.326 301.815 126.839C300.049 126.352 298.458 125.372 297.23 124.014C298.392 123.185 299.198 121.948 299.488 120.55C299.778 119.152 299.53 117.696 298.794 116.473C298.057 115.249 296.887 114.349 295.516 113.951C294.145 113.552 292.674 113.686 291.397 114.324C290.12 114.963 289.131 116.059 288.627 117.395C288.123 118.731 288.141 120.208 288.678 121.531C289.215 122.853 290.231 123.925 291.523 124.532C292.815 125.139 294.289 125.236 295.65 124.804C295.676 124.86 295.707 124.913 295.744 124.962C297.231 126.694 299.203 127.942 301.405 128.545C303.606 129.147 305.938 129.077 308.1 128.343C308.236 128.444 308.393 128.513 308.559 128.546C308.726 128.579 308.897 128.575 309.061 128.534C309.226 128.494 309.379 128.417 309.511 128.31C309.642 128.204 309.749 128.069 309.822 127.917C310.517 126.748 309.19 125.894 308.1 125.989Z" fill="#3F281C"/>
<path opacity="0.32" d="M452.528 191.575C452.497 191.528 452.48 191.473 452.48 191.417C452.48 191.36 452.497 191.306 452.528 191.259C452.528 191.148 450.948 190.816 451.027 190.722C451.106 190.627 450.063 190.406 450.142 190.137C448.094 189.368 446.258 188.122 444.786 186.503L424.435 199.57L452.354 215.559L471.899 204.357C471.93 204.167 455.83 195.225 452.528 191.575Z" fill="url(#paint2_linear_228_2111)"/>
<path d="M466.621 178.114L458.895 174.543C456.494 173.421 453.555 171.888 453.729 168.807C453.729 168.476 453.239 168.476 453.223 168.807C453.081 171.367 455.008 173.137 457.094 174.243C460.096 175.823 463.288 177.134 466.369 178.556C466.653 178.682 466.922 178.24 466.621 178.114Z" fill="#DA4131"/>
<path d="M467.38 172.426V177.561C467.38 177.628 467.406 177.692 467.454 177.739C467.501 177.787 467.566 177.813 467.633 177.813C467.7 177.813 467.764 177.787 467.811 177.739C467.859 177.692 467.885 177.628 467.885 177.561V172.426C467.885 172.359 467.859 172.294 467.811 172.247C467.764 172.199 467.7 172.173 467.633 172.173C467.566 172.173 467.501 172.199 467.454 172.247C467.406 172.294 467.38 172.359 467.38 172.426Z" fill="#DA4131"/>
<path d="M464.03 183.486C462.409 181.181 459.987 179.564 457.236 178.951C454.297 178.019 451.043 177.371 448.183 178.872C448.141 178.891 448.107 178.923 448.084 178.963C448.062 179.002 448.052 179.048 448.056 179.093C447.261 179.412 446.495 179.798 445.765 180.247C443.617 181.558 441.025 183.407 439.904 185.729C438.782 188.052 439.761 191.322 440.615 193.724C441.366 196.219 443.016 198.346 445.244 199.696C447.65 200.939 450.397 201.36 453.065 200.897C456.02 200.509 458.841 199.426 461.297 197.737C465.294 194.877 466.495 187.767 464.03 183.486ZM462.039 196.505C460.116 198.204 457.787 199.38 455.277 199.918C452.79 200.686 450.139 200.757 447.614 200.123C446.409 199.79 445.285 199.212 444.312 198.427C443.339 197.642 442.538 196.665 441.958 195.557C440.743 193.289 440.047 190.78 439.919 188.21C439.919 185.05 442.59 183.043 444.928 181.416C446.086 180.451 447.435 179.742 448.886 179.336C450.338 178.93 451.859 178.837 453.349 179.062C453.401 179.066 453.452 179.055 453.497 179.03C453.542 179.006 453.58 178.969 453.605 178.924C453.629 178.879 453.641 178.828 453.638 178.777C453.635 178.726 453.617 178.677 453.586 178.635C454.435 178.758 455.274 178.937 456.099 179.172C458.435 179.684 460.608 180.77 462.419 182.332C463.261 183.252 463.898 184.341 464.287 185.526C464.677 186.711 464.81 187.965 464.678 189.205C464.689 191.877 463.748 194.465 462.024 196.505H462.039Z" fill="#DA4131"/>
<path d="M456.02 189.679C455.836 188.644 455.342 187.688 454.602 186.941C453.863 186.193 452.913 185.687 451.88 185.492C452.496 185.192 453.128 184.923 453.729 184.686C454.029 184.56 453.902 184.07 453.586 184.196C452.696 184.542 451.83 184.949 450.995 185.413C450.948 185.41 450.901 185.422 450.861 185.448C450.821 185.473 450.791 185.511 450.774 185.555C449.998 185.941 449.328 186.512 448.824 187.217C448.32 187.922 447.996 188.741 447.883 189.6C447.903 190.79 448.39 191.925 449.237 192.761C450.085 193.597 451.227 194.067 452.417 194.071C452.967 194.091 453.513 193.984 454.014 193.757C454.515 193.531 454.957 193.192 455.306 192.767C455.655 192.342 455.901 191.842 456.024 191.307C456.148 190.771 456.146 190.214 456.02 189.679ZM451.833 193.471C451.298 193.4 450.785 193.215 450.328 192.93C449.871 192.644 449.479 192.265 449.18 191.816C448.881 191.367 448.681 190.86 448.594 190.328C448.506 189.796 448.533 189.252 448.673 188.731C449.145 187.526 450.037 186.533 451.185 185.934C452.14 185.971 453.062 186.302 453.822 186.882C454.583 187.461 455.146 188.262 455.435 189.173C455.653 189.703 455.722 190.282 455.637 190.849C455.551 191.415 455.312 191.948 454.947 192.389C454.582 192.831 454.104 193.164 453.563 193.355C453.023 193.546 452.441 193.586 451.88 193.471H451.833Z" fill="#DA4131"/>
<path d="M454.234 188.952C453.823 187.893 452.417 188.13 451.769 187.372C451.548 187.119 451.201 187.482 451.406 187.735C451.751 188.088 452.19 188.334 452.67 188.446C452.97 188.52 453.254 188.648 453.507 188.825C453.476 188.807 453.441 188.796 453.405 188.795C453.368 188.793 453.332 188.8 453.299 188.816C453.267 188.831 453.238 188.855 453.217 188.884C453.195 188.913 453.181 188.947 453.176 188.983L453.002 189.852C452.987 189.905 452.989 189.962 453.009 190.013C453.029 190.064 453.066 190.108 453.112 190.137C453.839 190.453 454.503 189.6 454.234 188.952ZM453.555 189.71L453.681 189.126C453.692 189.084 453.692 189.041 453.681 188.999C453.732 189.069 453.765 189.15 453.776 189.236C453.792 189.347 453.729 189.6 453.555 189.71Z" fill="#DA4131"/>
<path d="M430.424 195.81L458.69 211.989L479.972 199.696V178.572L456.999 165.395L446.555 171.004L430.424 195.81Z" fill="#8805FA"/>
<path d="M479.972 178.571L469.781 184.449L458.69 211.988L479.972 199.696V178.571Z" fill="#8805FA"/>
<path opacity="0.22" d="M430.424 195.81L458.69 211.989L479.972 199.696V178.572L456.999 165.395L446.555 171.004L430.424 195.81Z" fill="#272322"/>
<path opacity="0.55" d="M479.972 178.571L469.781 184.449L458.69 211.988L479.972 199.696V178.571Z" fill="#272322"/>
<path d="M469.781 184.449L446.555 171.003L430.424 195.809L458.69 211.988L469.781 184.449Z" fill="#8805FA"/>
<path d="M451.833 200.186C457.147 200.186 461.455 195.991 461.455 190.817C461.455 185.642 457.147 181.447 451.833 181.447C446.518 181.447 442.21 185.642 442.21 190.817C442.21 195.991 446.518 200.186 451.833 200.186Z" fill="#FDBF30"/>
<path d="M445.991 187.631C446.447 187.091 446.427 186.324 445.946 185.919C445.466 185.514 444.707 185.624 444.252 186.164C443.796 186.705 443.816 187.471 444.296 187.876C444.776 188.281 445.535 188.171 445.991 187.631Z" fill="#444A93"/>
<path d="M445.835 187.317C446.188 186.705 446.034 185.954 445.49 185.64C444.946 185.326 444.218 185.568 443.865 186.18C443.511 186.792 443.666 187.543 444.21 187.857C444.754 188.171 445.482 187.929 445.835 187.317Z" fill="#686EBC"/>
<path d="M451.103 184.731C451.559 184.19 451.539 183.424 451.059 183.019C450.578 182.614 449.82 182.723 449.364 183.264C448.908 183.804 448.928 184.571 449.408 184.976C449.889 185.381 450.648 185.271 451.103 184.731Z" fill="#444A93"/>
<path d="M450.949 184.386C451.302 183.774 451.147 183.023 450.603 182.709C450.059 182.394 449.332 182.636 448.978 183.248C448.625 183.86 448.779 184.611 449.324 184.925C449.868 185.239 450.595 184.998 450.949 184.386Z" fill="#686EBC"/>
<path d="M456.192 185.301C456.648 184.76 456.628 183.994 456.148 183.589C455.667 183.184 454.909 183.294 454.453 183.834C453.997 184.374 454.017 185.141 454.498 185.546C454.978 185.951 455.737 185.841 456.192 185.301Z" fill="#444A93"/>
<path d="M456.039 184.973C456.393 184.361 456.238 183.61 455.694 183.295C455.15 182.981 454.422 183.223 454.069 183.835C453.715 184.447 453.87 185.198 454.414 185.512C454.958 185.826 455.686 185.585 456.039 184.973Z" fill="#686EBC"/>
<path d="M459.624 190.366C460.079 189.826 460.059 189.06 459.579 188.655C459.099 188.25 458.34 188.359 457.884 188.9C457.429 189.44 457.449 190.206 457.929 190.611C458.409 191.016 459.168 190.907 459.624 190.366Z" fill="#444A93"/>
<path d="M459.486 190.031C459.839 189.419 459.684 188.668 459.14 188.354C458.596 188.04 457.869 188.281 457.515 188.894C457.162 189.506 457.316 190.257 457.86 190.571C458.405 190.885 459.132 190.643 459.486 190.031Z" fill="#686EBC"/>
<path d="M458.03 196.115C458.486 195.575 458.466 194.809 457.986 194.404C457.505 193.999 456.747 194.108 456.291 194.649C455.835 195.189 455.855 195.955 456.335 196.36C456.816 196.765 457.575 196.656 458.03 196.115Z" fill="#444A93"/>
<path d="M457.886 195.774C458.239 195.162 458.084 194.411 457.54 194.097C456.996 193.783 456.269 194.025 455.915 194.637C455.562 195.249 455.716 196 456.26 196.314C456.805 196.628 457.532 196.386 457.886 195.774Z" fill="#686EBC"/>
<path d="M445.842 193.52C446.298 192.979 446.278 192.213 445.797 191.808C445.317 191.403 444.558 191.513 444.103 192.053C443.647 192.593 443.667 193.36 444.147 193.765C444.628 194.17 445.386 194.06 445.842 193.52Z" fill="#444A93"/>
<path d="M445.687 193.192C446.041 192.58 445.886 191.829 445.342 191.515C444.798 191.201 444.07 191.443 443.717 192.055C443.364 192.667 443.518 193.418 444.062 193.732C444.606 194.046 445.334 193.804 445.687 193.192Z" fill="#686EBC"/>
<path d="M451.448 197.441C451.903 196.901 451.883 196.135 451.403 195.73C450.923 195.325 450.164 195.434 449.708 195.975C449.253 196.515 449.273 197.281 449.753 197.686C450.233 198.092 450.992 197.982 451.448 197.441Z" fill="#444A93"/>
<path d="M451.301 197.103C451.654 196.491 451.5 195.74 450.956 195.426C450.411 195.112 449.684 195.354 449.33 195.966C448.977 196.578 449.132 197.329 449.676 197.643C450.22 197.957 450.947 197.716 451.301 197.103Z" fill="#686EBC"/>
<path d="M451.833 194.292C454.136 194.292 456.004 192.467 456.004 190.216C456.004 187.965 454.136 186.14 451.833 186.14C449.529 186.14 447.661 187.965 447.661 190.216C447.661 192.467 449.529 194.292 451.833 194.292Z" stroke="#662D91" stroke-miterlimit="10"/>
<path d="M440.82 162.993C440.82 162.993 446.587 155.63 454.756 159.106C462.924 162.582 475.09 168.491 478.456 171.873C481.821 175.254 482.421 182.822 482.374 184.513C482.374 184.513 473.447 179.03 472.404 176.265C471.232 173.549 469.259 171.256 466.748 169.692C464.931 168.713 451.39 162.535 450.047 163.025C448.704 163.514 440.82 162.993 440.82 162.993Z" fill="#8805FA"/>
<path d="M470.84 188.588L471.156 188.399C471.213 188.351 471.252 188.284 471.264 188.21C471.277 188.137 471.263 188.061 471.225 187.997C471.187 187.932 471.128 187.883 471.057 187.859C470.987 187.834 470.91 187.835 470.84 187.862L470.524 188.051C470.467 188.099 470.428 188.166 470.416 188.24C470.403 188.313 470.417 188.389 470.455 188.454C470.493 188.518 470.552 188.567 470.623 188.592C470.693 188.616 470.77 188.615 470.84 188.588Z" fill="#8805FA"/>
<path d="M435.385 173.99C434.985 173.599 434.72 173.091 434.629 172.54C434.539 171.989 434.626 171.423 434.879 170.925C435.574 169.582 436.333 168.286 437.154 167.022C440.109 162.503 445.291 159.264 450.9 160.086C456.257 160.876 461.407 163.404 466.179 165.869C486.719 176.47 482.105 188.542 481.584 189.569C481.063 190.596 481.489 194.609 475.406 193.376C469.323 192.144 468.375 187.214 468.912 185.966C469.45 184.718 472.736 179.962 470.319 177.513C467.901 175.064 453.034 167.701 451.359 168.381C449.684 169.06 447.756 174.29 447.756 175.001C447.756 175.712 441.515 180.12 435.385 173.99Z" fill="#8805FA"/>
<path d="M447.519 175.096C447.532 174.484 447.356 173.882 447.014 173.374C445.181 170.53 441.326 169.345 438.087 169.25C436.412 169.25 434.927 169.708 434.753 171.525C434.31 175.175 437.502 177.276 440.709 177.845C442.047 178.103 443.428 178.044 444.738 177.671C445.308 177.571 445.846 177.34 446.312 176.998C446.778 176.655 447.159 176.21 447.424 175.696C447.485 175.502 447.517 175.3 447.519 175.096Z" fill="#8805FA"/>
<path d="M481.347 190.69C481.36 190.077 481.184 189.476 480.841 188.968C479.009 186.124 475.153 184.939 471.914 184.844C470.24 184.844 468.754 185.302 468.581 187.119C468.138 190.769 471.33 192.87 474.537 193.439C475.875 193.697 477.255 193.638 478.566 193.265C479.136 193.165 479.674 192.934 480.14 192.592C480.606 192.249 480.987 191.804 481.252 191.29C481.313 191.096 481.345 190.893 481.347 190.69Z" fill="#8805FA"/>
<path opacity="0.5" d="M447.519 175.096C447.532 174.484 447.356 173.882 447.014 173.374C445.181 170.53 441.326 169.345 438.087 169.25C436.412 169.25 434.927 169.708 434.753 171.525C434.31 175.175 437.502 177.276 440.709 177.845C442.047 178.103 443.428 178.044 444.738 177.671C445.308 177.571 445.846 177.34 446.312 176.998C446.778 176.655 447.159 176.21 447.424 175.696C447.485 175.502 447.517 175.3 447.519 175.096Z" fill="#8805FA"/>
<path opacity="0.5" d="M481.347 190.69C481.36 190.077 481.184 189.476 480.841 188.968C479.009 186.124 475.153 184.939 471.914 184.844C470.24 184.844 468.754 185.302 468.581 187.119C468.138 190.769 471.33 192.87 474.537 193.439C475.875 193.697 477.255 193.638 478.566 193.265C479.136 193.165 479.674 192.934 480.14 192.592C480.606 192.249 480.987 191.804 481.252 191.29C481.313 191.096 481.345 190.893 481.347 190.69Z" fill="#8805FA"/>
<path d="M314.42 292.253L347.521 272.55L308.621 249.577L274.588 269.296L314.42 292.253Z" fill="#56403D"/>
<path d="M328.893 290.768L361.994 271.049L323.094 248.092L289.061 267.81L328.893 290.768Z" fill="#8805FA"/>
<path d="M269.09 254.886L275.726 259.263L311.766 238.486L304.861 234.235L269.09 254.886Z" fill="#56403D"/>
<path d="M334.96 166.58L406.645 125.199C407.218 124.845 407.877 124.652 408.551 124.639C409.225 124.627 409.89 124.796 410.476 125.129C411.062 125.461 411.548 125.946 411.883 126.531C412.218 127.116 412.39 127.78 412.38 128.454V183.185C412.38 184.243 412.099 185.281 411.566 186.194C411.033 187.108 410.267 187.863 409.346 188.384L338.736 228.31C338.056 228.725 337.278 228.952 336.482 228.967C335.686 228.982 334.9 228.784 334.205 228.395C333.51 228.006 332.931 227.439 332.528 226.752C332.125 226.065 331.912 225.283 331.911 224.487V171.999C331.909 170.909 332.188 169.838 332.723 168.888C333.257 167.939 334.028 167.143 334.96 166.58Z" fill="#56403D"/>
<path d="M370.463 201.071V224.486L386.705 215.765V192.76" fill="#56403D"/>
<path d="M377.731 226.781C391.403 220.077 401.194 212.007 399.6 208.755C398.005 205.504 385.63 208.303 371.958 215.006C358.286 221.71 348.495 229.78 350.089 233.032C351.683 236.283 364.059 233.485 377.731 226.781Z" fill="#56403D"/>
<path d="M368.472 60.988C371.205 59.408 372.801 60.988 372.785 64.7326C372.723 66.7129 372.289 68.6639 371.505 70.4838L367.903 79.2686L373.022 76.393V79.9322L363.763 85.1304V83.5504L369.025 70.784C369.69 69.3691 370.081 67.8412 370.178 66.281C370.178 64.543 369.578 63.8162 368.409 64.4798C367.806 64.9275 367.319 65.512 366.986 66.185C366.654 66.8579 366.486 67.6002 366.497 68.3508L364.079 69.0302C364.173 67.3686 364.637 65.749 365.438 64.2902C366.114 62.9231 367.167 61.7775 368.472 60.988Z" fill="white"/>
<path d="M383.735 66.4544L385.315 65.538V69.0772L383.735 69.9936V73.9594L381.112 75.4288V71.463L374.792 74.9864V73.0272L381.112 54.162L383.861 52.582L383.735 66.4544ZM381.112 67.9238V59.7868L377.952 69.646L381.112 67.908" fill="white"/>
<path d="M398.903 42.6445L389.66 72.1273L387.163 73.5335L396.406 44.0507L398.903 42.6445Z" fill="white"/>
<path d="M409.694 38.1094L409.678 39.6894L404.053 62.5362L401.462 63.974L406.566 43.3866L400.862 46.594L400.878 43.0548L409.694 38.1094Z" fill="white"/>
<path d="M122.845 281.493V305.809H162.171V281.493" fill="#F8997C"/>
<path d="M142.516 291.162C153.38 291.162 162.187 286.833 162.187 281.493C162.187 276.152 153.38 271.823 142.516 271.823C131.652 271.823 122.845 276.152 122.845 281.493C122.845 286.833 131.652 291.162 142.516 291.162Z" fill="#DD654A"/>
<path d="M142.516 316.427C153.38 316.427 162.187 312.098 162.187 306.757C162.187 301.417 153.38 297.088 142.516 297.088C131.652 297.088 122.845 301.417 122.845 306.757C122.845 312.098 131.652 316.427 142.516 316.427Z" fill="#F8997C"/>
<path d="M164.525 224.96C160.37 223.27 154.619 217.613 149.594 217.787C147.934 222.611 146.909 227.63 146.545 232.718C145.59 240.989 145.399 249.329 145.976 257.635C146.092 259.478 146.245 261.321 146.434 263.165C146.482 263.714 146.632 264.25 146.877 264.745C146.877 271.16 146.877 277.574 146.877 283.989C146.9 284.134 146.974 284.265 147.086 284.36C147.197 284.455 147.339 284.507 147.485 284.507C147.631 284.507 147.773 284.455 147.885 284.36C147.996 284.265 148.07 284.134 148.093 283.989C148.093 277.817 148.093 271.644 148.093 265.472C150.067 264.82 151.959 263.945 153.734 262.865C157.423 260.542 160.209 257.03 161.634 252.911C164.794 244.078 162.803 234.203 165.821 225.45C165.41 225.292 164.968 225.134 164.525 224.96Z" fill="#297600"/>
<path d="M156.025 210.472C153.674 211.858 151.733 213.842 150.4 216.223C150.049 216.761 149.753 217.333 149.515 217.93L149.342 218.309C148.963 219.305 148.646 220.323 148.394 221.358C148.88 220.602 149.619 220.042 150.479 219.778C151.513 219.324 152.667 219.219 153.766 219.478C154.828 219.879 155.836 220.41 156.768 221.058C158.174 221.911 159.517 222.859 160.907 223.744C167.433 227.884 176.107 228.31 181.131 222.275C181.131 222.038 181.258 221.801 181.305 221.548C182.079 217.377 170.435 202.098 156.025 210.472Z" fill="#5FAD00"/>
<path d="M178.271 224.786L179.077 224.249C179.09 224.163 179.082 224.076 179.055 223.993C179.027 223.911 178.981 223.836 178.919 223.775C174.985 219.73 170.751 215.765 165.363 213.774C161.505 212.311 157.328 211.902 153.26 212.589C152.818 213.094 152.423 213.632 152.028 214.169C156.663 212.955 161.575 213.362 165.947 215.322C170.687 217.36 174.495 220.994 178.05 224.644C178.112 224.708 178.188 224.756 178.271 224.786Z" fill="#297600"/>
<path d="M112.18 233.587C109.331 235.073 106.981 237.362 105.42 240.17C103.858 242.979 103.154 246.183 103.395 249.387C103.853 261 122.987 249.656 128.059 239.907C133.131 230.158 133.937 244.078 133.937 244.078" fill="#297600"/>
<path d="M129.449 229.543C125.855 229.478 122.273 229.974 118.832 231.012C116.506 231.558 114.267 232.425 112.18 233.587C113.382 234.395 114.663 235.078 116.004 235.626C118.5 236.367 120.676 237.925 122.181 240.05C122.492 240.606 122.741 241.194 122.924 241.803C124.093 245.627 123.082 250.256 124.646 254.096C126.21 257.935 129.386 261.332 133.937 261.601C139.324 261.933 141.837 256.75 142.864 252.279C143.891 247.807 145.392 241.693 143.685 237.079C141.758 231.723 134.553 229.78 129.449 229.543Z" fill="#5FAD00"/>
<path d="M136.544 247.649C134.284 240.318 129.481 233.429 122.466 230.158H122.197L121.865 230.269L120.601 230.601C128.77 233.634 133.905 241.661 136.006 249.924C138.692 260.463 137.776 271.854 137.808 282.63C137.83 282.763 137.899 282.883 138.001 282.97C138.104 283.057 138.234 283.104 138.369 283.104C138.503 283.104 138.633 283.057 138.736 282.97C138.839 282.883 138.907 282.763 138.929 282.63C138.914 271.143 139.988 258.804 136.544 247.649Z" fill="#297600"/>
<defs>
<linearGradient id="paint0_linear_228_2111" x1="105.813" y1="329.999" x2="126.179" y2="310.249" gradientUnits="userSpaceOnUse">
<stop stop-color="#FFFF00" stop-opacity="0"/>
<stop offset="1" stop-color="#F15A24"/>
</linearGradient>
<linearGradient id="paint1_linear_228_2111" x1="229.084" y1="437.171" x2="265.487" y2="389.581" gradientUnits="userSpaceOnUse">
<stop stop-color="#FFFF00" stop-opacity="0"/>
<stop offset="1" stop-color="#F15A24"/>
</linearGradient>
<linearGradient id="paint2_linear_228_2111" x1="437.376" y1="213.584" x2="447.898" y2="202.256" gradientUnits="userSpaceOnUse">
<stop stop-color="white" stop-opacity="0"/>
<stop offset="1" stop-color="#7F2E00"/>
</linearGradient>
</defs>
</svg>
