<svg width="50" height="43" viewBox="0 0 50 43" fill="none" xmlns="http://www.w3.org/2000/svg">
<path d="M35.6667 42.333L34.9667 38.833C34.5001 38.6386 34.0626 38.4344 33.6542 38.2205C33.2459 38.0066 32.8279 37.7441 32.4001 37.433L29.0167 38.483L26.6834 34.5163L29.3667 32.183C29.289 31.7163 29.2501 31.2108 29.2501 30.6663C29.2501 30.1219 29.289 29.6163 29.3667 29.1497L26.6834 26.8163L29.0167 22.8497L32.4001 23.8997C32.8279 23.5886 33.2459 23.3261 33.6542 23.1122C34.0626 22.8983 34.5001 22.6941 34.9667 22.4997L35.6667 18.9997H40.3334L41.0334 22.4997C41.5001 22.6941 41.9376 22.8983 42.3459 23.1122C42.7542 23.3261 43.1723 23.5886 43.6001 23.8997L46.9834 22.8497L49.3167 26.8163L46.6334 29.1497C46.7112 29.6163 46.7501 30.1219 46.7501 30.6663C46.7501 31.2108 46.7112 31.7163 46.6334 32.183L49.3167 34.5163L46.9834 38.483L43.6001 37.433C43.1723 37.7441 42.7542 38.0066 42.3459 38.2205C41.9376 38.4344 41.5001 38.6386 41.0334 38.833L40.3334 42.333H35.6667ZM38.0001 35.333C39.2834 35.333 40.382 34.8761 41.2959 33.9622C42.2098 33.0483 42.6667 31.9497 42.6667 30.6663C42.6667 29.383 42.2098 28.2844 41.2959 27.3705C40.382 26.4566 39.2834 25.9997 38.0001 25.9997C36.7167 25.9997 35.6181 26.4566 34.7042 27.3705C33.7904 28.2844 33.3334 29.383 33.3334 30.6663C33.3334 31.9497 33.7904 33.0483 34.7042 33.9622C35.6181 34.8761 36.7167 35.333 38.0001 35.333ZM5.33341 32.9997V4.99967V15.033V14.333V32.9997ZM5.33341 37.6663C4.05008 37.6663 2.95147 37.2094 2.03758 36.2955C1.12369 35.3816 0.666748 34.283 0.666748 32.9997V4.99967C0.666748 3.71634 1.12369 2.61773 2.03758 1.70384C2.95147 0.789952 4.05008 0.333008 5.33341 0.333008H19.3334L24.0001 4.99967H42.6667C43.9501 4.99967 45.0487 5.45662 45.9626 6.37051C46.8765 7.2844 47.3334 8.38301 47.3334 9.66634V17.308C46.6334 16.8025 45.8945 16.365 45.1167 15.9955C44.339 15.6261 43.5223 15.3052 42.6667 15.033V9.66634H22.0751L17.4084 4.99967H5.33341V32.9997H21.8417C21.9584 33.8163 22.1431 34.6136 22.3959 35.3913C22.6487 36.1691 22.9501 36.9275 23.3001 37.6663H5.33341Z" fill="#292B30"/>
</svg>
