<svg width="638" height="417" viewBox="0 0 638 417" fill="none" xmlns="http://www.w3.org/2000/svg">
<path d="M308.202 399.156L21.5326 251.642C12.4092 247.198 4.57771 239.852 13.4778 235.047L301.168 90.6161C305.49 88.283 312.046 86.7553 316.432 88.9773L617.265 241.102C626.388 245.712 628.031 258.6 618.86 263.225L345.987 398.92C340.256 401.815 333.757 403.36 327.131 403.401C320.505 403.442 313.98 401.979 308.202 399.156Z" fill="#FFBE30"/>
<path d="M166.47 239.908C173.52 236.144 207.047 217.549 213.969 213.632C225.836 206.925 240.988 197.203 240.988 197.203L165.401 166.276L101.984 202.536C113.468 207.772 148.096 243.907 153.838 246.699C156.406 245.379 163.95 241.255 166.47 239.908Z" fill="url(#paint0_linear_192_4041)"/>
<path d="M334.296 328.468C358.221 317.261 431.751 265.891 433.186 262.28L352.495 217.007L235.374 270.904C260.368 282.306 299.732 309.845 334.296 328.468Z" fill="url(#paint1_linear_192_4041)"/>
<path d="M382.8 204.3L352.495 217.007C351.356 217.487 350.388 218.227 349.695 219.148C349.001 220.07 348.608 221.138 348.557 222.238C348.506 223.339 348.8 224.431 349.406 225.398C350.013 226.365 350.909 227.17 352.001 227.728L423.871 264.225C425.425 265.015 427.27 265.252 429.02 264.887C430.77 264.522 432.291 263.584 433.266 262.266L450.731 238.658" fill="#56403D"/>
<path d="M535.107 136.64L287.579 12.4988C286.359 11.8622 284.966 11.5212 283.544 11.511C282.122 11.5008 280.723 11.8218 279.491 12.4408C278.26 13.0599 277.241 13.9543 276.54 15.0316C275.839 16.1088 275.481 17.3297 275.504 18.5676V150.499C275.505 151.449 275.793 152.381 276.339 153.203C276.885 154.024 277.67 154.706 278.615 155.18L542.077 287.597C542.533 287.827 543.05 287.947 543.577 287.947C544.103 287.947 544.621 287.826 545.077 287.597C545.533 287.367 545.911 287.037 546.174 286.64C546.437 286.243 546.575 285.792 546.575 285.334V153.902C546.573 150.401 545.512 146.962 543.499 143.932C541.486 140.902 538.591 138.386 535.107 136.64Z" fill="#8805FA"/>
<path d="M291.885 24.1506L526.35 141.653C528.855 142.907 530.936 144.714 532.383 146.891C533.831 149.068 534.594 151.539 534.596 154.055V248.587C534.597 249.493 534.324 250.383 533.805 251.168C533.286 251.953 532.539 252.606 531.639 253.06C530.739 253.515 529.718 253.755 528.678 253.757C527.637 253.759 526.615 253.524 525.712 253.073L286.606 133.64C285.696 133.191 284.941 132.538 284.42 131.75C283.898 130.961 283.628 130.065 283.639 129.154V28.3169C283.636 27.4754 283.888 26.6482 284.369 25.9185C284.851 25.1887 285.544 24.5822 286.38 24.1598C287.216 23.7375 288.165 23.5143 289.131 23.5127C290.097 23.5111 291.047 23.7311 291.885 24.1506Z" fill="white"/>
<path d="M393.035 202.157C394.419 201.925 395.54 201.731 395.538 201.724C395.537 201.716 394.413 201.898 393.029 202.13C391.645 202.362 390.525 202.556 390.526 202.564C390.528 202.571 391.651 202.389 393.035 202.157Z" fill="#AB643C"/>
<path d="M516.796 146.931C518.205 146.931 519.348 145.849 519.348 144.514C519.348 143.18 518.205 142.098 516.796 142.098C515.386 142.098 514.244 143.18 514.244 144.514C514.244 145.849 515.386 146.931 516.796 146.931Z" fill="#659FE4"/>
<path d="M508.661 143.403C510.071 143.403 511.213 142.321 511.213 140.986C511.213 139.652 510.071 138.57 508.661 138.57C507.252 138.57 506.109 139.652 506.109 140.986C506.109 142.321 507.252 143.403 508.661 143.403Z" fill="#C5E9FF"/>
<path d="M294.628 48.5368L351.123 74.8398C353.835 76.1036 356.259 72.5067 353.532 71.2429L297.053 44.9399C294.341 43.6761 291.917 47.273 294.644 48.5368H294.628Z" fill="#00A99D"/>
<path d="M73.6092 278.404C80.6591 274.636 87.6559 270.793 94.5994 266.877C106.45 260.17 111.49 258.878 122.512 250.865L75.2202 232.811L26.7322 254.309C38.2162 259.545 67.8832 275.626 73.6092 278.404C76.1772 277.098 71.0732 279.765 73.6092 278.404Z" fill="url(#paint2_linear_192_4041)"/>
<path d="M98.7624 175.581C76.9747 175.581 59.3021 180.608 59.3021 186.816H138.223C138.223 180.538 120.566 175.581 98.7624 175.581Z" fill="#0A1D23"/>
<path d="M59.4297 187.677L59.3021 186.802C59.3056 187.097 59.3484 187.39 59.4297 187.677Z" fill="#06489E"/>
<path d="M138.223 186.815L138.063 187.801C138.165 187.48 138.219 187.149 138.223 186.815Z" fill="#06489E"/>
<path d="M98.7624 198.037C119.386 198.037 136.309 193.537 138.063 187.788L138.223 186.802H59.3021L59.4297 187.677C60.9928 193.468 77.9955 198.037 98.7624 198.037Z" fill="#0A1D23"/>
<path d="M113.851 128.821H104.967V208.563H113.851V128.821Z" fill="#25B000"/>
<path d="M109.417 130.46C111.866 130.46 113.851 129.726 113.851 128.821C113.851 127.916 111.866 127.182 109.417 127.182C106.968 127.182 104.983 127.916 104.983 128.821C104.983 129.726 106.968 130.46 109.417 130.46Z" fill="#25B000"/>
<path d="M133.582 144.045L124.878 142.498L106.556 220.628L115.261 222.175L133.582 144.045Z" fill="#FF8F02"/>
<path d="M133.576 144.029C133.784 143.143 132.007 142.078 129.608 141.651C127.209 141.225 125.095 141.598 124.887 142.485C124.679 143.371 126.456 144.436 128.855 144.863C131.254 145.289 133.368 144.916 133.576 144.029Z" fill="#FF8F02"/>
<path d="M88.0439 188.565L79.9413 192.607C79.7764 192.69 79.5803 192.712 79.3964 192.669C79.2124 192.626 79.0556 192.521 78.9604 192.378C78.8652 192.234 78.8395 192.063 78.8888 191.903C78.9382 191.743 79.0586 191.606 79.2236 191.523L87.5176 187.357C87.5959 187.316 87.6825 187.288 87.7728 187.274L86.1778 179.636L77.9954 183.733C77.8305 183.815 77.6344 183.838 77.4505 183.795C77.2665 183.752 77.1097 183.647 77.0145 183.503C76.9193 183.36 76.8936 183.189 76.9429 183.029C76.9923 182.869 77.1127 182.732 77.2777 182.649L85.5717 178.483C85.6643 178.436 85.7678 178.407 85.8747 178.4L84.3754 171.331L76.4004 175.317C76.2355 175.4 76.0394 175.422 75.8555 175.379C75.6715 175.336 75.5147 175.231 75.4195 175.088C75.3243 174.944 75.2986 174.773 75.3479 174.613C75.3973 174.453 75.5177 174.316 75.6827 174.233L83.9767 170.067H84.1362L82.4614 162.193L74.4864 166.165C74.3215 166.248 74.1254 166.27 73.9415 166.227C73.7575 166.184 73.6007 166.079 73.5055 165.936C73.4103 165.792 73.3846 165.621 73.4339 165.461C73.4833 165.301 73.6037 165.164 73.7687 165.082L82.0627 160.915H82.1903L80.5953 153.222L72.4927 157.263C72.3277 157.346 72.1317 157.368 71.9477 157.325C71.7638 157.282 71.6069 157.177 71.5118 157.034C71.4166 156.89 71.3908 156.719 71.4402 156.559C71.4896 156.399 71.61 156.262 71.7749 156.18L80.0689 152.013C80.1473 151.972 80.2338 151.944 80.3241 151.93L78.9046 145.25L70.786 149.291C70.6211 149.374 70.425 149.397 70.2411 149.354C70.0571 149.311 69.9003 149.206 69.8051 149.062C69.7099 148.919 69.6842 148.748 69.7335 148.588C69.7829 148.428 69.9033 148.291 70.0683 148.208L78.3623 144.042C78.4455 143.999 78.5376 143.97 78.6334 143.959L77.2139 137.293L69.1113 141.32C68.9463 141.403 68.7503 141.425 68.5663 141.382C68.3824 141.339 68.2255 141.234 68.1304 141.091C68.0352 140.947 68.0094 140.776 68.0588 140.616C68.1081 140.456 68.2286 140.32 68.3935 140.237L76.6875 136.07C76.7525 136.072 76.8168 136.082 76.8789 136.098L75.2839 128.766L67.3089 132.751C67.144 132.834 66.9479 132.857 66.764 132.814C66.58 132.771 66.4232 132.666 66.328 132.522C66.2328 132.379 66.2071 132.208 66.2564 132.048C66.3058 131.887 66.4262 131.751 66.5912 131.668L74.8852 127.502H75.0447L74.311 124.085L56.766 133.585C56.766 133.585 69.2708 194.204 69.526 194.329C76.8311 197.648 90.1174 198.037 90.1174 198.037L88.0439 188.565Z" fill="#8805FA"/>
<path d="M66.5753 131.696C66.4104 131.778 66.29 131.915 66.2406 132.075C66.1912 132.235 66.217 132.406 66.3122 132.55C66.4073 132.693 66.5642 132.798 66.7481 132.841C66.9321 132.884 67.1281 132.862 67.2931 132.779L75.2681 128.793L74.965 127.501H74.8055L66.5753 131.696Z" fill="#CA4300"/>
<path d="M68.3299 140.264C68.1649 140.347 68.0445 140.484 67.9951 140.644C67.9458 140.804 67.9715 140.975 68.0667 141.118C68.1619 141.262 68.3187 141.367 68.5026 141.41C68.6866 141.453 68.8826 141.431 69.0476 141.348L77.1502 137.32L76.8791 136.098C76.7953 136.109 76.7143 136.133 76.6398 136.168L68.3299 140.264Z" fill="#CA4300"/>
<path d="M70.0045 148.264C69.8396 148.346 69.7192 148.483 69.6698 148.643C69.6204 148.803 69.6462 148.974 69.7414 149.118C69.8365 149.261 69.9934 149.366 70.1773 149.409C70.3613 149.452 70.5573 149.43 70.7223 149.347L78.8408 145.306L78.5697 144.056C78.4739 144.068 78.3817 144.096 78.2985 144.139L70.0045 148.264Z" fill="#CA4300"/>
<path d="M71.775 156.18C71.6101 156.262 71.4897 156.399 71.4403 156.559C71.3909 156.719 71.4167 156.89 71.5119 157.034C71.607 157.177 71.7639 157.282 71.9478 157.325C72.1318 157.368 72.3278 157.346 72.4928 157.263L80.5954 153.222L80.3243 151.972C80.234 151.985 80.1474 152.014 80.0691 152.055L71.775 156.18Z" fill="#CA4300"/>
<path d="M73.7368 165.095C73.5719 165.178 73.4515 165.315 73.4021 165.475C73.3527 165.635 73.3785 165.806 73.4737 165.949C73.5688 166.093 73.7257 166.198 73.9096 166.241C74.0936 166.284 74.2896 166.261 74.4546 166.178L82.4296 162.207L82.1584 160.915H82.0308L73.7368 165.095Z" fill="#CA4300"/>
<path d="M75.6509 174.275C75.4859 174.358 75.3655 174.494 75.3162 174.654C75.2668 174.815 75.2925 174.985 75.3877 175.129C75.4829 175.273 75.6397 175.377 75.8237 175.42C76.0076 175.463 76.2037 175.441 76.3687 175.358L84.3437 171.372L84.0725 170.095H83.913L75.6509 174.275Z" fill="#CA4300"/>
<path d="M85.5717 178.525L77.2777 182.691C77.1128 182.774 76.9923 182.91 76.943 183.071C76.8936 183.231 76.9194 183.401 77.0146 183.545C77.1097 183.689 77.2666 183.794 77.4505 183.837C77.6345 183.88 77.8305 183.857 77.9955 183.774L86.13 179.677L85.8588 178.441C85.7574 178.451 85.6595 178.48 85.5717 178.525Z" fill="#CA4300"/>
<path d="M79.2237 191.509C79.0587 191.592 78.9383 191.729 78.8889 191.889C78.8396 192.049 78.8653 192.22 78.9605 192.363C79.0557 192.507 79.2125 192.612 79.3964 192.655C79.5804 192.698 79.7764 192.675 79.9414 192.592L88.044 188.551L87.7729 187.301C87.6826 187.315 87.596 187.343 87.5177 187.385L79.2237 191.509Z" fill="#CA4300"/>
<path d="M124.873 142.486C124.873 142.486 125.319 144.514 128.844 144.861C132.369 145.208 133.629 144.028 133.629 144.028L132.481 128.751L124.873 142.486Z" fill="#FFD8BD"/>
<path d="M132.385 128.821L128.876 135.167C129.377 135.642 130.052 135.95 130.785 136.039C131.519 136.127 132.265 135.991 132.895 135.653L132.385 128.821Z" fill="#653200"/>
<path d="M104.967 128.349C104.967 128.349 105.78 130.293 109.321 130.154C112.862 130.015 113.835 128.682 113.835 128.682L109.959 113.878L104.967 128.349Z" fill="#FFD8BD"/>
<path d="M109.959 113.878L107.646 120.627C108.23 121.008 108.945 121.203 109.674 121.18C110.402 121.157 111.099 120.918 111.65 120.502L109.959 113.878Z" fill="#653200"/>
<path d="M98.7624 198.036C78.0274 198.036 60.9928 193.467 59.4297 187.676C60.4664 194.62 67.5482 242.282 67.8194 242.56C67.8194 242.56 71.44 256.003 98.7624 255.989C122.002 255.989 128.637 245.823 128.637 245.823L138.063 187.787C136.309 193.537 119.386 198.036 98.7624 198.036Z" fill="#173743"/>
<path d="M171.144 73.8262L156.996 80.395L195.611 112.059L229.664 121.363L240.989 107.976" fill="#FFE8BC"/>
<path d="M224.448 114.628L237.575 108.115L171.144 73.8263L172.707 73.0347L240.989 107.976V197.203L226.091 204.591L220.413 199.425" fill="#8805FA"/>
<path opacity="0.42" d="M224.448 114.628L237.575 108.115L171.144 73.8263L172.707 73.0347L240.989 107.976V197.203L226.091 204.591L220.413 199.425" fill="#1371A5"/>
<path d="M156.996 80.395L226.091 115.461V204.591L155.911 168.067L156.996 80.395Z" fill="#8805FA"/>
<path d="M223.491 109.614L219.265 111.948V130.946L216.585 127.96L214.703 129.807V109.684L218.659 107.212L223.491 109.614Z" fill="#E85858"/>
<path d="M151.812 99.4209L139.196 105.281L173.616 133.501L203.953 141.806L214.065 129.876" fill="#FFE8BC"/>
<path d="M199.311 135.792L211.019 130.001L151.812 99.4209L153.2 98.7266L214.065 129.876V209.396L200.779 215.979L195.722 211.382" fill="#8805FA"/>
<path opacity="0.42" d="M199.311 135.792L211.019 130.001L151.812 99.4209L153.2 98.7266L214.065 129.876V209.396L200.779 215.979L195.722 211.382" fill="#1371A5"/>
<path d="M139.196 105.282L200.779 136.543V215.979L138.223 183.427L139.196 105.282Z" fill="#8805FA"/>
<path d="M198.45 131.334L194.702 133.404V150.333L192.309 147.68L190.634 149.319V131.39L194.143 129.196L198.45 131.334Z" fill="#E85858"/>
<path d="M226.378 319.414C226.378 319.414 225.629 324.497 226.49 324.802C228.048 325.624 229.889 325.943 231.69 325.705C234.259 324.98 236.874 324.382 239.521 323.913C242.711 323.511 250.973 324.358 252.393 322.441C253.812 320.525 252.393 316.539 252.393 316.539" fill="#FFE0DE"/>
<path d="M252.377 316.567C251.739 313.47 246.475 314.762 244.003 313.359C239.457 310.804 239.218 305.179 239.633 300.971L229.52 297.916L227.527 308.026L226.378 319.47C226.889 320.096 227.566 320.605 228.353 320.953C229.139 321.301 230.01 321.479 230.892 321.469L237.639 320.164C241.93 319.817 252.823 318.733 252.377 316.567Z" fill="#56403D"/>
<path d="M240.478 325.455C240.478 325.455 239.729 330.538 240.59 330.843C242.148 331.665 243.988 331.984 245.79 331.746C248.359 331.021 250.974 330.423 253.621 329.954C256.811 329.552 265.073 330.399 266.493 328.482C267.912 326.566 266.493 322.58 266.493 322.58" fill="#FFE0DE"/>
<path d="M266.477 322.552C265.839 319.455 260.575 320.747 258.103 319.344C253.557 316.789 253.318 311.165 253.733 306.957L243.62 303.901L241.627 314.012L240.478 325.455C240.989 326.081 241.666 326.59 242.452 326.939C243.239 327.287 244.11 327.464 244.992 327.455L251.739 326.149C256.029 325.802 266.923 324.733 266.477 322.552Z" fill="#56403D"/>
<path d="M225.868 291.638L223.3 303.512C223.3 303.512 227.224 307.026 240.446 306.609C253.669 306.193 240.446 285.583 240.446 285.583" fill="#E85B5B"/>
<path d="M208.706 325.427C219.1 325.427 227.527 322.704 227.527 319.344C227.527 315.985 219.1 313.262 208.706 313.262C198.311 313.262 189.885 315.985 189.885 319.344C189.885 322.704 198.311 325.427 208.706 325.427Z" fill="#56403D"/>
<path d="M205.532 292.111L206.265 316.622H211.88V292.111" fill="#56403D"/>
<path d="M244.896 256.739C239.261 257.813 233.577 258.642 227.846 259.225C227.719 259.236 227.596 259.268 227.483 259.321C227.371 259.373 227.272 259.444 227.192 259.531C226.533 257.809 225.969 256.054 225.501 254.267C225.246 253.254 223.459 253.684 223.715 254.698C224.77 258.748 226.337 262.684 228.388 266.433C228.898 267.377 230.493 266.558 229.983 265.613C229.138 264.044 228.388 262.461 227.702 260.836H227.83C233.721 260.234 239.569 259.383 245.375 258.281C246.555 258.073 246.061 256.517 244.896 256.739Z" fill="#008074"/>
<path d="M229.68 268.113C228.176 270.293 226.243 272.225 223.97 273.821C223.045 274.474 224.369 275.613 225.278 274.96C227.666 273.271 229.696 271.232 231.275 268.933C231.337 268.842 231.377 268.741 231.394 268.636C231.411 268.531 231.405 268.424 231.374 268.322C231.344 268.219 231.291 268.123 231.217 268.038C231.144 267.954 231.053 267.882 230.948 267.829C230.843 267.775 230.727 267.74 230.607 267.725C230.487 267.71 230.364 267.716 230.246 267.742C230.129 267.769 230.018 267.815 229.921 267.879C229.824 267.942 229.742 268.022 229.68 268.113Z" fill="#008074"/>
<path d="M218.132 262.864C218.132 262.864 232.886 252.559 242.679 251.337C252.473 250.115 257.593 259.378 256.891 265.572C256.189 271.766 232.742 275.154 232.742 275.154" fill="#EDBAB9"/>
<path d="M225.996 266.294C227.91 264.752 252.951 254.573 261.771 259.225C270.592 263.877 270.034 267.307 268.917 272.974C267.801 278.64 259.347 309.081 259.347 309.081C252.944 311.222 245.919 311.51 239.314 309.901L241.786 287.25L208.419 271.39" fill="#FF7E7B"/>
<path d="M207.749 229.853C209.073 230.7 220.509 231.894 222.901 236.491C225.294 241.088 228.93 264.739 228.93 264.739C228.93 264.739 222.072 273.64 210.189 270.474C206.664 269.53 188.385 240.435 187.859 237.422C186.615 229.561 207.749 229.853 207.749 229.853Z" fill="#E55600"/>
<path d="M185.195 280.973C184.618 279.779 184.143 278.548 183.776 277.293C180.969 267.724 179.134 231.797 197.684 233.269C218.037 234.866 211.162 279.237 231.785 277.876C252.409 276.515 260.862 281.181 252.425 288.139C235.566 302.04 195.531 302.36 185.195 280.973Z" fill="#8805FA"/>
<path d="M215.054 217.035C215.181 217.757 216.649 228.047 213.156 230.367C209.663 232.686 201.799 227.214 201.608 224.492C201.417 221.77 198.753 216.16 202.102 214.688C205.452 213.216 214.113 211.952 215.054 217.035Z" fill="#FFE0DE"/>
<path d="M212.135 209.813L211.736 209.591C207.254 207.3 199.869 207.869 196.153 211.16C195.153 212.104 194.285 213.148 193.569 214.271C193.026 215.103 192.424 215.906 191.767 216.674C191.688 220.81 193.495 224.805 196.791 227.784C200 229.554 203.697 230.537 207.494 230.631C208.961 226.812 206.84 222.465 208.929 218.632C209.943 216.915 211.58 215.538 213.586 214.716C213.674 212.992 213.168 211.285 212.135 209.813Z" fill="#E0902F"/>
<path d="M210.747 224.145C210.52 223.578 210.158 223.059 209.686 222.621C209.213 222.183 208.64 221.837 208.004 221.604C206.84 221.187 205.245 221.062 204.543 222.173C202.948 224.631 206.808 226.34 208.849 227.034C209.806 227.353 210.221 226.006 209.28 225.645L208.945 225.534H209.057C209.156 225.54 209.256 225.528 209.35 225.498C209.444 225.468 209.529 225.422 209.601 225.362C209.673 225.302 209.73 225.229 209.768 225.149C209.806 225.068 209.825 224.982 209.822 224.895C210.349 225.062 210.987 224.729 210.747 224.145Z" fill="#FFE0DE"/>
<path d="M241.802 219.868L274.707 237.81L269.252 258.017L238.516 239.741L241.802 219.868Z" fill="#8805FA"/>
<path d="M238.516 239.727C238.516 239.727 221.705 247.018 221.912 247.199C222.12 247.379 251.611 266.641 251.611 266.641L269.252 258.059L238.516 239.727Z" fill="#3129A3"/>
<path d="M245.63 255.156C245.63 255.156 250.096 251.67 250.766 251.393C251.28 251.307 251.809 251.327 252.313 251.45C252.817 251.572 253.281 251.795 253.669 252.101C254.387 252.684 255.391 252.476 256.189 253.226C256.986 253.976 259.012 256.614 258.438 257.309C257.864 258.003 256.253 256.323 255.71 255.92C255.168 255.517 255.71 257.309 254.945 258.378C254.179 259.447 249.538 260.461 248.294 260.253" fill="#FFE0DE"/>
<path d="M223.651 239.727C223.651 239.727 229.122 255.989 232.328 256.045C235.534 256.1 245.598 253.142 245.598 253.142C245.598 253.142 249.937 257.003 249.442 259.447C248.948 261.892 231.116 270.557 223.667 268.974C216.218 267.391 212.614 244.977 212.773 244.546C212.933 244.116 223.651 239.727 223.651 239.727Z" fill="#E55600"/>
<path d="M242.695 245.435C241.827 244.864 240.916 244.344 239.968 243.879C239.138 243.546 238.373 243.171 237.639 242.81C237.313 242.63 236.948 242.51 236.567 242.457C236.186 242.404 235.796 242.421 235.422 242.504C233.816 243.536 232.272 244.639 230.797 245.81C229.903 246.365 228.994 246.907 228.053 247.421C227.889 247.507 227.766 247.643 227.708 247.802C227.649 247.961 227.659 248.134 227.734 248.287C227.81 248.441 227.947 248.566 228.12 248.639C228.292 248.712 228.49 248.728 228.675 248.684C229.138 248.587 229.584 248.462 230.031 248.323C230.012 248.568 230.012 248.814 230.031 249.059C229.853 249.905 230.034 250.779 230.541 251.517C230.594 251.61 230.67 251.691 230.765 251.753L230.174 251.948C229.217 252.253 229.632 253.6 230.605 253.337L236.092 251.587C237.425 251.286 238.641 250.682 239.617 249.837C239.746 249.729 239.83 249.586 239.855 249.432C239.88 249.277 239.845 249.12 239.754 248.985C239.664 248.851 239.524 248.746 239.358 248.689C239.191 248.632 239.007 248.625 238.835 248.67C238.437 248.754 238.054 248.865 237.671 248.976C238.548 247.934 239.888 246.684 240.351 247.032C240.874 247.377 241.508 247.573 242.165 247.593C242.821 247.613 243.469 247.455 244.019 247.143C244.88 246.393 243.349 245.81 242.695 245.435Z" fill="#FFE0DE"/>
<path d="M230.765 245.949C230.765 245.949 225.071 246.601 220.812 246.699C219.073 248.754 217.494 250.865 216.027 253.087C216.346 254.476 216.473 255.864 216.824 257.253C216.867 257.52 216.867 257.791 216.824 258.059C224.401 256.975 232.471 254.253 233.125 252.795C234.146 250.462 230.765 245.949 230.765 245.949Z" fill="#E55600"/>
<path d="M199.742 213.868C199.589 213.296 199.253 212.773 198.773 212.361C198.294 211.948 197.689 211.662 197.03 211.535C193.075 210.619 187.859 212.716 186.679 216.271C186.215 218.175 186.639 220.161 187.856 221.794C189.073 223.426 190.984 224.572 193.17 224.978C194.265 225.063 195.367 224.949 196.408 224.645C197.45 224.341 198.408 223.853 199.222 223.212C200.037 222.57 200.691 221.789 201.142 220.917C201.594 220.046 201.834 219.102 201.847 218.146C201.84 217.347 201.651 216.557 201.289 215.822C200.928 215.088 200.402 214.424 199.742 213.868Z" fill="#CC781D"/>
<path d="M335.732 342.301C335.732 342.884 335.205 349.855 336.098 350.633C336.992 351.411 339.288 355.383 342.239 355.563C345.19 355.744 347.838 355.23 348.38 357.938C348.922 360.646 331.919 361.563 331.919 361.563C331.919 361.563 330.133 355.369 329.367 355.549C328.602 355.73 328.57 362.465 328.57 362.465L325.38 363.049L322.19 361.215L323.466 349.328L325.523 339.231" fill="#3129A3"/>
<path d="M348.476 352.272C348.061 356.438 348.3 362.104 352.846 364.659C355.334 366.048 360.582 364.77 361.22 367.867C361.778 370.575 344.775 371.575 344.775 371.575C344.775 371.575 342.941 365.381 342.175 365.576C341.41 365.77 341.489 372.422 341.489 372.422L338.299 373.033L335.109 371.214L336.306 359.326L338.299 349.216" fill="#3129A3"/>
<path d="M320.595 336.926L318.091 348.814C318.091 348.814 322.015 352.327 335.237 351.911C348.46 351.494 335.237 330.885 335.237 330.885" fill="#EDBAB9"/>
<path d="M303.465 370.742C313.859 370.742 322.286 368.019 322.286 364.659C322.286 361.3 313.859 358.577 303.465 358.577C293.07 358.577 284.644 361.3 284.644 364.659C284.644 368.019 293.07 370.742 303.465 370.742Z" fill="#56403D"/>
<path d="M300.291 337.412L301.024 361.924H306.639V337.412" fill="#56403D"/>
<path d="M339.735 302.041C334.099 303.115 328.416 303.943 322.684 304.526C322.558 304.537 322.434 304.569 322.322 304.622C322.21 304.674 322.111 304.746 322.031 304.832C321.371 303.11 320.808 301.355 320.34 299.569C320.085 298.555 318.298 298.985 318.553 299.999C319.608 304.049 321.176 307.985 323.227 311.734C323.737 312.678 325.332 311.859 324.822 310.915C323.976 309.345 323.227 307.762 322.541 306.137H322.669C328.559 305.536 334.408 304.684 340.214 303.582C341.33 303.374 340.836 301.818 339.735 302.041Z" fill="#008074"/>
<path d="M324.439 313.414C322.935 315.594 321.002 317.526 318.729 319.122C317.804 319.775 319.128 320.913 320.037 320.261C322.425 318.572 324.455 316.532 326.034 314.233C326.096 314.142 326.136 314.041 326.153 313.937C326.17 313.832 326.163 313.725 326.133 313.623C326.103 313.52 326.049 313.424 325.976 313.339C325.903 313.254 325.812 313.183 325.707 313.129C325.602 313.076 325.486 313.04 325.366 313.025C325.246 313.011 325.123 313.017 325.005 313.043C324.887 313.07 324.777 313.116 324.68 313.18C324.583 313.243 324.501 313.323 324.439 313.414Z" fill="#008074"/>
<path d="M312.891 308.165C312.891 308.165 327.645 297.86 337.438 296.638C347.231 295.416 352.351 304.679 351.65 310.873C350.948 317.067 327.501 320.455 327.501 320.455" fill="#EDBAB9"/>
<path d="M320.755 311.595C322.669 310.053 347.71 299.874 356.53 304.526C365.351 309.179 364.792 312.609 363.676 318.275C362.559 323.941 354.106 354.383 354.106 354.383C347.703 356.524 340.678 356.811 334.073 355.202L336.545 332.607L303.05 316.733" fill="#FFE0DE"/>
<path d="M302.508 275.168C303.832 276.015 315.268 277.21 317.66 281.806C320.053 286.403 323.689 310.054 323.689 310.054C323.689 310.054 316.831 318.956 304.948 315.789C301.423 314.845 283.144 285.75 282.618 282.737C281.358 274.863 302.508 275.168 302.508 275.168Z" fill="#006D29"/>
<path d="M279.954 326.274C279.377 325.08 278.902 323.85 278.535 322.594C275.728 313.025 273.893 277.098 292.443 278.57C312.795 280.167 305.921 324.538 326.544 323.177C347.168 321.816 355.621 326.482 347.184 333.44C330.324 347.342 290.29 347.661 279.954 326.274Z" fill="#8805FA"/>
<path d="M309.813 262.336C309.94 263.058 311.408 273.349 307.915 275.668C304.422 277.987 296.558 272.515 296.367 269.793C296.176 267.072 293.512 261.461 296.861 259.989C300.211 258.517 308.872 257.253 309.813 262.336Z" fill="#FFE0DE"/>
<path d="M306.479 254.906C301.997 252.615 294.612 253.184 290.896 256.475C289.896 257.419 289.028 258.463 288.312 259.586C287.768 260.418 287.167 261.221 286.51 261.989C286.431 266.125 288.237 270.12 291.534 273.099C295.287 275.205 299.731 276.181 304.182 275.876C303.8 274.488 303.465 273.099 303.209 271.71C302.795 269.446 302.173 266.683 304.103 264.766C304.427 264.418 304.859 264.157 305.348 264.014C305.836 263.871 306.362 263.853 306.862 263.961L306.99 263.891L310.818 264.1C311.494 262.37 311.427 260.485 310.629 258.794C309.832 257.104 308.357 255.722 306.479 254.906Z" fill="#E0902F"/>
<path d="M288.232 261.086C283.974 254.42 271.07 257.698 270.113 264.752C269.719 268.127 270.757 271.511 273.032 274.265C276.094 277.598 276.222 285.028 270.927 290.444C265.631 295.861 269.954 302.374 276.095 304.679C282.235 306.984 295.538 306.915 295.075 297.555C294.612 288.195 281.645 276.237 281.836 269.78C282.028 263.322 289.493 267.002 289.493 267.002" fill="#E0902F"/>
<path d="M290.29 261.35C290.29 260.613 289.954 259.907 289.356 259.386C288.757 258.865 287.946 258.572 287.1 258.572C286.26 258.59 285.461 258.888 284.867 259.405C284.273 259.922 283.93 260.619 283.91 261.35C283.796 262.462 283.764 263.58 283.814 264.697C283.814 265.433 284.15 266.14 284.749 266.661C285.347 267.182 286.158 267.474 287.004 267.474C287.85 267.474 288.662 267.182 289.26 266.661C289.858 266.14 290.194 265.433 290.194 264.697C290.144 263.58 290.176 262.462 290.29 261.35Z" fill="#3129A3"/>
<path d="M305.506 269.419C305.279 268.852 304.917 268.332 304.444 267.894C303.972 267.457 303.399 267.11 302.763 266.877C301.599 266.461 300.004 266.336 299.302 267.447C297.707 269.905 301.567 271.613 303.608 272.307C304.565 272.627 304.98 271.28 304.039 270.919L303.704 270.808H303.816C303.915 270.813 304.015 270.801 304.109 270.771C304.203 270.742 304.288 270.695 304.36 270.635C304.432 270.575 304.489 270.503 304.527 270.422C304.565 270.342 304.584 270.256 304.581 270.169C305.108 270.363 305.746 270.03 305.506 269.419Z" fill="#FFE0DE"/>
<path d="M336.561 265.169L369.466 283.112L364.011 303.318L333.275 285.042L336.561 265.169Z" fill="#8805FA"/>
<path d="M333.275 285.042C333.275 285.042 316.48 292.333 316.671 292.527C316.863 292.722 346.37 311.901 346.37 311.901L364.011 303.318L333.275 285.042Z" fill="#3129A3"/>
<path d="M340.341 300.457C340.341 300.457 344.807 296.972 345.477 296.694C345.991 296.608 346.52 296.628 347.024 296.751C347.528 296.874 347.992 297.097 348.38 297.402C349.098 297.985 350.102 297.777 350.9 298.527C351.697 299.277 353.723 301.916 353.149 302.61C352.575 303.304 350.964 301.624 350.421 301.221C349.879 300.819 350.421 302.61 349.656 303.679C348.89 304.749 344.249 305.763 343.005 305.554" fill="#FFE0DE"/>
<path d="M318.41 285.042C318.41 285.042 323.881 301.36 327.071 301.36C330.261 301.36 340.341 298.457 340.341 298.457C340.341 298.457 344.68 302.318 344.185 304.762C343.691 307.207 325.859 315.872 318.41 314.289C310.961 312.706 307.357 290.291 307.516 289.861C307.676 289.43 318.41 285.042 318.41 285.042Z" fill="#006D29"/>
<path d="M337.454 290.736C336.586 290.165 335.675 289.645 334.727 289.18C333.897 288.847 333.132 288.472 332.398 288.111C332.072 287.931 331.707 287.811 331.326 287.758C330.944 287.706 330.555 287.722 330.181 287.806C328.568 288.855 327.018 289.977 325.539 291.166C324.646 291.722 323.737 292.263 322.796 292.777C322.632 292.864 322.509 293 322.451 293.159C322.392 293.318 322.402 293.491 322.477 293.644C322.553 293.798 322.69 293.923 322.863 293.996C323.035 294.069 323.233 294.085 323.418 294.041C323.881 293.944 324.327 293.819 324.774 293.68C324.755 293.925 324.755 294.171 324.774 294.416C324.595 295.262 324.777 296.136 325.284 296.874C325.337 296.967 325.413 297.048 325.508 297.11L324.917 297.305C323.96 297.61 324.375 298.957 325.348 298.693L330.835 296.944C332.167 296.643 333.384 296.039 334.36 295.194C334.489 295.086 334.573 294.943 334.598 294.789C334.623 294.634 334.588 294.477 334.497 294.342C334.407 294.207 334.267 294.103 334.101 294.046C333.934 293.989 333.75 293.982 333.578 294.027C333.18 294.111 332.797 294.222 332.414 294.333C333.291 293.291 334.631 292.041 335.093 292.388C335.617 292.734 336.251 292.93 336.908 292.949C337.564 292.969 338.212 292.812 338.762 292.5C339.639 291.639 338.14 291.083 337.454 290.736Z" fill="#FFE0DE"/>
<path d="M325.524 291.25C325.524 291.25 319.829 291.903 315.571 292C313.832 294.055 312.253 296.166 310.786 298.388C311.105 299.777 311.232 301.166 311.583 302.554C311.625 302.822 311.625 303.093 311.583 303.36C319.16 302.277 327.23 299.555 327.884 298.097C328.905 295.805 325.524 291.25 325.524 291.25Z" fill="#006D29"/>
<path d="M399.069 110.795L390.472 109.337L390.344 109.629C389.846 109.374 389.309 109.183 388.749 109.059C387.927 108.858 387.047 108.937 386.289 109.28C385.53 109.623 384.95 110.205 384.666 110.906C384.421 111.47 384.421 112.092 384.666 112.656C384.392 112.902 384.178 113.194 384.035 113.514C383.893 113.833 383.825 114.174 383.837 114.517C383.833 115.25 384.153 115.955 384.73 116.489C384.458 116.91 384.352 117.397 384.427 117.876C384.502 118.354 384.754 118.799 385.145 119.142C386.179 119.89 387.433 120.371 388.765 120.53C391.03 124.391 396.517 129.488 398.192 128.682C400.377 127.627 403.551 122.641 403.551 122.641L399.069 110.795Z" fill="#E89C89"/>
<path d="M396.836 113.447L357.631 63.6465L356.084 64.2298L398.271 123.655" fill="#935A4E"/>
<path d="M406.629 121.641C406.629 121.641 405.13 111.1 402.865 109.906C400.6 108.712 393.183 106.045 391.796 107.448C390.408 108.851 389.132 111.614 390.472 112.711C391.812 113.808 394.396 111.1 394.396 111.1L396.645 112.489C396.645 112.489 393.71 114.697 393.885 119.961C394.084 123.239 395.643 126.343 398.272 128.696L406.629 121.641Z" fill="#FFB7A2"/>
<path d="M437.333 170.984L433.553 121.641C431.958 122.849 426.694 150.805 424.079 169.831C428.513 170.039 432.915 170.498 437.333 170.984Z" fill="#27D9D3"/>
<path d="M523.798 121.072L524.755 119.572C524.427 119.401 524.181 119.133 524.061 118.816C523.941 118.5 523.955 118.157 524.101 117.85C524.914 116.225 525.776 114.628 526.637 113.017C526.584 112.82 526.584 112.616 526.637 112.42C527.764 108.802 528.238 105.054 528.041 101.31C527.674 98.3099 526.637 95.4352 526.302 92.4355C526.175 91.3661 527.594 91.0467 528.503 91.3383C529.288 91.6674 529.906 92.2357 530.242 92.9354C531.308 94.2862 531.991 95.8377 532.236 97.4628C532.314 96.7648 532.513 96.0812 532.826 95.4352C533.06 94.6204 533.288 93.8057 533.512 92.991C533.84 91.6976 534.332 90.44 534.979 89.2413C535.633 88.1164 537.1 87.6026 537.834 88.3386C538.951 89.4496 537.834 91.4633 537.659 92.7549C537.483 94.0464 537.212 95.1852 536.829 96.4906C537.403 95.2824 538.584 93.1715 539.349 91.7133C539.939 90.5884 541.614 86.9221 543.464 87.422C545.315 87.922 544.437 90.4218 543.927 91.5883L542.475 94.9908C542.045 96.0046 541.566 97.3239 541.072 98.2543C541.072 98.2543 543.018 95.7824 543.991 94.463C544.772 93.4215 545.586 91.9077 547.356 92.366C548.489 92.6715 548.409 94.1297 547.883 95.0047C546.479 97.3239 544.916 99.5459 543.289 101.726C544.342 100.879 545.346 100.004 546.479 99.1848C546.716 99.0454 546.991 98.9638 547.276 98.9488C547.562 98.9337 547.846 98.9857 548.101 99.0993C548.355 99.2128 548.569 99.3838 548.722 99.5943C548.874 99.8048 548.959 100.047 548.967 100.296C548.981 100.538 548.903 100.777 548.744 100.976L535.282 117.822C533.965 120.501 532.113 122.955 529.811 125.071C528.519 126.252 526.446 124.46 527.754 123.28L527.929 123.099C527.88 123.038 527.837 122.973 527.801 122.905C527.584 122.861 527.379 122.778 527.2 122.661C527.021 122.543 526.873 122.395 526.765 122.224H526.669C526.528 122.307 526.372 122.368 526.206 122.405C525.975 122.621 525.665 122.759 525.329 122.797C524.993 122.834 524.652 122.768 524.366 122.61C524.08 122.451 523.866 122.211 523.763 121.93C523.659 121.649 523.672 121.345 523.798 121.072Z" fill="#FFB7A2"/>
<path d="M534.165 98.4904C535.304 99.2783 536.202 100.299 536.778 101.462C537.354 102.625 537.591 103.894 537.467 105.156C537.467 105.726 536.383 105.74 536.43 105.156C536.552 104.011 536.341 102.858 535.817 101.802C535.293 100.747 534.473 99.8228 533.432 99.1153C532.905 98.7682 533.639 98.1432 534.165 98.4904Z" fill="#42342D"/>
<path d="M535.585 97.1159C536.329 94.755 536.952 92.3663 537.451 89.9499C537.563 89.3805 538.568 89.6166 538.44 90.186C537.94 92.5932 537.318 94.9818 536.574 97.352C536.538 97.4661 536.452 97.5632 536.333 97.6218C536.215 97.6804 536.075 97.6957 535.944 97.6644C535.813 97.6331 535.701 97.5578 535.634 97.4549C535.567 97.352 535.549 97.2301 535.585 97.1159Z" fill="#42342D"/>
<path d="M539.939 99.1015C541.333 96.4721 542.469 93.7451 543.337 90.9495C543.373 90.8353 543.459 90.7382 543.577 90.6796C543.696 90.621 543.836 90.6057 543.967 90.637C544.098 90.6683 544.209 90.7437 544.277 90.8466C544.344 90.9494 544.362 91.0714 544.326 91.1855C543.431 94.0433 542.263 96.8306 540.832 99.5181C540.545 100.087 539.668 99.6292 539.939 99.1015Z" fill="#42342D"/>
<path d="M541.55 102.629C543.749 100.422 545.609 97.9756 547.085 95.352C547.372 94.8381 548.265 95.3519 547.978 95.8102C546.463 98.4989 544.554 101.006 542.3 103.268C541.838 103.712 541.104 103.073 541.55 102.629Z" fill="#42342D"/>
<path d="M494.96 209.577C491.185 198.582 486.207 187.928 480.095 177.761L439.391 177.427C438.497 182.26 436.902 186.982 435.914 191.884C434.849 197.093 434.453 202.389 434.733 207.674C446.233 213.313 461.338 220.965 472.264 226.436L502.569 241.574C500.001 231.075 498.326 219.951 494.96 209.577Z" fill="#159E97"/>
<path d="M482.2 146.027C481.605 138.25 480.77 130.483 479.696 122.724C474.608 117.239 467.622 113.003 459.95 112.114C452.278 111.225 441.097 112.975 435.866 118.35C430.921 123.474 431.751 130.848 432.054 137.001C432.229 140.75 432.452 144.5 432.692 148.249C434.941 158.318 438.194 168.192 438.88 178.469C450.189 183.079 467.255 180.719 480.031 177.719C480.781 167.15 481.69 156.596 482.2 146.027Z" fill="#27D9D3"/>
<path d="M460.955 113.142C467.062 113.409 472.992 115.014 478.197 117.808C482.152 120.058 484.417 123.696 488.692 125.557C494.434 128.071 502.856 128.043 507.577 123.807C510.125 121.38 512.521 118.835 514.754 116.183C516.525 114.211 523.798 103.934 527.626 105.198C532.108 106.67 538.568 112.142 538.791 115.267C539.014 118.391 520.098 150.93 503.334 153.221C492.879 154.436 482.268 152.389 473.38 147.444" fill="#27D9D3"/>
<path d="M465.07 107.434V116.753C460.862 117.889 456.358 117.889 452.151 116.753V108.323" fill="#FCAA97"/>
<path d="M432.771 149.986C432.771 149.986 409.468 120.975 406.629 121.669C403.79 122.363 394.794 126.238 395.464 129.377C396.134 132.515 414.509 178.65 439.566 175.969" fill="#27D9D3"/>
<path d="M465.309 111.378C464.47 113.147 463.264 114.766 461.753 116.156C460.158 117.725 457.861 117.211 455.373 117.336L457.063 128.71L468.372 114.823L465.309 111.378Z" fill="#159E97"/>
<path d="M455.309 117.336L449.79 127.89L448.929 118.044L452.613 111.656C452.613 111.656 451.385 117.044 455.309 117.336Z" fill="#159E97"/>
<path d="M442.708 86.103C441.959 86.2697 437.221 114.017 450.444 114.239C463.666 114.461 466.218 105.407 466.617 103.129C467.016 100.852 462.805 93.769 461.513 91.1303C460.221 88.4917 445.946 85.3392 442.708 86.103Z" fill="#FFB7A2"/>
<path d="M441.065 83.2281C445.053 76.9648 460.493 75.5344 471.227 84.1169C474 86.6584 475.552 90.0271 475.565 93.5327C475.288 97.0032 473.961 100.348 471.72 103.228C469.479 106.109 466.404 108.422 462.805 109.934C462.805 109.934 462.805 109.934 462.805 109.823C462.805 109.712 462.805 109.476 462.917 109.309C463.029 109.142 462.917 109.059 462.997 108.934C464.129 104.087 463.874 97.9767 461.242 93.6577C458.61 89.3387 453.267 88.1027 448.083 87.3389C446.404 86.9553 444.665 86.8053 442.932 86.8945L441.225 94.0188C439.961 92.4407 439.27 90.5686 439.241 88.6448C439.213 86.721 439.848 84.834 441.065 83.2281Z" fill="#050505"/>
<path d="M490.795 87.2695C491.185 82.3879 486.956 78.1552 481.349 77.8156C475.743 77.476 470.882 81.1579 470.491 86.0395C470.101 90.9211 474.33 95.1538 479.937 95.4934C485.543 95.833 490.404 92.1511 490.795 87.2695Z" fill="#050505"/>
<path d="M441.161 91.769H453.698L454.862 88.4915L455.947 92.5606L459.519 92.755C459.519 92.755 459.695 109.517 462.438 109.892C465.182 110.267 469.026 103.06 469.44 98.7822C469.855 94.5048 467.191 85.4918 458.148 83.0476C446.759 80.0479 441.687 84.0058 441.161 91.769Z" fill="#050505"/>
<path d="M433.84 133.237C433.936 132.293 432.245 132.307 432.165 133.237C430.443 149.5 438.625 164.831 439.215 180.955C439.215 181.899 440.938 181.899 440.89 180.955C440.22 164.831 432.07 149.486 433.84 133.237Z" fill="#159E97"/>
<path d="M485.486 150.791C481.774 150.184 478.331 148.683 475.549 146.458C474.752 145.819 473.556 146.861 474.353 147.5C477.342 149.905 481.043 151.535 485.04 152.208C486.092 152.388 486.475 150.972 485.486 150.791Z" fill="#159E97"/>
<path d="M294.628 65.7853L351.123 92.0883C353.835 93.3521 356.259 89.7552 353.532 88.4915L297.053 62.1884C294.341 60.9247 291.917 64.5215 294.644 65.7853H294.628Z" fill="#00A99D"/>
<path d="M294.628 82.4367L351.123 108.74C353.835 110.003 356.259 106.407 353.532 105.143L297.053 78.8398C294.341 77.576 291.917 81.1729 294.644 82.4367H294.628Z" fill="#00A99D"/>
<path d="M313.134 131.878C319.113 130.13 321.401 122.076 318.244 113.889C315.087 105.702 307.68 100.482 301.701 102.23C295.722 103.978 293.434 112.032 296.591 120.219C299.748 128.406 307.155 133.626 313.134 131.878Z" fill="#8805FA"/>
<path d="M344.846 147.339C350.825 145.591 353.112 137.537 349.955 129.35C346.798 121.162 339.392 115.943 333.413 117.69C327.433 119.438 325.146 127.492 328.303 135.68C331.46 143.867 338.866 149.087 344.846 147.339Z" fill="#8805FA"/>
<defs>
<linearGradient id="paint0_linear_192_4041" x1="147.33" y1="221.896" x2="184.974" y2="176.62" gradientUnits="userSpaceOnUse">
<stop stop-color="#DD6F31"/>
<stop offset="1" stop-color="#532A12"/>
</linearGradient>
<linearGradient id="paint1_linear_192_4041" x1="320.786" y1="301.957" x2="351.418" y2="196.4" gradientUnits="userSpaceOnUse">
<stop stop-color="#DD6F31"/>
<stop offset="1" stop-color="#532A12"/>
</linearGradient>
<linearGradient id="paint2_linear_192_4041" x1="58.4727" y1="267.308" x2="84.0476" y2="236.553" gradientUnits="userSpaceOnUse">
<stop stop-color="#DD6F31"/>
<stop offset="1" stop-color="#532A12"/>
</linearGradient>
</defs>
</svg>
