<svg width="56" height="54" viewBox="0 0 56 54" fill="none" xmlns="http://www.w3.org/2000/svg">
<path d="M14 53.6667C12.0556 53.6667 10.4028 52.9861 9.04167 51.625C7.68056 50.2639 7 48.6111 7 46.6667C7 44.7222 7.68056 43.0694 9.04167 41.7083C10.4028 40.3472 12.0556 39.6667 14 39.6667C14.5444 39.6667 15.05 39.725 15.5167 39.8417C15.9833 39.9583 16.4306 40.1139 16.8583 40.3083L20.1833 36.1667C19.0944 34.9611 18.3361 33.6 17.9083 32.0833C17.4806 30.5667 17.3833 29.05 17.6167 27.5333L12.8917 25.9583C12.2306 26.9306 11.3944 27.7083 10.3833 28.2917C9.37222 28.875 8.24444 29.1667 7 29.1667C5.05556 29.1667 3.40278 28.4861 2.04167 27.125C0.680555 25.7639 0 24.1111 0 22.1667C0 20.2222 0.680555 18.5694 2.04167 17.2083C3.40278 15.8472 5.05556 15.1667 7 15.1667C8.94444 15.1667 10.5972 15.8472 11.9583 17.2083C13.3194 18.5694 14 20.2222 14 22.1667V22.6333L18.725 24.2667C19.5028 22.8667 20.5431 21.6806 21.8458 20.7083C23.1486 19.7361 24.6167 19.1139 26.25 18.8417V13.7667C24.7333 13.3389 23.4792 12.5125 22.4875 11.2875C21.4958 10.0625 21 8.63333 21 7C21 5.05556 21.6806 3.40278 23.0417 2.04167C24.4028 0.680556 26.0556 0 28 0C29.9444 0 31.5972 0.680556 32.9583 2.04167C34.3194 3.40278 35 5.05556 35 7C35 8.63333 34.4944 10.0625 33.4833 11.2875C32.4722 12.5125 31.2278 13.3389 29.75 13.7667V18.8417C31.3833 19.1139 32.8514 19.7361 34.1542 20.7083C35.4569 21.6806 36.4972 22.8667 37.275 24.2667L42 22.6333V22.1667C42 20.2222 42.6806 18.5694 44.0417 17.2083C45.4028 15.8472 47.0556 15.1667 49 15.1667C50.9444 15.1667 52.5972 15.8472 53.9583 17.2083C55.3194 18.5694 56 20.2222 56 22.1667C56 24.1111 55.3194 25.7639 53.9583 27.125C52.5972 28.4861 50.9444 29.1667 49 29.1667C47.7556 29.1667 46.6181 28.875 45.5875 28.2917C44.5569 27.7083 43.7306 26.9306 43.1083 25.9583L38.3833 27.5333C38.6167 29.05 38.5194 30.5569 38.0917 32.0542C37.6639 33.5514 36.9056 34.9222 35.8167 36.1667L39.1417 40.25C39.5694 40.0556 40.0167 39.9097 40.4833 39.8125C40.95 39.7153 41.4556 39.6667 42 39.6667C43.9444 39.6667 45.5972 40.3472 46.9583 41.7083C48.3194 43.0694 49 44.7222 49 46.6667C49 48.6111 48.3194 50.2639 46.9583 51.625C45.5972 52.9861 43.9444 53.6667 42 53.6667C40.0556 53.6667 38.4028 52.9861 37.0417 51.625C35.6806 50.2639 35 48.6111 35 46.6667C35 45.8889 35.1264 45.1403 35.3792 44.4208C35.6319 43.7014 35.9722 43.05 36.4 42.4667L33.075 38.325C31.4806 39.2194 29.7792 39.6667 27.9708 39.6667C26.1625 39.6667 24.4611 39.2194 22.8667 38.325L19.6 42.4667C20.0278 43.05 20.3681 43.7014 20.6208 44.4208C20.8736 45.1403 21 45.8889 21 46.6667C21 48.6111 20.3194 50.2639 18.9583 51.625C17.5972 52.9861 15.9444 53.6667 14 53.6667ZM7 24.5C7.66111 24.5 8.21528 24.2764 8.6625 23.8292C9.10972 23.3819 9.33333 22.8278 9.33333 22.1667C9.33333 21.5056 9.10972 20.9514 8.6625 20.5042C8.21528 20.0569 7.66111 19.8333 7 19.8333C6.33889 19.8333 5.78472 20.0569 5.3375 20.5042C4.89028 20.9514 4.66667 21.5056 4.66667 22.1667C4.66667 22.8278 4.89028 23.3819 5.3375 23.8292C5.78472 24.2764 6.33889 24.5 7 24.5ZM14 49C14.6611 49 15.2153 48.7764 15.6625 48.3292C16.1097 47.8819 16.3333 47.3278 16.3333 46.6667C16.3333 46.0056 16.1097 45.4514 15.6625 45.0042C15.2153 44.5569 14.6611 44.3333 14 44.3333C13.3389 44.3333 12.7847 44.5569 12.3375 45.0042C11.8903 45.4514 11.6667 46.0056 11.6667 46.6667C11.6667 47.3278 11.8903 47.8819 12.3375 48.3292C12.7847 48.7764 13.3389 49 14 49ZM28 9.33333C28.6611 9.33333 29.2153 9.10972 29.6625 8.6625C30.1097 8.21528 30.3333 7.66111 30.3333 7C30.3333 6.33889 30.1097 5.78472 29.6625 5.3375C29.2153 4.89028 28.6611 4.66667 28 4.66667C27.3389 4.66667 26.7847 4.89028 26.3375 5.3375C25.8903 5.78472 25.6667 6.33889 25.6667 7C25.6667 7.66111 25.8903 8.21528 26.3375 8.6625C26.7847 9.10972 27.3389 9.33333 28 9.33333ZM28 35C29.6333 35 31.0139 34.4361 32.1417 33.3083C33.2694 32.1806 33.8333 30.8 33.8333 29.1667C33.8333 27.5333 33.2694 26.1528 32.1417 25.025C31.0139 23.8972 29.6333 23.3333 28 23.3333C26.3667 23.3333 24.9861 23.8972 23.8583 25.025C22.7306 26.1528 22.1667 27.5333 22.1667 29.1667C22.1667 30.8 22.7306 32.1806 23.8583 33.3083C24.9861 34.4361 26.3667 35 28 35ZM42 49C42.6611 49 43.2153 48.7764 43.6625 48.3292C44.1097 47.8819 44.3333 47.3278 44.3333 46.6667C44.3333 46.0056 44.1097 45.4514 43.6625 45.0042C43.2153 44.5569 42.6611 44.3333 42 44.3333C41.3389 44.3333 40.7847 44.5569 40.3375 45.0042C39.8903 45.4514 39.6667 46.0056 39.6667 46.6667C39.6667 47.3278 39.8903 47.8819 40.3375 48.3292C40.7847 48.7764 41.3389 49 42 49ZM49 24.5C49.6611 24.5 50.2153 24.2764 50.6625 23.8292C51.1097 23.3819 51.3333 22.8278 51.3333 22.1667C51.3333 21.5056 51.1097 20.9514 50.6625 20.5042C50.2153 20.0569 49.6611 19.8333 49 19.8333C48.3389 19.8333 47.7847 20.0569 47.3375 20.5042C46.8903 20.9514 46.6667 21.5056 46.6667 22.1667C46.6667 22.8278 46.8903 23.3819 47.3375 23.8292C47.7847 24.2764 48.3389 24.5 49 24.5Z" fill="#292B30"/>
</svg>
