<svg width="428" height="240" viewBox="0 0 428 240" fill="none" xmlns="http://www.w3.org/2000/svg">
<path d="M314.04 20H109.57V160.21H314.04V20Z" fill="#DDDBDB"/>
<path d="M303.42 29.5605H119.13V149.651H303.42V29.5605Z" fill="white"/>
<path d="M109.57 160.21L70 210.66H348.56L314.04 160.21H109.57Z" fill="#DDDBDB"/>
<path d="M348.56 210.66H70V219.33H348.56V210.66Z" fill="#C9C9C9"/>
<path opacity="0.56" d="M116.48 167.29L103.73 185.43H316.52L305.54 167.29H116.48Z" fill="white"/>
<path opacity="0.28" d="M173.13 190.3H242.87L249.25 205.17H167.46L173.13 190.3Z" fill="white"/>
<path opacity="0.32" d="M257.26 116.66H168.74V129.41H257.26V116.66Z" fill="#8805FA"/>
<path d="M257.26 116.66H229.16V129.41H257.26V116.66Z" fill="#8805FA"/>
<path d="M234.91 67.4598L214.36 55.5898L193.81 67.4598V91.1898L214.36 103.05L234.91 91.1898V67.4598Z" fill="#8805FA"/>
<path opacity="0.46" d="M193.81 67.4598L214.36 55.5898L234.91 67.4598L214.36 79.3198L193.81 67.4598Z" fill="white"/>
<path opacity="0.08" d="M214.36 79.32V103.05L234.91 91.19V67.46L214.36 79.32Z" fill="black"/>
<path d="M129.43 43.0101C131.264 43.0101 132.75 41.5237 132.75 39.6901C132.75 37.8565 131.264 36.3701 129.43 36.3701C127.597 36.3701 126.11 37.8565 126.11 39.6901C126.11 41.5237 127.597 43.0101 129.43 43.0101Z" fill="#24285B"/>
<path d="M140.52 43.0101C142.354 43.0101 143.84 41.5237 143.84 39.6901C143.84 37.8565 142.354 36.3701 140.52 36.3701C138.687 36.3701 137.2 37.8565 137.2 39.6901C137.2 41.5237 138.687 43.0101 140.52 43.0101Z" fill="#8805FA"/>
<path d="M151.94 43.0101C153.774 43.0101 155.26 41.5237 155.26 39.6901C155.26 37.8565 153.774 36.3701 151.94 36.3701C150.107 36.3701 148.62 37.8565 148.62 39.6901C148.62 41.5237 150.107 43.0101 151.94 43.0101Z" fill="#FFD200"/>
</svg>
