<svg width="39" height="65" viewBox="0 0 39 65" fill="none" xmlns="http://www.w3.org/2000/svg">
<path d="M18.5632 36.3429C28.6176 36.1029 33.3536 57.0277 29.2128 58.1317C25.072 59.2357 25.072 42.4133 16.1984 42.4133C7.32479 42.4133 6.73279 49.0309 6.73279 49.0309C6.73279 49.0309 7.02719 36.6213 18.5632 36.3461V36.3429Z" fill="url(#paint0_linear_207_30498)"/>
<path d="M11.2224 52.3623C11.2224 52.4327 11.2224 52.5031 11.2224 52.5735C11.2064 52.6759 11.2 52.7303 11.2 52.7303C11.2 52.7303 11.2 52.5991 11.2224 52.3623Z" fill="#8802CC"/>
<path d="M17.5968 42.5576C13.12 44.34 12.1408 51.6136 7.97121 50.4008C7.14881 50.1608 6.77761 49.604 6.75201 48.8744C6.90561 47.8856 8.12161 42.4072 16.1952 42.4072C16.688 42.4072 17.152 42.4584 17.5936 42.5576H17.5968Z" fill="url(#paint1_linear_207_30498)"/>
<path d="M22.2656 35.8728C28.6976 37.86 32.6848 33.8216 31.4368 31.5016C30.1888 29.1816 24.2304 34.0168 18.9824 30.5736C14.7392 27.7928 13.7824 25.54 13.7824 25.54C13.7824 25.54 14.2688 33.4024 22.2688 35.8728H22.2656Z" fill="url(#paint2_linear_207_30498)"/>
<path d="M31.3696 31.3896C29.9904 29.3384 24.1472 35.236 18.9824 31.8536C15.0048 29.2456 13.9136 25.8216 13.792 25.5656C13.7824 25.5464 13.7824 25.54 13.7824 25.54C13.7824 25.54 13.0976 17.46 15.5616 17.46C18.0256 17.46 15.0144 25.6744 21.3088 28.852C27.504 31.9816 29.9904 29.2104 31.3696 31.3896Z" fill="url(#paint3_linear_207_30498)"/>
<path d="M27.4019 25.7195C28.5647 23.7053 28.2109 21.3239 26.6115 20.4004C25.0121 19.477 22.7728 20.3613 21.6099 22.3755C20.447 24.3896 20.8009 26.771 22.4003 27.6945C23.9997 28.6179 26.239 27.7336 27.4019 25.7195Z" fill="url(#paint4_linear_207_30498)"/>
<path d="M13.8784 8.37826L14.4224 7.01186C14.5312 6.73986 14.9184 6.75586 15.008 7.03426L15.4496 8.43586C15.504 8.61186 15.6992 8.70146 15.8688 8.62786L17.2192 8.04546C17.488 7.93026 17.7536 8.21506 17.616 8.47426L16.9376 9.77666C16.8512 9.93986 16.928 10.1415 17.0976 10.2087L18.464 10.7527C18.736 10.8615 18.72 11.2487 18.4416 11.3383L17.04 11.7799C16.864 11.8343 16.7744 12.0295 16.848 12.1991L17.4304 13.5495C17.5456 13.8183 17.2608 14.0839 17.0016 13.9463L15.6992 13.2679C15.536 13.1815 15.3344 13.2583 15.2672 13.4279L14.7232 14.7943C14.6144 15.0663 14.2272 15.0503 14.1376 14.7719L13.696 13.3703C13.6416 13.1943 13.4464 13.1047 13.2768 13.1783L11.9264 13.7607C11.6576 13.8759 11.392 13.5911 11.5296 13.3319L12.208 12.0295C12.2944 11.8663 12.2176 11.6647 12.048 11.5975L10.6816 11.0535C10.4096 10.9447 10.4256 10.5575 10.704 10.4679L12.1056 10.0263C12.2816 9.97186 12.3712 9.77666 12.2976 9.60706L11.7152 8.25666C11.6 7.98786 11.8848 7.72226 12.144 7.85986L13.4464 8.53826C13.6096 8.62466 13.8112 8.54786 13.8784 8.37826Z" fill="#FDDC2F"/>
<defs>
<linearGradient id="paint0_linear_207_30498" x1="32.6112" y1="46.8549" x2="8.64319" y2="47.9461" gradientUnits="userSpaceOnUse">
<stop offset="0.04" stop-color="#DADCDF"/>
<stop offset="0.35" stop-color="#E1E2E5"/>
<stop offset="0.82" stop-color="#F5F5F6"/>
<stop offset="1" stop-color="white"/>
</linearGradient>
<linearGradient id="paint1_linear_207_30498" x1="16.2368" y1="43.4152" x2="6.48002" y2="49.2584" gradientUnits="userSpaceOnUse">
<stop offset="0.04" stop-color="#DADCDF"/>
<stop offset="0.35" stop-color="#E1E2E5"/>
<stop offset="0.82" stop-color="#F5F5F6"/>
<stop offset="1" stop-color="white"/>
</linearGradient>
<linearGradient id="paint2_linear_207_30498" x1="18.576" y1="29.044" x2="30.7776" y2="36.004" gradientUnits="userSpaceOnUse">
<stop offset="0.04" stop-color="#DADCDF"/>
<stop offset="0.35" stop-color="#E1E2E5"/>
<stop offset="0.82" stop-color="#F5F5F6"/>
<stop offset="1" stop-color="white"/>
</linearGradient>
<linearGradient id="paint3_linear_207_30498" x1="27.168" y1="30.5064" x2="11.536" y2="20.116" gradientUnits="userSpaceOnUse">
<stop stop-color="#DADCDF"/>
<stop offset="0.47" stop-color="#E9EAEB"/>
<stop offset="1" stop-color="white"/>
</linearGradient>
<linearGradient id="paint4_linear_207_30498" x1="27.019" y1="25.7412" x2="21.3032" y2="22.316" gradientUnits="userSpaceOnUse">
<stop stop-color="#DADCDF"/>
<stop offset="1" stop-color="white"/>
</linearGradient>
</defs>
</svg>
