<svg width="39" height="64" viewBox="0 0 39 64" fill="none" xmlns="http://www.w3.org/2000/svg">
<rect width="38.222" height="64" fill="white"/>
<path d="M18.4628 35.9249C28.4706 35.6849 33.1847 56.6097 29.0631 57.7137C24.9415 58.8177 24.9415 41.9953 16.109 41.9953C7.27651 41.9953 6.68726 48.6129 6.68726 48.6129C6.68726 48.6129 6.98029 36.2033 18.4628 35.9281V35.9249Z" fill="url(#paint0_linear_213_4096)"/>
<path d="M11.1564 51.9434C11.1564 52.0138 11.1564 52.0842 11.1564 52.1546C11.1405 52.257 11.1341 52.3114 11.1341 52.3114C11.1341 52.3114 11.1341 52.1802 11.1564 51.9434Z" fill="#8802CC"/>
<path d="M17.5015 42.1397C13.0454 43.9221 12.0707 51.1957 7.92046 49.9829C7.10187 49.7429 6.73239 49.1861 6.70691 48.4565C6.8598 47.4677 8.07016 41.9893 16.1063 41.9893C16.5969 41.9893 17.0587 42.0405 17.4983 42.1397H17.5015Z" fill="url(#paint1_linear_213_4096)"/>
<path d="M22.1508 35.4558C28.553 37.443 32.5217 33.4046 31.2795 31.0846C30.0373 28.7646 24.1065 33.5998 18.8828 30.1566C14.6593 27.3758 13.7069 25.123 13.7069 25.123C13.7069 25.123 14.1911 32.9854 22.154 35.4558H22.1508Z" fill="url(#paint2_linear_213_4096)"/>
<path d="M31.2121 30.9706C29.8393 28.9194 24.1091 34.8776 18.8823 31.4346C14.9232 28.8266 13.837 25.4026 13.716 25.1466C13.7064 25.1274 13.7064 25.121 13.7064 25.121C13.7064 25.121 13.0248 17.041 15.4774 17.041C17.93 17.041 14.9327 25.2554 21.198 28.433C27.3645 31.5626 29.8393 28.7914 31.2121 30.9706Z" fill="url(#paint3_linear_213_4096)"/>
<path d="M27.265 25.303C28.4225 23.2888 28.0702 20.9074 26.4782 19.9839C24.8862 19.0605 22.6573 19.9448 21.4998 21.959C20.3423 23.9731 20.6946 26.3545 22.2866 27.278C23.8786 28.2014 26.1075 27.3171 27.265 25.303Z" fill="url(#paint4_linear_213_4096)"/>
<path d="M13.803 7.96127L14.3445 6.59487C14.4528 6.32287 14.8382 6.33886 14.9274 6.61727L15.367 8.01887C15.4211 8.19487 15.6154 8.28447 15.7842 8.21087L17.1284 7.62847C17.3959 7.51327 17.6603 7.79807 17.5233 8.05727L16.8481 9.35967C16.7621 9.52287 16.8385 9.72447 17.0073 9.79167L18.3674 10.3357C18.6381 10.4445 18.6222 10.8317 18.3451 10.9213L16.95 11.3629C16.7748 11.4173 16.6856 11.6125 16.7589 11.7821L17.3386 13.1325C17.4532 13.4013 17.1698 13.6669 16.9118 13.5293L15.6154 12.8509C15.453 12.7645 15.2523 12.8413 15.1854 13.0109L14.6439 14.3773C14.5356 14.6493 14.1502 14.6333 14.061 14.3549L13.6215 12.9533C13.5673 12.7773 13.373 12.6877 13.2042 12.7613L11.8601 13.3437C11.5925 13.4589 11.3282 13.1741 11.4651 12.9149L12.1404 11.6125C12.2264 11.4493 12.1499 11.2477 11.9811 11.1805L10.6211 10.6365C10.3503 10.5277 10.3662 10.1405 10.6434 10.0509L12.0385 9.60927C12.2136 9.55487 12.3028 9.35967 12.2296 9.19007L11.6499 7.83967C11.5352 7.57087 11.8187 7.30527 12.0767 7.44287L13.373 8.12127C13.5355 8.20767 13.7362 8.13087 13.803 7.96127Z" fill="#FDDC2F"/>
<defs>
<linearGradient id="paint0_linear_213_4096" x1="32.4489" y1="46.4369" x2="8.59153" y2="47.518" gradientUnits="userSpaceOnUse">
<stop offset="0.04" stop-color="#5C03AA"/>
<stop offset="0.22" stop-color="#6106B1"/>
<stop offset="0.5" stop-color="#7110C5"/>
<stop offset="0.82" stop-color="#8A20E6"/>
<stop offset="1" stop-color="#9A2AFB"/>
</linearGradient>
<linearGradient id="paint1_linear_213_4096" x1="16.1478" y1="42.9973" x2="6.41241" y2="48.8006" gradientUnits="userSpaceOnUse">
<stop offset="0.04" stop-color="#5C03AA"/>
<stop offset="0.22" stop-color="#6106B1"/>
<stop offset="0.5" stop-color="#7110C5"/>
<stop offset="0.82" stop-color="#8A20E6"/>
<stop offset="1" stop-color="#9A2AFB"/>
</linearGradient>
<linearGradient id="paint2_linear_213_4096" x1="18.4783" y1="28.627" x2="30.651" y2="35.5384" gradientUnits="userSpaceOnUse">
<stop offset="0.04" stop-color="#5C03AA"/>
<stop offset="0.22" stop-color="#6106B1"/>
<stop offset="0.5" stop-color="#7110C5"/>
<stop offset="0.82" stop-color="#8A20E6"/>
<stop offset="1" stop-color="#9A2AFB"/>
</linearGradient>
<linearGradient id="paint3_linear_213_4096" x1="27.03" y1="30.0874" x2="11.4262" y2="19.7638" gradientUnits="userSpaceOnUse">
<stop stop-color="#5C03AA"/>
<stop offset="0.25" stop-color="#670AB9"/>
<stop offset="0.72" stop-color="#851DE0"/>
<stop offset="1" stop-color="#9A2AFB"/>
</linearGradient>
<linearGradient id="paint4_linear_213_4096" x1="26.7471" y1="25.2684" x2="21.0457" y2="21.8699" gradientUnits="userSpaceOnUse">
<stop stop-color="#5C03AA"/>
<stop offset="1" stop-color="#9A2AFB"/>
</linearGradient>
</defs>
</svg>
