<svg width="632" height="474" viewBox="0 0 632 474" fill="none" xmlns="http://www.w3.org/2000/svg">
<path d="M308.479 455.989L35.9292 294.908C27.255 290.041 19.8132 282.031 28.2662 276.801L301.78 119.148C305.888 116.605 312.113 114.946 316.284 117.363L602.422 283.405C611.097 288.445 612.661 302.523 604.002 307.564L344.44 455.736C338.986 458.903 332.8 460.592 326.493 460.637C320.186 460.681 313.977 459.079 308.479 455.989Z" fill="#4AA4E8"/>
<path d="M463.209 275.884C463.209 275.884 464.536 289.551 463.793 291.02C461.989 293.809 459.755 296.294 457.173 298.383C454.519 300.437 451.137 303.976 454.819 305.888C458.5 307.8 469.671 299.126 470.856 298.525C472.041 297.925 472.025 283.231 472.025 283.231" fill="#473E39"/>
<path d="M482.026 283.784C482.026 283.784 483.354 297.451 482.611 298.921C480.807 301.709 478.573 304.194 475.991 306.283C473.336 308.337 469.955 311.877 473.637 313.788C477.318 315.7 488.489 307.026 489.674 306.426C490.859 305.825 490.843 291.131 490.843 291.131" fill="#473E39"/>
<path d="M491.775 225.166C492.059 231.407 492.012 237.695 491.68 244.221C491.652 244.472 491.684 244.727 491.775 244.964C491.866 245.2 492.012 245.411 492.202 245.579C491.87 266.988 491.412 297.814 491.412 298.304C491.412 299.062 484.681 302.902 480.083 295.776L474.6 244.347L474.126 291.747C474.126 291.747 466.653 296.013 462.166 288.255L458.816 216.46L491.775 225.166Z" fill="#847066"/>
<path d="M468.138 265.298C468.138 265.298 469.465 278.965 468.723 280.434C466.919 283.223 464.684 285.708 462.103 287.797C459.448 289.851 456.067 293.39 459.748 295.302C463.43 297.214 474.6 288.54 475.785 287.939C476.97 287.339 476.955 272.645 476.955 272.645" fill="#473E39"/>
<path d="M479.103 278.839L482.263 221.122L484.554 275.347C487.304 273.562 490.005 271.729 492.597 269.754C493.924 262.439 495.409 255.155 496.815 247.855C497.179 236.132 498.19 224.408 497.036 212.732L463.698 206.001L467.048 277.78C469.492 279.704 472.425 280.908 475.517 281.256C476.696 280.424 477.892 279.618 479.103 278.839Z" fill="#847066"/>
<path d="M373.117 313.361C373.117 313.361 371.79 327.028 372.532 328.498C374.336 331.286 376.571 333.771 379.153 335.861C381.807 337.915 385.188 341.454 381.507 343.366C377.825 345.277 366.655 336.603 365.47 336.003C364.285 335.402 364.301 320.708 364.301 320.708" fill="#473E39"/>
<path d="M354.283 321.262C354.283 321.262 352.956 334.929 353.699 336.398C355.503 339.187 357.737 341.672 360.319 343.761C362.973 345.815 366.355 349.354 362.673 351.266C358.992 353.178 347.821 344.504 346.636 343.903C345.451 343.303 345.467 328.609 345.467 328.609" fill="#473E39"/>
<path d="M344.029 265.867C343.935 271.141 344.14 276.416 344.645 281.667C344.674 281.918 344.641 282.173 344.55 282.41C344.46 282.646 344.313 282.857 344.124 283.025C344.456 304.434 344.914 335.26 344.914 335.75C344.914 336.508 351.645 340.348 356.243 333.222L358.96 268.979L362.12 329.114C366.409 329.55 370.7 328.297 374.081 325.622L377.43 253.843L344.029 265.867Z" fill="#847066"/>
<path style="mix-blend-mode:multiply" opacity="0.63" d="M279.281 399.977L340.095 435.653L524.639 323.205L464.141 289.298" fill="url(#paint0_linear_228_2210)"/>
<path d="M318.654 358.044C318.654 358.044 317.327 371.711 318.07 373.18C319.874 375.969 322.108 378.454 324.69 380.543C327.344 382.597 330.726 386.136 327.044 388.048C323.363 389.96 312.192 381.286 311.007 380.685C309.822 380.085 309.838 365.391 309.838 365.391" fill="#473E39"/>
<path d="M299.821 365.944C299.821 365.944 298.494 379.611 299.236 381.081C301.04 383.869 303.275 386.354 305.856 388.444C308.511 390.498 311.892 394.037 308.211 395.949C304.529 397.86 293.359 389.186 292.174 388.586C290.989 387.985 291.004 373.291 291.004 373.291" fill="#473E39"/>
<path d="M290.088 307.342C289.804 313.583 289.851 319.871 290.183 326.397C290.211 326.648 290.179 326.903 290.088 327.14C289.997 327.376 289.851 327.587 289.661 327.755C289.993 349.164 290.451 379.99 290.451 380.48C290.451 381.238 297.182 385.078 301.78 377.952L304.498 313.709L307.658 373.844C311.947 374.28 316.237 373.027 319.618 370.352L323.031 298.62L290.088 307.342Z" fill="#847066"/>
<path d="M230.601 162.52H228.594C226.553 162.52 224.897 164.175 224.897 166.217V228.658C224.897 230.7 226.553 232.356 228.594 232.356H230.601C232.643 232.356 234.298 230.7 234.298 228.658V166.217C234.298 164.175 232.643 162.52 230.601 162.52Z" fill="#42210B"/>
<path d="M283.705 331.011H281.698C279.656 331.011 278.001 332.666 278.001 334.708V397.197C278.001 399.239 279.656 400.894 281.698 400.894H283.705C285.747 400.894 287.402 399.239 287.402 397.197V334.708C287.402 332.666 285.747 331.011 283.705 331.011Z" fill="#42210B"/>
<path d="M339.542 361.772H337.535C335.493 361.772 333.838 363.428 333.838 365.47V431.956C333.838 433.998 335.493 435.653 337.535 435.653H339.542C341.584 435.653 343.239 433.998 343.239 431.956V365.47C343.239 363.428 341.584 361.772 339.542 361.772Z" fill="#42210B"/>
<path d="M522.348 253.132H520.341C518.299 253.132 516.644 254.787 516.644 256.829V323.315C516.644 325.357 518.299 327.013 520.341 327.013H522.348C524.39 327.013 526.045 325.357 526.045 323.315V256.829C526.045 254.787 524.39 253.132 522.348 253.132Z" fill="#42210B"/>
<path d="M527.831 254.317V260.938L524.686 263.434L523.454 255.866L527.831 254.317Z" fill="#F2CEC9"/>
<path d="M525.682 257.161L288.761 118.5C267.778 132.72 246.543 146.656 225.276 160.496V168.396L389.438 260.605C390.102 260.984 390.653 261.531 391.037 262.191C391.42 262.852 391.622 263.602 391.622 264.366C391.622 265.129 391.42 265.88 391.037 266.54C390.653 267.2 390.102 267.748 389.438 268.126L280.861 331.8L277.701 329.92V337.03C277.689 337.246 277.689 337.462 277.701 337.678V338.61H277.843C278.026 339.496 278.405 340.331 278.952 341.053C279.498 341.774 280.199 342.365 281.003 342.781L334.723 370.131C336.046 370.805 337.517 371.138 339.001 371.099C340.486 371.061 341.937 370.652 343.223 369.91L525.666 264.65C526.323 264.271 526.868 263.726 527.248 263.069C527.628 262.413 527.829 261.668 527.831 260.91C527.832 260.152 527.634 259.406 527.257 258.748C526.88 258.09 526.337 257.543 525.682 257.161Z" fill="#8805FA"/>
<path opacity="0.61" d="M525.682 257.161L288.761 118.5C267.778 132.72 246.543 146.656 225.276 160.496V168.396L389.438 260.605C390.102 260.984 390.653 261.531 391.037 262.191C391.42 262.852 391.622 263.602 391.622 264.366C391.622 265.129 391.42 265.88 391.037 266.54C390.653 267.2 390.102 267.748 389.438 268.126L280.861 331.8L277.701 329.92V337.03C277.689 337.246 277.689 337.462 277.701 337.678V338.61H277.843C278.026 339.496 278.405 340.331 278.952 341.053C279.498 341.774 280.199 342.365 281.003 342.781L334.723 370.131C336.046 370.805 337.517 371.138 339.001 371.099C340.486 371.061 341.937 370.652 343.223 369.91L525.666 264.65C526.323 264.271 526.868 263.726 527.248 263.069C527.628 262.413 527.829 261.668 527.831 260.91C527.832 260.152 527.634 259.406 527.257 258.748C526.88 258.09 526.337 257.543 525.682 257.161Z" fill="#606060"/>
<path d="M525.682 250.541L296.819 116.62C295.969 116.122 294.995 115.875 294.01 115.908C293.026 115.942 292.071 116.255 291.257 116.81C269.453 131.662 247.396 146.135 225.276 160.513V161.761L389.438 253.97C390.102 254.348 390.653 254.895 391.037 255.556C391.42 256.216 391.622 256.966 391.622 257.73C391.622 258.494 391.42 259.244 391.037 259.905C390.653 260.565 390.102 261.112 389.438 261.491L280.655 325.259C279.692 325.823 278.898 326.636 278.357 327.612C277.816 328.589 277.549 329.693 277.583 330.809C277.616 331.925 277.951 333.011 278.55 333.953C279.149 334.895 279.991 335.658 280.987 336.161L334.707 363.511C336.03 364.186 337.501 364.519 338.985 364.48C340.47 364.441 341.921 364.032 343.208 363.29L525.666 258.03C526.323 257.651 526.868 257.106 527.248 256.45C527.628 255.793 527.829 255.049 527.831 254.29C527.832 253.532 527.634 252.786 527.257 252.128C526.88 251.471 526.337 250.923 525.682 250.541Z" fill="#8805FA"/>
<path d="M375.123 167.37V50.1182L356.874 55.6166L356.479 156.737C362.626 160.418 369.025 163.657 375.123 167.37Z" fill="#F7CF91"/>
<path d="M375.124 167.37V50.1182L369.546 51.6982V164.099C371.421 165.163 373.28 166.253 375.124 167.37Z" fill="#DEAB7C"/>
<path d="M245.153 94.2473L269.074 106.366L381.049 40.7169L356.401 27.5713L245.153 94.2473Z" fill="#F7CF91"/>
<path d="M269.074 114.329L381.365 48.3482V40.7168L269.074 106.366V114.329Z" fill="#EDA421"/>
<path d="M250.809 101.152L250.351 248.93L263.481 256.135L269.074 252.706V106.366L250.809 101.152Z" fill="#F7CF91"/>
<path d="M263.481 256.134V106.366L269.074 109.416V252.706L263.481 256.134Z" fill="#DEAB7C"/>
<path d="M270.419 92.811C271.814 90.1138 270.758 86.7963 268.061 85.4012C265.364 84.006 262.046 85.0616 260.651 87.7588C259.256 90.456 260.312 93.7736 263.009 95.1687C265.706 96.5638 269.024 95.5082 270.419 92.811Z" fill="#E05342"/>
<path d="M260.131 91.2773C260.131 91.2773 260.589 94.1055 265.535 94.2477C270.48 94.3899 270.828 91.7829 270.828 91.7829C271.148 92.6188 271.224 93.5281 271.049 94.4057C270.733 95.7171 269.232 97.2181 265.535 97.2181C264.499 97.2638 263.467 97.0593 262.526 96.6221C261.586 96.1848 260.764 95.5276 260.131 94.7059C259.874 94.1712 259.74 93.5852 259.74 92.9916C259.74 92.3981 259.874 91.8121 260.131 91.2773Z" fill="#3A3935"/>
<path d="M324.021 58.3059C326.547 53.423 324.636 47.4171 319.753 44.8915C314.87 42.3658 308.864 44.2767 306.338 49.1597C303.813 54.0426 305.724 60.0484 310.607 62.5741C315.489 65.0998 321.495 63.1888 324.021 58.3059Z" fill="#E05342"/>
<path d="M305.414 55.5527C305.414 55.6475 306.251 60.6561 315.178 60.9247C324.5 61.2091 324.753 56.4691 324.753 56.4691C325.327 57.9807 325.464 59.6234 325.148 61.2091C324.564 63.5791 321.862 66.3125 315.194 66.3125C313.321 66.3925 311.456 66.0208 309.757 65.2289C308.057 64.4369 306.573 63.2479 305.43 61.7621C303.708 59.1235 305.414 55.5527 305.414 55.5527Z" fill="#3A3935"/>
<path d="M365.525 38.7173C366.92 36.02 365.864 32.7025 363.167 31.3074C360.47 29.9123 357.152 30.9678 355.757 33.6651C354.362 36.3623 355.418 39.6798 358.115 41.0749C360.812 42.4701 364.13 41.4145 365.525 38.7173Z" fill="#F7CF91"/>
<path d="M355.231 37.1934C355.231 37.1934 355.69 40.0216 360.635 40.1638C365.58 40.306 365.928 37.699 365.928 37.699C366.248 38.5348 366.325 39.4441 366.149 40.3218C365.833 41.6332 364.332 43.1342 360.635 43.1342C359.599 43.1798 358.567 42.9753 357.626 42.5381C356.686 42.1008 355.864 41.4436 355.231 40.622C354.974 40.0872 354.84 39.5012 354.84 38.9077C354.84 38.3141 354.974 37.7281 355.231 37.1934Z" fill="#F7CF91"/>
<path d="M245.153 94.2471V102.7L269.074 114.329V106.366L245.153 94.2471Z" fill="#EDA421"/>
<path d="M359.817 42.5288C361.212 39.8315 360.157 36.514 357.459 35.1189C354.762 33.7238 351.445 34.7793 350.05 37.4766C348.654 40.1738 349.71 43.4913 352.407 44.8865C355.104 46.2816 358.422 45.226 359.817 42.5288Z" fill="#E05342"/>
<path d="M349.528 41.001C349.528 41.001 349.986 43.8292 354.931 43.9714C359.877 44.1136 360.24 41.5066 360.24 41.5066C360.56 42.3424 360.637 43.2518 360.461 44.1294C360.145 45.4408 358.644 46.9418 354.947 46.9418C353.911 46.9874 352.879 46.783 351.938 46.3457C350.998 45.9084 350.176 45.2512 349.543 44.4296C349.283 43.896 349.147 43.3107 349.144 42.7171C349.141 42.1235 349.272 41.5369 349.528 41.001Z" fill="#3A3935"/>
<path style="mix-blend-mode:multiply" opacity="0.63" d="M449.289 215.56L426.821 228.689L446.318 240.05L468.723 228.026C462.261 223.839 455.814 219.62 449.289 215.56Z" fill="url(#paint1_linear_228_2210)"/>
<path d="M453.191 197.263V221.643L434.184 232.513L412.712 219.826V195.446" fill="#FFAD4A"/>
<path d="M453.191 197.263L431.135 184.702L412.712 195.446L434.184 208.134L453.191 197.263Z" fill="#FFDD99"/>
<path d="M434.184 208.134V232.513L412.712 219.826V195.446L434.184 208.134Z" fill="#FFC36C"/>
<path d="M446.303 200.85L424.262 188.368L419.616 191.086L441.499 203.599V218.546L446.303 216.034V200.85Z" fill="#AD5802"/>
<path style="mix-blend-mode:multiply" opacity="0.63" d="M366.987 311.45L340.127 327.155L363.463 340.743L390.323 326.35C382.502 321.357 374.792 316.332 366.987 311.45Z" fill="url(#paint2_linear_228_2210)"/>
<path d="M328.782 292.442V320.693L350.823 333.317L375.708 318.607V290.341" fill="#FFAD4A"/>
<path d="M328.782 292.442L354.362 277.891L375.708 290.341L350.823 305.051L328.782 292.442Z" fill="#FFDD99"/>
<path d="M350.823 305.051V333.317L375.708 318.607V290.341L350.823 305.051Z" fill="#FFC36C"/>
<path d="M336.793 296.598L362.326 282.141L367.713 285.285L342.354 299.789V317.106L336.793 314.199V296.598Z" fill="#AD5802"/>
<path style="mix-blend-mode:multiply" opacity="0.63" d="M420.185 277.069L393.325 292.775L416.662 306.363L443.522 291.969C435.701 286.976 427.99 281.952 420.185 277.069Z" fill="url(#paint3_linear_228_2210)"/>
<path d="M381.981 258.061V286.328L404.022 298.92L428.907 284.226V255.96" fill="#FFAD4A"/>
<path d="M381.981 258.062L407.561 243.51L428.907 255.96L404.022 270.67L381.981 258.062Z" fill="#FFDD99"/>
<path d="M404.022 270.67V298.92L428.907 284.226V255.96L404.022 270.67Z" fill="#FFC36C"/>
<path d="M389.991 262.233L415.524 247.76L420.912 250.904L395.553 265.408V282.725L389.991 279.818V262.233Z" fill="#AD5802"/>
<path d="M386.989 207.644C386.989 207.644 393.957 222.448 396.596 225.498C399.234 228.547 409.236 242.325 409.236 242.325C409.236 242.325 414.387 246.085 413.265 247.191C412.143 248.297 408.525 244.552 408.525 244.552L401.446 244.963C401.446 244.963 390.386 231.47 387.953 228.563C385.52 225.656 378.805 212.431 378.805 212.431" fill="#F3AE83"/>
<path d="M347.774 238.738C347.785 238.864 347.785 238.991 347.774 239.117C345.674 247.892 344.441 256.851 344.092 265.867C355.895 270.291 370.02 264.461 379.532 255.028L347.774 238.738Z" fill="#847066"/>
<path d="M360.351 189.443C360.351 189.443 347.948 192.46 345.119 202.083C342.291 211.705 348.896 247.097 348.896 247.097C348.896 247.097 368.804 254.633 382.076 241.788C382.076 241.788 382.076 192.318 374.665 188.352C369.072 185.382 360.351 189.443 360.351 189.443Z" fill="#A2C609"/>
<path d="M373.796 188.021C373.796 188.021 384.272 191.576 388.759 209.556C385.547 211.644 382.189 213.497 378.71 215.102" fill="#A2C609"/>
<path d="M380.954 211.072L377.304 208.055C377.304 191.875 367.555 185.935 367.555 185.935L366.528 186.851C373.781 194.166 375.171 207.17 374.539 207.66C373.907 208.149 363.258 210.899 363.258 210.899C363.144 208.769 362.837 206.653 362.341 204.579C361.918 202.807 361.347 201.073 360.635 199.396C360.051 198.019 359.365 196.688 358.581 195.415C357.99 194.446 357.33 193.522 356.606 192.65C356.326 192.21 355.918 191.868 355.437 191.67C355.31 191.67 354.947 191.512 354.836 191.559C353.928 192.036 353.047 192.563 352.198 193.139C358.312 193.629 360.746 211.452 360.746 211.452C360.746 211.452 357.586 211.704 358.755 220.205C359.924 228.705 348.121 243.747 348.121 243.747L351.424 283.816L381.238 266.341L380.954 211.072Z" fill="#473E39"/>
<path d="M356.337 227.52L347.3 212.731L347.647 217.013C347.684 217.078 347.71 217.147 347.726 217.219C348.627 221.722 349.543 230.459 349.796 231.77L351.376 239.181L357.064 231.028L356.337 227.52Z" fill="#89A000"/>
<path d="M360.351 217.329C360.351 217.329 363.906 227.504 366.671 230.333C369.436 233.161 383.466 247.634 383.972 247.792C384.477 247.95 392.962 249.293 392.456 250.952C391.951 252.611 386.974 251.789 386.974 251.789C386.974 251.789 394.953 258.109 393.294 260.274C391.635 262.438 379.99 257.445 379.153 255.123C378.315 252.8 376.909 249.324 376.909 249.324C376.909 249.324 357.728 235.989 355.721 233.335C353.715 230.68 349.054 219.367 349.054 219.367C349.054 219.367 353.92 214.153 360.351 217.329Z" fill="#F3AE83"/>
<path d="M345.846 213.838C345.846 213.838 350.871 226.225 351.202 226.478C351.534 226.73 362.262 221.88 363.621 221.738L357.87 207.691" fill="#A2C609"/>
<path d="M363.4 193.581C365.053 194.048 366.811 193.982 368.424 193.392V185.049L358.423 183.58L359.071 191.211C360.294 192.35 361.782 193.164 363.4 193.581Z" fill="#EAA37D"/>
<path d="M373.749 173.279C374.081 173.69 372.169 190.786 368.377 190.438C364.585 190.09 357.996 185.508 357.933 178.841C357.87 172.173 369.104 167.481 373.749 173.279Z" fill="#F3AE83"/>
<path d="M368.061 165.663C358.328 164.557 353.983 171.13 354.046 175.617C354.11 180.105 355.468 187.12 357.791 187.215C358.12 187.22 358.446 187.144 358.739 186.993C358.888 185.305 359.271 183.646 359.877 182.064C359.276 180.974 358.297 179.014 359.592 178.13C359.733 178.004 359.902 177.913 360.085 177.865C360.268 177.817 360.46 177.813 360.645 177.853C360.829 177.893 361.002 177.976 361.149 178.096C361.295 178.215 361.412 178.368 361.488 178.54C361.544 177.92 361.84 177.346 362.311 176.939C362.783 176.532 363.394 176.325 364.016 176.36C364.016 176.36 372.959 178.493 375.44 176.96C377.92 175.428 377.794 166.769 368.061 165.663Z" fill="#4C2E22"/>
<path d="M364 160.544C358.06 161.034 352.324 164.131 350.855 170.024C349.385 175.918 351.329 178.177 354.41 179.046C354.41 179.046 364.016 167.986 375.566 171.225C376.403 171.462 376.53 167.939 376.546 167.496C376.669 166.333 376.41 165.161 375.809 164.158C375.208 163.155 374.296 162.374 373.212 161.935C370.306 160.707 367.139 160.229 364 160.544Z" fill="#E0D6CD"/>
<path d="M354.41 179.109L353.335 178.73C353.335 178.73 361.788 166.248 376.277 170.103L375.882 171.494C371.736 170.468 367.369 170.829 363.447 172.521C360.055 174.143 356.992 176.376 354.41 179.109Z" fill="#CCB09A"/>
<path d="M333.017 249.641C333.017 249.641 339.984 264.445 342.623 267.495C345.262 270.544 355.263 284.322 355.263 284.322C355.263 284.322 360.414 288.082 359.292 289.188C358.17 290.294 354.552 286.549 354.552 286.549L347.474 286.96C347.474 286.96 336.414 273.467 333.98 270.56C331.547 267.653 324.864 254.381 324.864 254.381" fill="#F3AE83"/>
<path d="M293.801 280.655C293.813 280.781 293.813 280.908 293.801 281.034C291.702 289.809 290.469 298.768 290.12 307.784C301.922 312.208 316.047 306.378 325.559 296.945L293.801 280.655Z" fill="#847066"/>
<path d="M306.378 231.36C306.378 231.36 293.975 234.377 291.147 244C288.318 253.622 294.923 289.014 294.923 289.014C294.923 289.014 314.831 296.55 328.103 283.705C328.103 283.705 328.103 234.235 320.693 230.269C315.099 227.299 306.378 231.36 306.378 231.36Z" fill="#A2C609"/>
<path d="M319.824 229.906C319.824 229.906 330.299 233.461 334.786 251.442C331.574 253.53 328.216 255.383 324.737 256.987" fill="#A2C609"/>
<path d="M327.06 252.99L323.41 249.973C323.41 233.793 313.662 227.853 313.662 227.853L312.634 228.769C319.887 236.084 321.277 249.088 320.645 249.578C320.013 250.067 309.364 252.817 309.364 252.817C309.25 250.686 308.943 248.571 308.448 246.497C308.024 244.725 307.453 242.991 306.741 241.314C306.157 239.937 305.471 238.606 304.687 237.333C304.096 236.364 303.436 235.44 302.712 234.568C302.433 234.128 302.024 233.786 301.543 233.588C301.417 233.588 301.053 233.43 300.943 233.477C300.034 233.954 299.153 234.481 298.304 235.057C304.419 235.547 306.852 253.37 306.852 253.37C306.852 253.37 303.692 253.622 304.861 262.123C306.03 270.623 294.228 285.665 294.228 285.665V317.423C293.422 318.26 327.976 297.641 327.976 297.641L327.06 252.99Z" fill="#473E39"/>
<path d="M302.365 269.437L293.327 254.648L293.675 258.93C293.711 258.995 293.737 259.064 293.754 259.136C294.654 263.639 295.571 272.376 295.823 273.687L297.403 281.098L303.091 272.945L302.365 269.437Z" fill="#89A000"/>
<path d="M306.378 259.263C306.378 259.263 309.933 269.438 312.698 272.266C315.463 275.094 329.493 289.567 329.999 289.725C330.504 289.883 338.989 291.226 338.483 292.885C337.978 294.544 333.001 293.722 333.001 293.722C333.001 293.722 340.98 300.042 339.321 302.207C337.662 304.372 326.017 299.379 325.18 297.056C324.342 294.734 322.936 291.258 322.936 291.258C322.936 291.258 303.755 277.922 301.748 275.268C299.742 272.614 295.081 261.301 295.081 261.301C295.081 261.301 299.995 256.071 306.378 259.263Z" fill="#F3AE83"/>
<path d="M291.873 255.755C291.873 255.755 296.898 268.142 297.23 268.395C297.561 268.648 308.29 263.797 309.648 263.655L303.881 249.641" fill="#A2C609"/>
<path d="M309.459 235.499C311.112 235.966 312.87 235.9 314.483 235.31V226.967L304.482 225.498L305.13 233.129C306.353 234.268 307.841 235.082 309.459 235.499Z" fill="#EAA37D"/>
<path d="M319.776 215.197C320.108 215.607 318.196 232.703 314.404 232.356C310.612 232.008 304.024 227.426 303.96 220.758C303.897 214.091 315.131 209.445 319.776 215.197Z" fill="#F3AE83"/>
<path d="M314.088 207.58C304.355 206.474 300.01 213.047 300.074 217.534C300.137 222.022 301.496 229.037 303.818 229.132C304.148 229.137 304.473 229.061 304.766 228.91C304.915 227.222 305.298 225.563 305.904 223.981C305.303 222.891 304.324 220.931 305.619 220.047C305.761 219.921 305.93 219.83 306.112 219.782C306.295 219.734 306.487 219.73 306.672 219.77C306.857 219.81 307.029 219.893 307.176 220.013C307.322 220.132 307.439 220.285 307.515 220.457C307.572 219.837 307.867 219.263 308.339 218.856C308.81 218.449 309.421 218.242 310.043 218.277C310.043 218.277 318.986 220.41 321.467 218.877C323.947 217.345 323.821 208.702 314.088 207.58Z" fill="#F99900"/>
<path d="M310.028 202.461C304.087 202.951 298.351 206.048 296.882 211.941C295.412 217.835 297.356 220.094 300.437 220.963C300.437 220.963 310.043 209.903 321.593 213.142C322.43 213.379 322.557 209.856 322.573 209.413C322.696 208.25 322.438 207.078 321.836 206.075C321.235 205.072 320.323 204.291 319.239 203.852C316.333 202.624 313.166 202.146 310.028 202.461Z" fill="#E0D6CD"/>
<path d="M300.437 221.026L299.363 220.647C299.363 220.647 307.816 208.165 322.304 212.02L321.909 213.411C317.763 212.385 313.396 212.746 309.475 214.438C306.083 216.06 303.019 218.293 300.437 221.026Z" fill="#CCB09A"/>
<path d="M486.277 130.666C486.277 130.666 487.462 134.648 492.597 141.378C497.732 148.109 501.46 149.942 500.023 156.088C498.585 162.234 486.277 155.899 480.115 155.314C473.953 154.729 472.61 145.218 473.384 140.699" fill="#8E4228"/>
<path d="M453.697 159.201C453.697 159.201 446.729 174.006 444.091 177.055C441.452 180.105 431.451 193.882 431.451 193.882C431.451 193.882 426.3 197.643 427.422 198.749C428.543 199.855 432.162 196.11 432.162 196.11L439.24 196.521C439.24 196.521 450.3 183.028 452.733 180.12C455.166 177.213 461.881 163.989 461.881 163.989" fill="#FFC8A9"/>
<path d="M461.218 206.586L493.244 190.122C495.078 199.068 496.455 208.101 497.368 217.187C485.423 222.117 470.84 216.208 461.218 206.586Z" fill="#847066"/>
<path d="M480.32 140.999C480.32 140.999 492.723 144.017 495.551 153.639C498.379 163.261 491.775 198.653 491.775 198.653C491.775 198.653 471.867 206.19 458.595 193.345C458.595 193.345 458.595 143.875 466.005 139.909C471.614 136.939 480.32 140.999 480.32 140.999Z" fill="#A2C609"/>
<path d="M466.89 139.546C466.89 139.546 456.415 143.101 451.927 161.081C455.139 163.169 458.498 165.023 461.976 166.627" fill="#A2C609"/>
<path d="M459.622 165.9L463.367 159.58C463.367 143.401 473.115 137.46 473.115 137.46L474.142 138.376C466.89 145.692 465.5 158.695 466.132 159.185C466.764 159.675 477.413 162.424 477.413 162.424C477.527 160.294 477.833 158.179 478.329 156.104C478.753 154.332 479.324 152.599 480.036 150.922C480.619 149.545 481.306 148.214 482.09 146.94C482.68 145.972 483.34 145.048 484.065 144.175C484.344 143.736 484.752 143.394 485.234 143.195C485.36 143.195 485.724 143.037 485.834 143.085C486.743 143.561 487.624 144.089 488.473 144.665C482.358 145.155 479.925 162.977 479.925 162.977C479.925 162.977 483.085 163.23 481.916 171.73C480.747 180.231 492.549 195.272 492.549 195.272L494.034 231.991L458.2 211.72L459.622 165.9Z" fill="#473E39"/>
<path d="M471.693 136.623C471.949 136.865 472.125 137.179 472.199 137.523C472.815 140.114 473.32 142.721 473.779 145.328C474.76 145.436 475.753 145.35 476.702 145.076C478.314 144.656 479.796 143.841 481.015 142.706L481.663 135.074L471.693 136.623Z" fill="#F9B495"/>
<path d="M466.937 124.821C466.606 125.231 468.517 142.327 472.309 141.979C476.101 141.632 482.69 137.05 482.753 130.382C482.816 123.715 471.583 119.085 466.937 124.821Z" fill="#FFC8A9"/>
<path d="M484.349 179.078L493.387 164.289L493.039 168.571C493.003 168.635 492.976 168.704 492.96 168.776C492.059 173.279 491.143 182.017 490.89 183.328L489.31 190.738L483.622 182.585L484.349 179.078Z" fill="#89A000"/>
<path d="M480.32 168.887C480.32 168.887 476.765 179.062 474 181.89C471.235 184.718 457.157 199.191 456.62 199.365C456.083 199.539 447.63 200.866 448.135 202.525C448.641 204.184 453.618 203.362 453.618 203.362C453.618 203.362 445.639 209.682 447.298 211.847C448.957 214.011 460.602 209.019 461.439 206.696C462.276 204.373 463.683 200.897 463.683 200.897C463.683 200.897 482.864 187.562 484.87 184.908C486.877 182.253 491.538 170.941 491.538 170.941C491.538 170.941 486.719 165.711 480.32 168.887Z" fill="#FFC8A9"/>
<path d="M494.84 165.394C494.84 165.394 489.816 177.781 489.484 178.034C489.152 178.287 478.424 173.436 477.065 173.294L482.816 159.248" fill="#A2C609"/>
<path d="M486.64 127.175C486.64 122.703 482.358 116.115 472.625 117.221C470.011 117.362 467.549 118.492 465.737 120.381C465.737 121.076 465.642 121.755 465.642 122.435C465.55 122.503 465.476 122.591 465.424 122.692C465.371 122.793 465.343 122.905 465.342 123.019C465.066 125.149 465.293 127.314 466.005 129.339C466.014 129.435 466.044 129.527 466.093 129.609C466.142 129.691 466.209 129.761 466.29 129.813C467.348 131.172 469.45 130.967 471.03 130.825C472.23 130.714 473.415 130.493 474.6 130.287C476.402 129.971 478.282 129.292 479.562 131.867C479.825 132.786 479.947 133.74 479.925 134.696C479.965 136.589 480.607 138.421 481.758 139.925C482.421 140.7 483.527 139.578 482.88 138.804L482.801 138.693H482.911C485.218 138.677 486.64 131.646 486.64 127.175Z" fill="#8E4228"/>
<path d="M475.58 114.25C481.537 114.076 487.588 116.525 489.705 122.276C491.822 128.027 490.132 130.445 487.161 131.63C487.161 131.63 476.386 121.755 465.263 126.21C464.457 126.526 463.951 123.05 463.872 122.608C463.62 121.467 463.746 120.276 464.231 119.213C464.715 118.15 465.532 117.273 466.558 116.715C469.31 115.148 472.413 114.3 475.58 114.25Z" fill="#E0D6CD"/>
<path d="M487.161 131.646L488.22 131.14C488.22 131.14 478.44 119.685 464.52 125.104L465.073 126.447C469.077 124.968 473.456 124.84 477.539 126.084C481.059 127.334 484.321 129.219 487.161 131.646Z" fill="#CCB09A"/>
<path style="mix-blend-mode:multiply" opacity="0.63" d="M92.5721 314.894L154.113 279.992L115.466 258.03L53.4829 292.569C66.5811 299.884 79.5687 307.421 92.5721 314.894Z" fill="url(#paint4_linear_228_2210)"/>
<path d="M107.851 241.962V272.661H157.51V241.962" fill="#F8997C"/>
<path d="M132.688 254.175C146.406 254.175 157.526 248.707 157.526 241.961C157.526 235.216 146.406 229.748 132.688 229.748C118.971 229.748 107.851 235.216 107.851 241.961C107.851 248.707 118.971 254.175 132.688 254.175Z" fill="#DD654A"/>
<path d="M132.688 286.075C146.406 286.075 157.526 280.607 157.526 273.862C157.526 267.117 146.406 261.648 132.688 261.648C118.971 261.648 107.851 267.117 107.851 273.862C107.851 280.607 118.971 286.075 132.688 286.075Z" fill="#F8997C"/>
<path d="M160.481 170.64C155.235 168.492 147.967 161.366 141.631 161.587C139.23 167.496 138.471 174.417 137.792 180.436C136.588 190.878 136.35 201.409 137.081 211.894C137.228 214.222 137.423 216.55 137.665 218.878C137.726 219.565 137.913 220.235 138.218 220.853C138.218 228.953 138.218 237.053 138.218 245.153C138.218 245.363 138.302 245.564 138.45 245.712C138.598 245.86 138.799 245.943 139.008 245.943C139.218 245.943 139.419 245.86 139.567 245.712C139.715 245.564 139.798 245.363 139.798 245.153C139.798 237.359 139.798 229.569 139.798 221.785C142.286 220.963 144.671 219.861 146.908 218.499C151.588 215.552 155.118 211.091 156.91 205.859C160.923 194.704 158.379 182.238 162.187 171.193C161.587 171.004 161.034 170.814 160.481 170.64Z" fill="#297600"/>
<path d="M149.752 152.297C146.784 154.053 144.336 156.567 142.658 159.581C142.219 160.258 141.849 160.978 141.552 161.729L141.331 162.203C140.851 163.462 140.45 164.75 140.13 166.059C140.725 165.064 141.664 164.322 142.769 163.973C144.076 163.399 145.535 163.265 146.924 163.594C148.272 164.107 149.552 164.787 150.732 165.616C152.502 166.691 154.208 167.891 155.962 168.997C164.194 174.227 175.143 174.764 181.495 167.149C181.574 166.849 181.653 166.548 181.716 166.232C182.632 161.003 167.954 141.727 149.752 152.297Z" fill="#5FAD00"/>
<path d="M177.829 170.372C178.161 170.135 178.508 169.914 178.856 169.693C178.868 169.586 178.856 169.478 178.82 169.377C178.785 169.276 178.727 169.184 178.651 169.108C173.674 164.005 168.333 158.996 161.539 156.468C156.67 154.62 151.396 154.102 146.261 154.967C145.708 155.599 145.202 156.279 144.681 156.958C150.211 155.109 157.226 156.263 162.25 158.412C168.254 160.971 173.042 165.569 177.529 170.183C177.612 170.269 177.715 170.334 177.829 170.372Z" fill="#297600"/>
<path d="M94.4681 181.479C90.8865 183.357 87.9316 186.239 85.9666 189.773C84.0016 193.308 83.1124 197.339 83.4081 201.372C83.9927 216.034 108.135 201.719 114.55 189.348C120.965 176.976 121.96 194.625 121.96 194.625" fill="#297600"/>
<path d="M116.193 176.376C111.657 176.298 107.137 176.927 102.795 178.24C99.8826 178.936 97.0806 180.032 94.4681 181.495C95.9828 182.515 97.5974 183.378 99.2871 184.07C102.321 185.287 105.497 186.819 107.092 189.663C107.482 190.365 107.795 191.106 108.025 191.875C109.494 196.694 108.23 202.54 110.205 207.391C112.18 212.242 116.241 216.523 121.929 216.871C128.738 217.282 131.851 210.756 133.194 205.1C134.537 199.444 136.354 191.733 134.237 185.919C131.74 179.125 122.64 176.676 116.193 176.376Z" fill="#5FAD00"/>
<path d="M125.152 199.238C122.292 189.979 116.241 181.242 107.377 177.118H107.045L106.634 177.245C106.097 177.403 105.56 177.529 105.054 177.655C115.372 181.479 121.85 191.654 124.504 202.066C127.885 215.37 126.748 229.764 126.779 243.368C126.779 243.556 126.854 243.737 126.987 243.87C127.121 244.004 127.302 244.079 127.49 244.079C127.679 244.079 127.86 244.004 127.993 243.87C128.126 243.737 128.201 243.556 128.201 243.368C128.154 228.895 129.56 213.3 125.152 199.238Z" fill="#297600"/>
<defs>
<linearGradient id="paint0_linear_228_2210" x1="289.772" y1="436.048" x2="512.726" y2="288.065" gradientUnits="userSpaceOnUse">
<stop stop-color="white" stop-opacity="0"/>
<stop offset="0.99" stop-color="#754C24"/>
</linearGradient>
<linearGradient id="paint1_linear_228_2210" x1="460.633" y1="247.065" x2="442.1" y2="220.11" gradientUnits="userSpaceOnUse">
<stop stop-color="white" stop-opacity="0"/>
<stop offset="0.99" stop-color="#754C24"/>
</linearGradient>
<linearGradient id="paint2_linear_228_2210" x1="380.575" y1="349.165" x2="358.391" y2="316.901" gradientUnits="userSpaceOnUse">
<stop stop-color="white" stop-opacity="0"/>
<stop offset="0.99" stop-color="#754C24"/>
</linearGradient>
<linearGradient id="paint3_linear_228_2210" x1="433.773" y1="314.784" x2="411.59" y2="282.52" gradientUnits="userSpaceOnUse">
<stop stop-color="white" stop-opacity="0"/>
<stop offset="0.99" stop-color="#754C24"/>
</linearGradient>
<linearGradient id="paint4_linear_228_2210" x1="82.0019" y1="300.264" x2="116.62" y2="278.065" gradientUnits="userSpaceOnUse">
<stop stop-color="white" stop-opacity="0"/>
<stop offset="0.99" stop-color="#754C24"/>
</linearGradient>
</defs>
</svg>
