<svg width="638" height="479" viewBox="0 0 638 479" fill="none" xmlns="http://www.w3.org/2000/svg">
<path d="M42.969 230.844L259.267 105.082C260.821 104.185 262.584 103.712 264.379 103.712C266.174 103.712 267.937 104.185 269.491 105.082L592.941 290.129C594.502 291.025 595.799 292.316 596.7 293.872C597.602 295.429 598.077 297.196 598.077 298.995C598.077 300.794 597.602 302.561 596.7 304.118C595.799 305.674 594.502 306.966 592.941 307.861L386.133 427.261C381.058 430.19 375.302 431.732 369.442 431.732C363.582 431.732 357.825 430.19 352.75 427.261L43.0647 248.543C41.5065 247.655 40.2097 246.371 39.3046 244.823C38.3994 243.274 37.9178 241.515 37.9081 239.721C37.8984 237.928 38.361 236.163 39.2493 234.605C40.1376 233.047 41.4205 231.75 42.969 230.844Z" fill="#FFB3A6"/>
<path d="M270.512 132.285V38.5889H264.291V131.854C265.243 132.348 266.287 132.641 267.357 132.715C268.427 132.789 269.501 132.643 270.512 132.285Z" fill="#772E29"/>
<path d="M130.598 272.493L318.585 380.173L364.792 353.018L178.145 245.035L130.598 272.493Z" fill="#A04D42"/>
<path d="M178.145 245.035V299.728L130.598 272.493L178.145 245.035Z" fill="#772E29"/>
<path d="M273.33 68.6301C286.127 66.1432 294.176 52.1647 291.307 37.4083C288.438 22.6518 275.737 12.7054 262.939 15.1923C250.142 17.6793 242.093 31.6578 244.962 46.4142C247.831 61.1706 260.532 71.117 273.33 68.6301Z" fill="#F84A4B"/>
<path d="M272.313 63.4028C282.603 61.4031 289.074 50.1603 286.766 38.2912C284.459 26.4221 274.246 18.4213 263.956 20.4209C253.666 22.4205 247.195 33.6633 249.503 45.5324C251.811 57.4016 262.023 65.4024 272.313 63.4028Z" stroke="#F2F2F2" stroke-width="0.539307" stroke-miterlimit="10"/>
<path d="M269.746 28.2555C269.106 27.6948 268.284 27.3857 267.433 27.3857C266.582 27.3857 265.76 27.6948 265.12 28.2555C263.733 29.7065 264.211 31.7157 264.211 33.5494V39.4174C264.211 41.6497 264.211 43.8821 264.211 46.1145C264.172 46.6836 264.277 47.2534 264.517 47.7709C264.757 48.2884 265.124 48.7368 265.585 49.0742C266.045 49.4116 266.583 49.6272 267.149 49.7007C267.714 49.7743 268.29 49.7035 268.821 49.4949C270.719 48.7774 270.559 46.8958 270.559 45.2056C270.559 41.1873 270.559 37.2328 270.559 33.1348C270.559 31.7316 270.99 29.9457 270.081 28.6382C269.982 28.4999 269.87 28.3717 269.746 28.2555Z" fill="white"/>
<path d="M266.7 52.7804C266.429 52.8738 266.182 53.0248 265.975 53.2231C265.769 53.4213 265.608 53.662 265.503 53.9285C264.562 56.2565 267.098 59.0151 269.268 57.1176C269.542 56.8132 269.742 56.4497 269.853 56.0552C269.964 55.6608 269.983 55.2461 269.907 54.8434C269.831 54.4406 269.664 54.0608 269.417 53.7334C269.171 53.4061 268.852 53.1399 268.486 52.9558C267.936 52.6661 267.295 52.6032 266.7 52.7804Z" fill="white"/>
<path style="mix-blend-mode:multiply" opacity="0.63" d="M314.358 188.875L200.172 255.83L134.011 215.632L227.463 161.082" fill="url(#paint0_linear_237_34924)"/>
<path style="mix-blend-mode:multiply" opacity="0.63" d="M378.206 254.076C371.05 257.603 363.368 259.945 355.461 261.012C343.499 262.766 327.214 265.668 316.208 259.162C305.905 253.071 305.33 242.356 309.35 232.501L232.87 276.734L313.816 321.621L403.024 269.32L378.206 254.076Z" fill="url(#paint1_linear_237_34924)"/>
<path style="mix-blend-mode:multiply" opacity="0.63" d="M487.081 326.278L410.489 371.196L341.011 332.656L421.478 286.079" fill="url(#paint2_linear_237_34924)"/>
<path d="M517.45 284.644L513.51 282.363L498.342 283.814L499.729 279.573L480.478 274.247H421.08L386.66 285.09V304.878L418.049 322.992H416.454V342.845L438.146 355.362L456.17 345.029L467.765 351.726L486.443 340.867V327.441L538.727 297.065H538.871V277.277L517.45 284.644ZM453.091 321.653L425.594 305.708L491.914 299.026L453.091 321.653Z" fill="#4AA4E8"/>
<path opacity="0.95" d="M517.45 284.644L513.51 282.363L498.342 283.814L499.729 279.573L480.478 274.247H421.08L386.66 285.09V304.878L418.049 322.992H416.454V342.845L438.146 355.362L456.17 345.029L467.765 351.726L486.443 340.867V327.441L538.727 297.065H538.871V277.277L517.45 284.644ZM453.091 321.653L425.594 305.708L491.914 299.026L453.091 321.653Z" fill="#606060"/>
<path d="M474.783 314.334L486.379 321.032L467.701 331.89L456.106 325.193L438.13 335.638L416.438 323.12L434.414 312.676L386.564 285.106L408.128 272.573L513.398 262.543L538.695 277.15L474.783 314.334ZM453.091 301.817L491.913 279.27L425.593 285.951L453.091 301.897" fill="#4AA4E8"/>
<path d="M420.825 239.901V217.354L404.875 219.299L404.556 219.108C401.708 217.481 398.737 216.079 395.672 214.914C393.789 209.907 389.292 200.324 382.433 198.506C372.959 196.019 357.025 198.841 357.025 198.841L321.839 214.213C321.998 214.213 324.439 214.898 327.932 215.696C321.285 218.03 314.876 220.994 308.792 224.545C304.776 226.846 300.947 229.458 297.34 232.359L283.24 234.065V256.947C283.314 266.089 288.785 273.806 299.653 280.1C311.721 287.062 326.794 290.177 344.871 289.444C362.697 288.732 380.072 283.627 395.448 274.582C411.175 265.44 419.634 255.644 420.825 245.195C421.025 243.436 421.025 241.66 420.825 239.901ZM330.356 237.063C339.741 231.328 350.283 227.75 361.22 226.586C371.257 225.715 379.232 226.974 385.145 230.366C386.669 231.216 388.056 232.291 389.26 233.555C379.913 245.753 365.143 253.965 349.991 257.138C338.331 259.578 327.9 258.812 318.091 251.78C317.15 251.111 316.113 250.345 315.028 249.532C317.963 245.45 323.078 241.288 330.372 237.047L330.356 237.063Z" fill="#4AA4E8"/>
<path opacity="0.95" d="M420.825 239.901V217.354L404.875 219.299L404.556 219.108C401.708 217.481 398.737 216.079 395.672 214.914C393.789 209.907 389.292 200.324 382.433 198.506C372.959 196.019 357.025 198.841 357.025 198.841L321.839 214.213C321.998 214.213 324.439 214.898 327.932 215.696C321.285 218.03 314.876 220.994 308.792 224.545C304.776 226.846 300.947 229.458 297.34 232.359L283.24 234.065V256.947C283.314 266.089 288.785 273.806 299.653 280.1C311.721 287.062 326.794 290.177 344.871 289.444C362.697 288.732 380.072 283.627 395.448 274.582C411.175 265.44 419.634 255.644 420.825 245.195C421.025 243.436 421.025 241.66 420.825 239.901ZM330.356 237.063C339.741 231.328 350.283 227.75 361.22 226.586C371.257 225.715 379.232 226.974 385.145 230.366C386.669 231.216 388.056 232.291 389.26 233.555C379.913 245.753 365.143 253.965 349.991 257.138C338.331 259.578 327.9 258.812 318.091 251.78C317.15 251.111 316.113 250.345 315.028 249.532C317.963 245.45 323.078 241.288 330.372 237.047L330.356 237.063Z" fill="#606060"/>
<path d="M420.825 222.759C419.634 233.208 411.175 243.004 395.448 252.146C380.034 261.192 362.62 266.281 344.759 266.96C326.682 267.693 311.61 264.578 299.541 257.616C287.472 250.653 282.049 241.957 283.272 231.529C284.495 221.058 292.964 211.257 308.68 202.125C324.089 193.086 341.5 188.007 359.353 187.344C377.43 186.621 392.487 189.741 404.524 196.704C416.561 203.667 421.994 212.352 420.825 222.759ZM342.925 250.105C353.863 248.936 364.405 245.352 373.788 239.613C384.326 233.49 390.328 227.521 391.796 221.706C393.263 215.891 391.051 211.283 385.16 207.881C379.269 204.48 371.294 203.22 361.235 204.102C350.298 205.266 339.757 208.844 330.372 214.579C319.845 220.691 313.848 226.66 312.381 232.485C310.913 238.311 313.12 242.919 319 246.31C324.901 249.712 332.876 250.977 342.925 250.105Z" fill="#4AA4E8"/>
<path d="M310.435 169.853L306.495 167.572L291.327 169.023L292.714 164.782L273.463 159.456H214.033L179.613 170.299V190.071L211.002 208.186H209.407V228.038L231.099 240.555L249.075 230.111L260.671 236.808L279.348 225.949V212.523L331.632 182.147H331.776V162.486L310.435 169.853ZM246.076 206.862L218.579 190.917L284.899 184.235L246.076 206.862Z" fill="#4AA4E8"/>
<path opacity="0.95" d="M310.435 169.853L306.495 167.572L291.327 169.023L292.714 164.782L273.463 159.456H214.033L179.613 170.299V190.071L211.002 208.186H209.407V228.038L231.099 240.555L249.075 230.111L260.671 236.808L279.348 225.949V212.523L331.632 182.147H331.776V162.486L310.435 169.853ZM246.076 206.862L218.579 190.917L284.899 184.235L246.076 206.862Z" fill="#606060"/>
<path d="M267.768 199.542L279.364 206.24L260.686 217.098L249.091 210.401L231.115 220.846L209.423 208.328L227.399 197.884L179.549 170.314L201.113 157.781L306.383 147.751L331.76 162.342L267.768 199.542ZM246.076 187.025L284.899 164.478L218.515 171.144L246.012 187.089" fill="#4AA4E8"/>
<path style="mix-blend-mode:multiply" opacity="0.63" d="M104.727 231.099L60.498 256.914L99.4001 280.546L142.736 255.144C129.593 247.81 116.435 240.427 104.727 231.099Z" fill="url(#paint3_linear_237_34924)"/>
<path style="mix-blend-mode:multiply" opacity="0.63" d="M358.588 376.633L314.358 402.449L353.26 426.064L396.596 400.663C383.454 393.392 370.343 386.009 358.588 376.633Z" fill="url(#paint4_linear_237_34924)"/>
<path d="M124.091 266.147L159.659 245.051C160.458 244.58 161.122 243.913 161.591 243.113C162.059 242.313 162.314 241.407 162.334 240.48C162.353 239.553 162.135 238.637 161.7 237.819C161.266 237 160.629 236.306 159.851 235.803L130.455 216.668C128.963 215.679 127.212 215.152 125.422 215.152C123.633 215.152 121.882 215.679 120.39 216.668L85.4598 240.172C84.7015 240.683 84.0845 241.377 83.6656 242.19C83.2468 243.002 83.0398 243.908 83.0636 244.822C83.0875 245.736 83.3415 246.629 83.8021 247.419C84.2627 248.208 84.9152 248.869 85.699 249.34L113.516 266.131C115.113 267.087 116.939 267.593 118.801 267.596C120.663 267.599 122.49 267.098 124.091 266.147Z" fill="#B24800"/>
<path d="M124.091 262.957L159.659 241.861C160.458 241.391 161.122 240.724 161.591 239.924C162.059 239.124 162.314 238.217 162.334 237.291C162.353 236.364 162.135 235.448 161.7 234.629C161.266 233.811 160.629 233.117 159.851 232.613L130.455 213.478C128.963 212.49 127.212 211.962 125.422 211.962C123.633 211.962 121.882 212.49 120.39 213.478L85.4598 236.982C84.7015 237.493 84.0845 238.187 83.6656 239C83.2468 239.813 83.0398 240.718 83.0636 241.632C83.0875 242.546 83.3415 243.439 83.8021 244.229C84.2627 245.019 84.9152 245.68 85.699 246.151L113.5 262.83C115.089 263.806 116.913 264.333 118.778 264.356C120.642 264.378 122.479 263.895 124.091 262.957Z" fill="#DF5D00"/>
<path d="M118.173 178.431L99.2884 238.147C99.2884 238.147 94.6789 253.295 123.006 251.764C151.333 250.233 147.601 236.169 147.601 236.169L128.7 178.431" fill="#FF8522"/>
<path d="M111.171 200.547C111.171 200.547 114.919 204.422 123.548 204.422C134.331 204.422 135.479 199.112 135.479 199.112L139.435 211.183C139.435 211.183 136.596 217.991 123.485 217.768C111.682 217.577 107.056 213.335 107.056 213.335" fill="white"/>
<path d="M104.153 223.301C109.279 228.261 116.161 230.99 123.293 230.892C137.313 230.732 142.577 220.766 142.577 220.766L146.74 233.523C146.74 233.523 140.727 242.851 123.437 244.094C107.136 245.258 100.134 236.122 100.134 236.122" fill="white"/>
<g style="mix-blend-mode:multiply" opacity="0.15">
<path d="M122.24 178.909H118.205L99.3203 238.593C99.3203 238.593 95.0297 252.72 120.231 252.306C120.773 227.814 122.001 203.353 122.24 178.909Z" fill="#FF8522"/>
</g>
<path d="M123.548 181.954C126.517 181.954 128.924 180.576 128.924 178.877C128.924 177.177 126.517 175.799 123.548 175.799C120.58 175.799 118.173 177.177 118.173 178.877C118.173 180.576 120.58 181.954 123.548 181.954Z" fill="#FF9F57"/>
<path d="M372.656 415.7L408.224 394.604C409.023 394.133 409.687 393.466 410.156 392.666C410.624 391.866 410.879 390.96 410.899 390.033C410.918 389.107 410.7 388.191 410.265 387.372C409.831 386.553 409.194 385.859 408.416 385.356L379.02 366.221C377.528 365.232 375.777 364.705 373.987 364.705C372.197 364.705 370.447 365.232 368.955 366.221L334.025 389.725C333.266 390.236 332.649 390.93 332.231 391.743C331.812 392.556 331.605 393.461 331.629 394.375C331.652 395.289 331.906 396.182 332.367 396.972C332.828 397.762 333.48 398.423 334.264 398.894L362.065 415.668C363.663 416.63 365.491 417.14 367.356 417.146C369.221 417.152 371.052 416.652 372.656 415.7Z" fill="#B24800"/>
<path d="M372.656 412.495L408.224 391.399C409.023 390.928 409.687 390.261 410.156 389.461C410.624 388.661 410.879 387.755 410.899 386.828C410.918 385.902 410.7 384.986 410.265 384.167C409.831 383.348 409.194 382.654 408.416 382.151L379.02 363.016C377.528 362.027 375.777 361.5 373.987 361.5C372.197 361.5 370.447 362.027 368.955 363.016L334.025 386.52C333.266 387.031 332.649 387.725 332.231 388.538C331.812 389.351 331.605 390.256 331.629 391.17C331.652 392.084 331.906 392.977 332.367 393.767C332.828 394.557 333.48 395.217 334.264 395.688L362.065 412.479C363.664 413.438 365.493 413.946 367.358 413.949C369.223 413.952 371.054 413.449 372.656 412.495Z" fill="#DF5D00"/>
<path d="M366.738 327.984L347.853 387.7C347.853 387.7 343.244 402.848 371.571 401.317C399.898 399.786 396.166 385.723 396.166 385.723L377.281 327.984" fill="#FF8522"/>
<path d="M359.736 350.1C359.736 350.1 363.484 353.975 372.113 353.975C382.896 353.975 384.044 348.665 384.044 348.665L388 360.736C388 360.736 385.16 367.545 372.05 367.321C360.247 367.13 355.621 362.888 355.621 362.888" fill="white"/>
<path d="M352.734 372.854C357.86 377.813 364.741 380.542 371.874 380.444C385.894 380.284 391.157 370.318 391.157 370.318L395.32 383.075C395.32 383.075 389.307 392.403 372.017 393.647C355.716 394.811 348.714 385.674 348.714 385.674" fill="white"/>
<g style="mix-blend-mode:multiply" opacity="0.15">
<path d="M370.821 328.43H366.77L347.885 388.146C347.885 388.146 343.595 402.273 368.796 401.859C369.338 377.366 370.566 352.906 370.821 328.43Z" fill="#FF8522"/>
</g>
<path d="M372.113 331.508C375.082 331.508 377.488 330.13 377.488 328.43C377.488 326.73 375.082 325.353 372.113 325.353C369.144 325.353 366.738 326.73 366.738 328.43C366.738 330.13 369.144 331.508 372.113 331.508Z" fill="#FF9F57"/>
<defs>
<linearGradient id="paint0_linear_237_34924" x1="207.222" y1="242.42" x2="225.285" y2="199.619" gradientUnits="userSpaceOnUse">
<stop stop-color="white" stop-opacity="0"/>
<stop offset="0.98" stop-color="#84210B"/>
</linearGradient>
<linearGradient id="paint1_linear_237_34924" x1="305.283" y1="303.124" x2="321.687" y2="264.262" gradientUnits="userSpaceOnUse">
<stop stop-color="white" stop-opacity="0"/>
<stop offset="0.98" stop-color="#84210B"/>
</linearGradient>
<linearGradient id="paint2_linear_237_34924" x1="403.136" y1="355.314" x2="417.213" y2="321.954" gradientUnits="userSpaceOnUse">
<stop stop-color="white" stop-opacity="0"/>
<stop offset="0.98" stop-color="#84210B"/>
</linearGradient>
<linearGradient id="paint3_linear_237_34924" x1="91.5846" y1="269.99" x2="102.953" y2="254.153" gradientUnits="userSpaceOnUse">
<stop stop-color="white" stop-opacity="0"/>
<stop offset="0.98" stop-color="#84210B"/>
</linearGradient>
<linearGradient id="paint4_linear_237_34924" x1="344.169" y1="417.725" x2="352.699" y2="405.556" gradientUnits="userSpaceOnUse">
<stop stop-color="white" stop-opacity="0"/>
<stop offset="0.98" stop-color="#84210B"/>
</linearGradient>
</defs>
</svg>
