<svg width="632" height="474" viewBox="0 0 632 474" fill="none" xmlns="http://www.w3.org/2000/svg">
<path d="M466.937 352.925C467.944 353.533 468.778 354.388 469.361 355.409C469.944 356.43 470.257 357.583 470.27 358.759C470.282 359.935 469.994 361.094 469.433 362.128C468.872 363.161 468.057 364.034 467.064 364.664L308.542 453.634C305.356 455.418 301.759 456.341 298.107 456.31C294.455 456.28 290.874 455.297 287.718 453.46L138.171 366.718C137.023 366.053 136.07 365.098 135.407 363.949C134.745 362.799 134.396 361.496 134.396 360.169C134.396 358.842 134.745 357.539 135.407 356.389C136.07 355.24 137.023 354.285 138.171 353.62L297.261 261.98C298.908 261.035 300.774 260.537 302.673 260.537C304.572 260.537 306.437 261.035 308.084 261.98L466.937 352.925Z" fill="#5FAD00"/>
<path style="mix-blend-mode:multiply" d="M282.82 353.114C259.547 366.686 242.909 375.803 207.106 396.248C234.203 412.712 255.202 427.848 258.251 429.649L338.673 382.36C332.416 379.2 311.75 367.445 282.82 353.114Z" fill="url(#paint0_linear_228_2051)"/>
<path d="M504.589 325.038V148.52C504.608 147.245 504.287 145.987 503.66 144.876C503.032 143.766 502.12 142.842 501.018 142.2C486.356 133.684 320.234 39.595 287.987 21.3302C287.33 20.9586 286.567 20.8194 285.822 20.9352C285.781 20.9194 285.736 20.9194 285.696 20.9352C283.121 22.0264 280.615 23.2716 278.191 24.664C279.57 25.6374 281.249 26.0908 282.931 25.9438V40.0532L283.341 207.249C283.341 210.598 422.381 287.228 425.273 288.903L495.362 328.798C493.086 330.536 491.838 333.301 493.229 333.538C495.093 333.886 499.138 331.579 501.35 330.204C501.9 329.968 502.407 329.642 502.851 329.241C503.435 328.713 503.894 328.062 504.194 327.335C504.495 326.608 504.63 325.824 504.589 325.038Z" fill="#8805FA"/>
<path d="M504.589 325.038V148.52C504.608 147.245 504.287 145.987 503.66 144.876C503.032 143.766 502.12 142.842 501.018 142.2C486.356 133.684 320.234 39.595 287.987 21.3302C287.33 20.9586 286.567 20.8194 285.822 20.9352C285.781 20.9194 285.736 20.9194 285.696 20.9352C283.121 22.0264 280.615 23.2716 278.191 24.664C279.57 25.6374 281.249 26.0908 282.931 25.9438V40.0532L283.341 207.249C283.341 210.598 422.381 287.228 425.273 288.903L495.362 328.798C493.086 330.536 491.838 333.301 493.229 333.538C495.093 333.886 499.138 331.579 501.35 330.204C501.9 329.968 502.407 329.642 502.851 329.241C503.435 328.713 503.894 328.062 504.194 327.335C504.495 326.608 504.63 325.824 504.589 325.038Z" fill="#297600"/>
<path d="M276.863 27.1764C276.904 26.5974 277.09 26.038 277.404 25.5501C277.719 25.0623 278.152 24.6618 278.662 24.386C279.173 24.1101 279.745 23.9678 280.326 23.9723C280.906 23.9767 281.476 24.1278 281.982 24.4114C314.246 42.6604 480.32 136.765 495.03 145.281C496.132 145.923 497.044 146.847 497.671 147.958C498.299 149.068 498.62 150.326 498.601 151.601V328.024C498.869 331.627 494.793 334.96 491.475 333.064L419.206 291.984C416.298 290.325 277.274 213.68 277.274 210.33L276.863 43.1344V27.1764Z" fill="#8805FA"/>
<path d="M298.683 138.724V204.61L381.017 252.137V186.187L298.683 138.724Z" fill="white"/>
<path d="M385.346 189.221V255.107L467.664 302.634V236.7L385.346 189.221Z" fill="white"/>
<path d="M298.683 66.3916V132.278L381.017 179.804V113.855L298.683 66.3916Z" fill="white"/>
<path d="M385.346 115.562V181.448L467.664 228.974V163.041L385.346 115.562Z" fill="white"/>
<path d="M386.883 105.551C388.817 105.046 389.692 101.988 388.839 98.7204C387.985 95.4531 385.726 93.2138 383.792 93.7188C381.859 94.2239 380.984 97.282 381.837 100.549C382.691 103.817 384.95 106.056 386.883 105.551Z" fill="#34323D"/>
<path d="M344.562 132.448C349.527 130.681 351.449 123.337 348.854 116.045C346.259 108.753 340.13 104.274 335.164 106.041C330.199 107.809 328.277 115.153 330.872 122.445C333.467 129.737 339.597 134.215 344.562 132.448Z" fill="#5FAD00"/>
<path d="M316.758 142.706C316.758 142.706 322.146 124.346 335.876 128.344C349.607 132.341 358.265 143.733 358.265 166.975" fill="#5FAD00"/>
<path d="M430.093 181.508C435.058 179.741 436.98 172.397 434.385 165.105C431.79 157.813 425.661 153.334 420.695 155.102C415.73 156.869 413.808 164.213 416.403 171.505C418.998 178.797 425.127 183.275 430.093 181.508Z" fill="#5FAD00"/>
<path d="M402.315 191.749C402.315 191.749 407.703 173.389 421.433 177.387C435.164 181.384 443.822 192.76 443.822 216.034" fill="#5FAD00"/>
<path d="M341.43 202.591C346.396 200.824 348.318 193.48 345.722 186.188C343.127 178.896 336.998 174.417 332.033 176.185C327.067 177.952 325.146 185.296 327.741 192.588C330.336 199.88 336.465 204.358 341.43 202.591Z" fill="#5FAD00"/>
<path d="M313.646 212.842C313.646 212.842 319.034 194.483 332.764 198.48C346.494 202.477 355.152 213.869 355.152 237.111" fill="#5FAD00"/>
<path d="M424.372 251.292C429.338 249.525 431.259 242.181 428.664 234.889C426.069 227.597 419.94 223.119 414.974 224.886C410.009 226.653 408.087 233.997 410.682 241.289C413.277 248.581 419.407 253.06 424.372 251.292Z" fill="#5FAD00"/>
<path d="M396.58 261.554C396.58 261.554 401.968 243.194 415.698 247.191C429.428 251.189 438.087 262.581 438.087 285.822" fill="#5FAD00"/>
<path d="M302.001 299.647C295.191 294.907 287.181 292.284 278.522 294.196C269.295 296.219 261.316 302.096 251.915 303.439C250.43 303.66 244.505 303.281 243.589 304.134C217.44 328.877 290.53 326.254 290.53 326.254C297.625 320.44 304.308 314.72 311.339 308.874C309.222 304.071 305.651 302.207 302.001 299.647Z" fill="#F8997C"/>
<path d="M267.589 335.529L264.997 410.184C264.903 413.012 269.295 413.012 269.39 410.184L271.981 335.529C272.092 332.685 267.699 332.701 267.589 335.529Z" fill="#F8997C"/>
<path d="M322.399 375.472C309.085 362.442 296.366 348.849 284.242 334.692C282.393 332.543 279.297 335.656 281.082 337.852C293.195 351.998 305.914 365.591 319.239 378.632C321.309 380.559 324.437 377.447 322.399 375.472Z" fill="#F8997C"/>
<path d="M252.342 328.64C242.009 348.148 232.276 367.95 223.143 388.048C221.974 390.608 225.766 392.788 226.935 390.276C236.068 370.178 245.801 350.376 256.134 330.868C257.54 328.34 253.669 326.112 252.342 328.64Z" fill="#F8997C"/>
<path d="M317.959 281.999C317.959 281.999 327.439 283.942 329.604 286.075C331.768 288.208 335.228 297.135 334.265 299.837C333.301 302.539 330.583 298.257 329.414 296.55C328.032 294.737 326.545 293.006 324.958 291.368C321.835 291.849 318.639 291.427 315.747 290.151" fill="#FCBF81"/>
<path d="M321.135 362.847C322.51 361.441 323.394 359.893 322.92 358.36C322.083 355.611 318.354 354.505 315.81 354.647C313.267 354.789 310.612 356.085 308.037 356.859C305.336 357.828 302.454 358.184 299.599 357.902C299.138 357.84 298.716 357.609 298.414 357.254C297.622 357.065 296.892 356.675 296.294 356.122C295.696 355.568 295.251 354.87 295.002 354.094L286.549 351.061C286.549 351.061 284.4 368.946 284.4 370.21C285.032 379.848 299.426 374.35 299.426 374.35C299.426 374.35 299.931 369.989 300.073 369.404C300.216 368.82 305.73 370.526 307.973 370.179C309.027 369.885 310.025 369.421 310.928 368.804C312.634 367.872 314.294 366.861 315.953 365.849C317.612 364.838 319.413 363.874 321.135 362.847Z" fill="#E55600"/>
<path d="M289.598 296.898C286.438 297.214 283.278 297.625 280.118 298.067C281.435 318.355 282.894 338.626 284.495 358.882C292.711 362.247 296.045 360.683 301.148 355.469C302.112 336.13 303.818 315.874 303.755 296.345C299.015 296.551 294.307 296.756 289.598 296.898Z" fill="#34323D"/>
<path d="M255.407 291.337C255.407 291.337 254.048 313.536 265.203 318.497C276.358 323.458 299.252 320.977 310.501 314.373C316.324 310.828 322.433 307.778 328.766 305.256C328.766 305.256 331.658 295.539 324.642 291.337C317.627 287.134 302.112 281.951 288.302 291.337" fill="#34323D"/>
<path d="M304.355 230.364C304.705 229.529 305.117 228.721 305.588 227.947C305.601 227.996 305.628 228.04 305.667 228.073C305.679 228.137 305.711 228.195 305.757 228.239C305.804 228.284 305.863 228.314 305.926 228.324C305.99 228.334 306.055 228.325 306.113 228.297C306.171 228.269 306.219 228.224 306.251 228.168L307.152 226.809C307.121 226.987 307.121 227.169 307.152 227.347C307.224 227.679 307.419 227.972 307.697 228.168C307.974 228.364 308.316 228.449 308.653 228.405C308.851 228.391 309.043 228.333 309.216 228.236C309.388 228.139 309.538 228.005 309.652 227.843C309.767 227.682 309.845 227.497 309.88 227.302C309.914 227.106 309.906 226.906 309.854 226.715L310.265 226.241C310.243 226.377 310.243 226.515 310.265 226.651C310.327 226.842 310.436 227.013 310.582 227.149C310.729 227.286 310.907 227.383 311.101 227.432C311.295 227.481 311.499 227.48 311.692 227.429C311.886 227.378 312.063 227.279 312.208 227.141C312.366 227.015 312.508 226.857 312.65 226.715C312.775 226.769 312.909 226.796 313.045 226.796C313.181 226.796 313.316 226.769 313.44 226.715C314.6 226.32 315.734 225.856 316.837 225.324C316.76 225.291 316.692 225.24 316.639 225.175C316.586 225.11 316.549 225.033 316.532 224.951C316.515 224.869 316.518 224.784 316.541 224.703C316.564 224.622 316.606 224.548 316.664 224.487C317.966 223.433 319.344 222.477 320.787 221.627C320.838 221.584 320.897 221.552 320.961 221.532L321.04 221.39C321.378 220.295 321.3 219.113 320.819 218.072C321.167 217.648 321.415 217.15 321.544 216.617C321.672 216.083 321.678 215.527 321.562 214.991C321.446 214.983 321.335 214.939 321.246 214.865C321.04 214.689 320.864 214.481 320.724 214.248C320.47 213.932 320.272 213.574 320.14 213.19C320.107 213.094 320.106 212.989 320.138 212.893C320.169 212.796 320.231 212.712 320.313 212.653C319.776 211.942 319.144 211.262 318.591 210.63C319.945 208.324 320.588 205.669 320.44 202.999C320.427 202.749 320.335 202.51 320.177 202.317C320.019 202.124 319.803 201.986 319.561 201.924C319.319 201.862 319.064 201.88 318.832 201.973C318.601 202.067 318.406 202.233 318.275 202.446C317.744 203.285 317.264 204.156 316.837 205.053C316.698 205.144 316.583 205.269 316.506 205.416C314.222 210.106 311.685 214.669 308.906 219.083C308.432 219.826 302.586 227.789 303.313 227.979C303.265 228.342 298.525 239.26 304.355 230.364ZM307.768 226.999C307.768 226.999 307.768 226.999 307.768 226.92C307.798 226.954 307.834 226.981 307.875 226.999C307.916 227.018 307.96 227.027 308.005 227.027C308.05 227.027 308.094 227.018 308.135 226.999C308.176 226.981 308.212 226.954 308.242 226.92C308.384 227.022 308.547 227.092 308.719 227.125C308.891 227.158 309.068 227.153 309.238 227.11C309.225 227.319 309.13 227.515 308.973 227.654C308.816 227.794 308.61 227.865 308.4 227.852C308.191 227.84 307.995 227.744 307.855 227.587C307.716 227.43 307.645 227.224 307.658 227.015L307.768 226.999Z" fill="#FCBF81"/>
<path d="M304.94 227.82C306.207 226.851 307.279 225.65 308.1 224.281C308.255 223.994 308.466 223.741 308.72 223.537C308.975 223.333 309.268 223.182 309.582 223.094C309.896 223.006 310.224 222.981 310.548 223.022C310.871 223.063 311.183 223.169 311.465 223.333C311.556 222.694 311.604 222.05 311.608 221.405C311.608 218.119 316.774 218.072 316.711 221.405C316.827 223.985 316.137 226.536 314.736 228.705C313.19 230.661 311.306 232.325 309.174 233.619C308.798 233.83 308.376 233.945 307.945 233.953C307.514 233.962 307.088 233.865 306.703 233.669C306.319 233.474 305.989 233.187 305.742 232.834C305.495 232.481 305.339 232.072 305.288 231.644L305.066 231.47C304.818 231.239 304.617 230.961 304.476 230.653C304.335 230.344 304.256 230.011 304.244 229.671C304.233 229.332 304.288 228.994 304.407 228.676C304.527 228.359 304.708 228.068 304.94 227.82Z" fill="#FCBF81"/>
<path d="M313.172 229.78C315.315 228.369 316.858 226.212 317.501 223.728C317.52 223.763 317.547 223.793 317.578 223.817C317.61 223.841 317.647 223.858 317.685 223.867C317.724 223.876 317.764 223.876 317.803 223.869C317.842 223.861 317.879 223.846 317.912 223.823L319.95 222.448C320.381 222.2 320.77 221.886 321.103 221.516C321.846 220.568 321.103 219.478 320.803 218.498C320.781 218.441 320.742 218.392 320.693 218.356L320.977 217.882C321.49 217.14 321.761 216.257 321.751 215.354C321.609 214.469 320.772 213.885 320.377 213.126C320.454 212.685 320.379 212.23 320.164 211.836C319.948 211.443 319.605 211.134 319.192 210.962C318.101 210.472 317.501 211.294 316.916 212.099C315.663 213.806 314.478 215.56 313.361 217.361C313.14 217.708 313.709 218.024 313.914 217.677C314.53 216.697 315.147 215.733 315.794 214.785C316.334 213.731 317.026 212.762 317.849 211.91C320.124 210.598 319.681 213.743 319.318 214.548C319.097 215.022 318.828 215.465 318.559 215.923L316.837 218.957C316.818 218.996 316.808 219.039 316.808 219.083C316.808 219.127 316.818 219.17 316.837 219.209C317.341 221.073 317.231 223.05 316.522 224.846C315.813 226.642 314.544 228.162 312.903 229.179C312.492 229.464 312.84 230.017 313.172 229.78ZM317.801 219.399C317.753 219.364 317.695 219.346 317.635 219.346C317.576 219.346 317.518 219.364 317.469 219.399V219.194C318.604 217.58 319.538 215.835 320.25 213.995C320.408 214.201 320.566 214.39 320.724 214.612C320.952 214.919 321.084 215.287 321.104 215.669C321.124 216.052 321.03 216.431 320.835 216.76C320.376 217.756 319.16 220.189 317.785 219.399H317.801ZM317.596 223.286C317.799 222.2 317.799 221.085 317.596 219.999C318.686 220.537 319.618 219.826 320.298 218.925C320.49 219.331 320.644 219.754 320.756 220.189C320.809 220.468 320.772 220.756 320.65 221.012C320.528 221.268 320.327 221.478 320.076 221.611C319.255 222.196 318.402 222.78 317.58 223.27L317.596 223.286Z" fill="#34323D"/>
<path d="M276.69 240.081C276.69 240.081 291.589 240.792 295.476 237.222C299.363 233.651 304.956 222.417 304.956 222.417C304.956 222.417 315.226 229.021 315.731 232.813C316.237 236.605 305.003 254.933 300.01 256.213" fill="#BA3E00"/>
<path d="M346.905 376.751C348.279 375.345 349.164 373.797 348.69 372.264C347.853 369.515 344.124 368.409 341.58 368.551C339.036 368.693 336.382 369.989 333.806 370.763C331.106 371.732 328.224 372.089 325.369 371.806C324.908 371.744 324.485 371.514 324.184 371.158C323.392 370.969 322.661 370.579 322.064 370.026C321.466 369.472 321.021 368.774 320.771 367.998L312.303 364.98C312.303 364.98 310.138 382.85 310.217 384.098C310.849 393.736 325.243 388.238 325.243 388.238C325.243 388.238 325.748 383.877 325.891 383.293C326.033 382.708 331.547 384.414 333.791 384.067C334.844 383.774 335.842 383.309 336.745 382.692C338.452 381.76 340.111 380.749 341.77 379.738C343.429 378.726 345.198 377.778 346.905 376.751Z" fill="#E55600"/>
<path d="M314.42 291.874C311.513 290.499 308.463 290.641 304.94 290.657C305.43 297.799 305.161 300.374 305.604 307.516L305.73 309.412C307.089 330.552 308.637 351.677 310.28 372.785C318.496 376.151 321.83 374.587 326.934 369.373C328.071 346.873 330.188 323.11 329.367 300.722C324.579 296.029 320.361 294.702 314.42 291.874Z" fill="#34323D"/>
<path d="M255.202 286.739C255.202 287.292 255.312 289.125 255.391 291.336C260.005 297.42 265.661 300.99 274.525 300.722C281.698 300.516 287.686 297.372 293.311 293.501C292.616 280.498 290.515 258.299 287.228 242.815C286.944 241.503 283.547 240.634 282.488 240.081C280.15 238.801 281.524 236.605 279.233 235.231C275.912 233.3 272.453 231.615 268.884 230.191H268.79C263.07 230.112 253.227 234.504 252.642 242.151C251.741 253.922 253.037 261 253.953 272.74C254.38 277.48 254.807 282.141 255.202 286.739Z" fill="#E55600"/>
<path d="M275.094 207.928C275.852 208.118 282.188 222.717 279.707 231.628C277.227 240.54 262.169 231.376 258.377 224.629C254.585 217.882 260.858 204.231 275.094 207.928Z" fill="#FCBF81"/>
<path d="M274.92 209.967C274.92 209.967 274.92 214.786 270.717 216.287C266.514 217.788 263.007 218.894 263.228 220.837C263.449 222.78 270.844 220.568 270.875 225.024C270.88 228.03 270.476 231.022 269.674 233.919C269.216 236.1 256.56 229.401 252.389 217.977C248.218 206.554 258.709 203.52 259.167 203.441C259.626 203.362 260.621 200.281 265.74 199.144C270.859 198.006 272.297 200.013 272.297 200.013C273.46 199.311 274.82 199.011 276.17 199.156C277.519 199.302 278.784 199.886 279.771 200.818C284.511 204.563 283.294 211.404 277.954 214.185L274.92 209.967Z" fill="#34323D"/>
<path d="M277.511 255.218C277.511 255.218 293.169 283.816 301.827 286.28C308.039 287.903 314.385 288.961 320.787 289.44C320.787 289.44 321.862 281.54 320.787 278.096C320.787 278.096 306.931 271.855 305.572 268.11C304.213 264.366 292.537 238.09 279.281 235.31" fill="#E55600"/>
<path d="M291.921 277.448C290.957 276.216 280.102 263.923 280.102 263.923L293.153 290.72L291.921 277.448Z" fill="#34323D"/>
<path d="M310.344 308.353C306.276 314.033 300.512 318.276 293.88 320.472C284.574 323.3 271.033 321.973 266.151 312.24C257.256 294.528 265.614 272.376 256.213 255.154C255.129 252.978 253.597 251.055 251.718 249.511C249.84 247.967 247.656 246.837 245.311 246.196C239.212 244.869 235.041 249.435 232.829 254.823C228.863 264.476 229.005 276.516 229.211 286.786C229.219 295.098 229.821 303.398 231.012 311.624C231.012 311.624 236.7 346.131 281.098 336.904C288.782 335.509 296.162 332.776 302.902 328.83C306.364 326.816 309.389 324.13 311.797 320.93C314.42 317.027 312.682 312.335 310.344 308.353Z" fill="#8805FA"/>
<path d="M162.851 320.851C156.693 328.744 153.686 338.643 154.413 348.627C155.535 364.838 164.668 369.547 164.668 369.547L175.538 370.147C175.538 370.147 188.462 365.928 186.772 344.867C185.192 325.07 178.745 320.424 178.745 320.424" fill="#8805FA"/>
<path d="M170.861 323.679C175.277 323.679 178.856 322.413 178.856 320.851C178.856 319.289 175.277 318.022 170.861 318.022C166.446 318.022 162.866 319.289 162.866 320.851C162.866 322.413 166.446 323.679 170.861 323.679Z" fill="#003B94"/>
<path d="M170.861 370.652C175.277 370.652 178.856 369.386 178.856 367.824C178.856 366.262 175.277 364.996 170.861 364.996C166.446 364.996 162.866 366.262 162.866 367.824C162.866 369.386 166.446 370.652 170.861 370.652Z" fill="#8805FA"/>
<path d="M167.575 321.704L157.889 266.151C157.684 264.935 155.835 265.456 156.041 266.657L165.726 322.21C165.9 323.426 167.78 322.921 167.575 321.704Z" fill="#007F68"/>
<path d="M169.328 321.893C169.621 321.836 169.921 321.836 170.213 321.893C170.597 321.991 170.943 322.2 171.209 322.494C171.978 306.978 172.115 291.452 171.619 275.916C171.619 274.683 169.676 274.683 169.708 275.916C170.203 291.252 170.076 306.578 169.328 321.893Z" fill="#007F68"/>
<path d="M191.101 267.984C183.884 285.416 177.639 303.234 172.394 321.356C172.356 321.591 172.406 321.831 172.535 322.031C172.664 322.231 172.862 322.376 173.091 322.439C173.32 322.502 173.565 322.478 173.777 322.371C173.99 322.265 174.155 322.083 174.242 321.862C179.488 303.739 185.733 285.921 192.95 268.49C193.408 267.368 191.559 266.862 191.101 267.984Z" fill="#007F68"/>
<path d="M159.959 289.14C159.959 289.14 158.916 289.014 154.35 284.21C149.784 279.407 155.551 275.789 152.912 270.385C150.274 264.982 154.003 257.872 154.84 252.468C155.354 256.257 156.726 259.877 158.853 263.054C162.298 267.984 164.225 272.439 163.862 278.696C163.607 282.644 162.929 286.553 161.839 290.357" fill="#5FAD00"/>
<path d="M169.755 297.641C169.755 297.641 168.776 297.261 165.505 291.479C162.234 285.696 168.665 283.579 167.464 277.717C166.263 271.855 171.556 265.851 173.689 260.795C173.268 264.597 173.722 268.445 175.017 272.045C177.165 277.669 177.94 282.441 176.075 288.429C174.886 292.196 173.297 295.824 171.335 299.252" fill="#5FAD00"/>
<path d="M183.406 287.56C183.406 287.56 182.522 286.992 180.515 280.672C178.508 274.352 185.255 273.625 185.255 267.589C185.255 261.554 191.686 256.814 194.735 252.311C193.542 255.945 193.197 259.803 193.724 263.592C194.672 269.533 194.466 274.367 191.401 279.85C189.445 283.29 187.125 286.511 184.481 289.456" fill="#5FAD00"/>
<path d="M516.297 114.155V162.74C516.291 163.478 516.094 164.202 515.724 164.841C515.354 165.479 514.824 166.01 514.186 166.382C513.548 166.753 512.824 166.952 512.086 166.959C511.348 166.966 510.621 166.781 509.977 166.421L460.017 137.618C459.369 137.246 458.831 136.71 458.457 136.064C458.082 135.417 457.885 134.684 457.884 133.937V85.3201C457.889 84.582 458.087 83.8581 458.457 83.2195C458.827 82.5809 459.357 82.0497 459.995 81.6782C460.633 81.3067 461.356 81.1077 462.094 81.1008C462.832 81.0938 463.559 81.2792 464.204 81.6387L514.1 110.442C514.764 110.809 515.318 111.346 515.704 111.999C516.091 112.652 516.295 113.397 516.297 114.155Z" fill="#FFBE30"/>
<path d="M457.884 125.057V147.383L473.005 138.724L457.884 125.057Z" fill="#FFBE30"/>
<path d="M287.039 117.9V166.469C287.033 167.207 286.836 167.931 286.466 168.57C286.095 169.208 285.565 169.739 284.928 170.111C284.29 170.482 283.566 170.681 282.828 170.688C282.09 170.695 281.363 170.51 280.719 170.15L230.775 141.363C230.127 140.991 229.589 140.455 229.214 139.808C228.84 139.162 228.642 138.428 228.642 137.681V89.0965C228.647 88.3584 228.844 87.6344 229.215 86.9959C229.585 86.3573 230.115 85.8261 230.753 85.4546C231.39 85.0831 232.114 84.8841 232.852 84.8771C233.59 84.8702 234.317 85.0556 234.962 85.4151L284.858 114.218C285.515 114.584 286.062 115.118 286.445 115.765C286.828 116.411 287.033 117.148 287.039 117.9Z" fill="#FFBE30"/>
<path d="M275.173 166.99L296.566 178.777L285.869 153.876" fill="#FFBE30"/>
<path d="M467.869 108.451L504.857 129.402C505.392 129.625 505.989 129.645 506.537 129.457C507.085 129.27 507.545 128.888 507.831 128.385C508.117 127.881 508.208 127.291 508.089 126.724C507.969 126.158 507.645 125.655 507.18 125.31L470.271 104.359C469.73 104.07 469.098 104.001 468.507 104.168C467.917 104.335 467.414 104.725 467.105 105.255C466.796 105.785 466.704 106.415 466.85 107.011C466.996 107.607 467.367 108.123 467.885 108.451H467.869Z" fill="#F2F2F2"/>
<path d="M466.937 120.886L503.925 141.821C504.466 142.111 505.098 142.179 505.689 142.012C506.279 141.845 506.782 141.456 507.091 140.925C507.4 140.395 507.492 139.766 507.346 139.17C507.201 138.573 506.83 138.057 506.311 137.729L469.26 116.794C468.719 116.504 468.087 116.436 467.496 116.603C466.906 116.77 466.403 117.159 466.094 117.69C465.785 118.22 465.693 118.849 465.839 119.445C465.984 120.041 466.355 120.558 466.874 120.886H466.937Z" fill="#F2F2F2"/>
<path d="M236.874 110.158L277.448 133.115C277.989 133.405 278.621 133.474 279.212 133.307C279.802 133.14 280.305 132.75 280.614 132.22C280.923 131.69 281.015 131.06 280.869 130.464C280.724 129.868 280.352 129.351 279.834 129.023L239.259 106.066C238.718 105.776 238.086 105.708 237.496 105.875C236.905 106.042 236.402 106.431 236.093 106.961C235.784 107.492 235.693 108.121 235.838 108.717C235.984 109.313 236.355 109.83 236.874 110.158Z" fill="#F2F2F2"/>
<path d="M235.847 123.778L276.421 146.751C276.962 147.041 277.594 147.109 278.185 146.942C278.775 146.775 279.278 146.385 279.587 145.855C279.896 145.325 279.988 144.696 279.842 144.099C279.696 143.503 279.325 142.987 278.807 142.659L238.232 119.685C237.691 119.396 237.059 119.327 236.468 119.494C235.878 119.661 235.375 120.051 235.066 120.581C234.757 121.111 234.666 121.741 234.811 122.337C234.957 122.933 235.328 123.45 235.847 123.778Z" fill="#F2F2F2"/>
<defs>
<linearGradient id="paint0_linear_228_2051" x1="297.814" y1="374.444" x2="238.217" y2="410.042" gradientUnits="userSpaceOnUse">
<stop stop-color="#808080"/>
<stop offset="1" stop-color="white"/>
</linearGradient>
</defs>
</svg>
