<svg width="48" height="48" viewBox="0 0 48 48" fill="none" xmlns="http://www.w3.org/2000/svg">
<path d="M16.5334 21.5503L21.5501 16.4753L18.2834 13.1503L15.7168 15.717L12.4501 12.4503L14.9584 9.88366L12.3334 7.25866L7.25842 12.3337L16.5334 21.5503ZM35.6668 40.742L40.7418 35.667L38.1168 33.042L35.5501 35.5503L32.2834 32.2837L34.7918 29.717L31.4667 26.4503L26.4501 31.467L35.6668 40.742ZM12.9167 45.0003H3.00008V35.0837L13.2084 24.8753L0.666748 12.3337L12.3334 0.666992L24.9334 13.267L33.7418 4.40033C34.2084 3.93366 34.7334 3.58366 35.3167 3.35033C35.9001 3.11699 36.5029 3.00033 37.1251 3.00033C37.7473 3.00033 38.3501 3.11699 38.9334 3.35033C39.5168 3.58366 40.0418 3.93366 40.5084 4.40033L43.6001 7.55033C44.0667 8.01699 44.4168 8.54199 44.6501 9.12533C44.8834 9.70866 45.0001 10.3114 45.0001 10.9337C45.0001 11.5559 44.8834 12.1489 44.6501 12.7128C44.4168 13.2767 44.0667 13.792 43.6001 14.2587L34.7918 23.1253L47.3334 35.667L35.6668 47.3337L23.1251 34.792L12.9167 45.0003ZM7.66675 40.3337H10.9334L33.8001 17.5253L30.4751 14.2003L7.66675 37.067V40.3337Z" fill="#292B30"/>
</svg>
