<svg width="56" height="56" viewBox="0 0 56 56" fill="none" xmlns="http://www.w3.org/2000/svg">
<g clip-path="url(#clip0_192_265)">
<mask id="mask0_192_265" style="mask-type:alpha" maskUnits="userSpaceOnUse" x="0" y="0" width="56" height="56">
<rect width="56" height="56" fill="#D9D9D9"/>
</mask>
<g mask="url(#mask0_192_265)">
<path d="M32.025 49L16.3333 32.6667V28H24.5C26.5611 28 28.3403 27.3292 29.8375 25.9875C31.3347 24.6458 32.2389 22.9833 32.55 21H14V16.3333H31.85C31.1889 14.9722 30.2069 13.8542 28.9042 12.9792C27.6014 12.1042 26.1333 11.6667 24.5 11.6667H14V7H42V11.6667H34.4167C34.9611 12.3278 35.4472 13.0472 35.875 13.825C36.3028 14.6028 36.6333 15.4389 36.8667 16.3333H42V21H37.275C36.9639 24.3056 35.6028 27.0764 33.1917 29.3125C30.7806 31.5486 27.8833 32.6667 24.5 32.6667H22.8083L38.5 49H32.025Z" fill="#292B30"/>
</g>
</g>
<defs>
<clipPath id="clip0_192_265">
<rect width="56" height="56" fill="white"/>
</clipPath>
</defs>
</svg>
