<svg width="632" height="474" viewBox="0 0 632 474" fill="none" xmlns="http://www.w3.org/2000/svg">
<path d="M310.059 455.989L37.5092 294.908C28.835 290.041 21.3932 282.031 29.8462 276.801L303.36 119.148C307.468 116.605 313.693 114.946 317.864 117.363L604.002 283.405C612.677 288.445 614.241 302.523 605.582 307.564L346.02 455.736C340.566 458.903 334.38 460.592 328.073 460.637C321.766 460.681 315.557 459.079 310.059 455.989Z" fill="#CB9BEA"/>
<path style="mix-blend-mode:multiply" d="M237.474 275.679L199.807 298.004C199.807 298.004 238.185 365.802 266.957 377.889L340.316 338.389L298.114 273.814L237.474 275.679Z" fill="url(#paint0_linear_228_2316)"/>
<path style="mix-blend-mode:multiply" d="M378.363 373.639C364.522 381.539 336.382 393.689 322.668 401.715C334.422 412.354 347.91 420.904 362.547 426.995L414.276 395.917L378.363 373.639Z" fill="url(#paint1_linear_228_2316)"/>
<path style="mix-blend-mode:multiply" d="M480.178 351.282L546.127 313.883L510.846 297.957L454.487 329.352C462.651 337.117 471.227 344.438 480.178 351.282Z" fill="url(#paint2_linear_228_2316)"/>
<path d="M510.703 269.406C510.703 269.406 503.609 317.849 534.119 318.007C563.412 318.165 555.86 268.821 555.86 268.821C555.86 268.821 534.561 250.288 510.703 269.406Z" fill="#8805FA"/>
<path opacity="0.15" d="M510.703 269.406C510.703 269.406 503.609 317.849 534.119 318.007C563.412 318.165 555.86 268.821 555.86 268.821C555.86 268.821 534.561 250.288 510.703 269.406Z" fill="black"/>
<path d="M533.203 278.712C545.655 278.712 555.749 274.545 555.749 269.406C555.749 264.266 545.655 260.1 533.203 260.1C520.75 260.1 510.656 264.266 510.656 269.406C510.656 274.545 520.75 278.712 533.203 278.712Z" fill="#8805FA"/>
<path opacity="0.7" d="M533.203 278.712C545.655 278.712 555.749 274.545 555.749 269.406C555.749 264.266 545.655 260.1 533.203 260.1C520.75 260.1 510.656 264.266 510.656 269.406C510.656 274.545 520.75 278.712 533.203 278.712Z" fill="black"/>
<path d="M497.7 198.669C497.7 198.669 481.995 194.893 488.015 181.826C488.046 181.826 498.853 183.959 497.7 198.669Z" fill="#297600"/>
<path d="M507.291 211.846C507.291 211.846 505.11 200.676 513.848 196.173C513.832 196.173 520.847 207.881 507.291 211.846Z" fill="#297600"/>
<path d="M517.071 228.99C517.071 228.99 514.464 215.623 524.971 210.235C524.908 210.22 533.297 224.234 517.071 228.99Z" fill="#297600"/>
<path d="M524.671 247.649C524.671 247.649 522.064 234.282 532.571 228.895C532.46 228.879 540.897 242.878 524.671 247.649Z" fill="#297600"/>
<path d="M506.327 212.162C506.327 212.162 500.781 202.224 491.206 204.404C491.206 204.404 493.402 217.866 506.327 212.162Z" fill="#297600"/>
<path d="M516.265 229.4C516.265 229.4 509.171 217.772 497.826 220.837C497.826 220.837 501.065 236.826 516.265 229.4Z" fill="#297600"/>
<path d="M523.802 247.808C523.802 247.808 515.475 237.032 504.526 241.33C504.526 241.33 509.518 256.861 523.802 247.808Z" fill="#297600"/>
<path d="M529.663 278.823H529.869C530.605 278.806 531.341 278.864 532.065 278.996C532.072 278.923 532.072 278.849 532.065 278.775C528.628 248.887 516.893 220.558 498.19 196.994C497.21 195.762 495.488 197.5 496.452 198.732C514.749 221.804 526.24 249.525 529.632 278.775L529.663 278.823Z" fill="#42352F"/>
<path d="M566.857 219.999C566.857 219.999 580.334 216.839 575.167 205.542C575.12 205.558 565.877 207.391 566.857 219.999Z" fill="#297600"/>
<path d="M558.656 231.312C558.656 231.312 560.521 221.737 553.032 217.866C553 217.866 547.028 227.899 558.656 231.312Z" fill="#297600"/>
<path d="M550.251 246.006C550.251 246.006 552.479 234.536 543.536 229.906C543.52 229.922 536.331 241.93 550.251 246.006Z" fill="#297600"/>
<path d="M543.741 262.011C543.741 262.011 545.969 250.541 537.026 245.911C537.026 245.927 529.821 257.935 543.741 262.011Z" fill="#297600"/>
<path d="M559.478 231.581C559.478 231.581 564.218 223.049 572.45 224.929C572.434 224.929 570.57 236.479 559.478 231.581Z" fill="#297600"/>
<path d="M550.962 246.37C550.962 246.37 557.045 236.4 566.762 239.023C566.778 239.023 564.06 252.8 550.962 246.37Z" fill="#297600"/>
<path d="M544.484 262.153C544.484 262.153 551.625 252.91 561.011 256.592C561.026 256.592 556.745 269.927 544.484 262.153Z" fill="#297600"/>
<path d="M566.43 218.578C552.541 236.072 543.102 256.674 538.922 278.618C539.633 278.507 540.376 278.396 541.103 278.333C545.265 257.036 554.476 237.048 567.963 220.047C568.8 219.02 567.22 217.519 566.43 218.578Z" fill="#42352F"/>
<path style="mix-blend-mode:multiply" d="M105.023 266.372L67.3553 288.697C67.3553 288.697 82.7919 306.172 111.595 318.275L158.269 288.397" fill="url(#paint3_linear_228_2316)"/>
<path d="M133.241 295.413C150.964 295.413 165.331 286.995 165.331 276.611C165.331 266.227 150.964 257.809 133.241 257.809C115.519 257.809 101.152 266.227 101.152 276.611C101.152 286.995 115.519 295.413 133.241 295.413Z" fill="#FF912E"/>
<path d="M101.152 276.611V271.191L104.643 275.521L101.152 276.611Z" fill="#E0944F"/>
<path d="M165.347 271.191V276.611H161.271L164.257 272.266L165.347 271.191Z" fill="#E0944F"/>
<path d="M133.241 289.994C150.964 289.994 165.331 281.576 165.331 271.192C165.331 260.808 150.964 252.39 133.241 252.39C115.519 252.39 101.152 260.808 101.152 271.192C101.152 281.576 115.519 289.994 133.241 289.994Z" fill="#FFB92C"/>
<path d="M149.515 268.6C149.737 269.039 149.825 269.534 149.768 270.022L149.642 270.528H143.78C143.833 270.363 143.87 270.194 143.891 270.022C143.87 269.64 143.75 269.27 143.543 268.948C143.215 268.379 142.718 267.926 142.121 267.652C141.27 267.207 140.331 266.959 139.372 266.926C138.479 266.858 137.582 266.993 136.749 267.321C135.927 267.668 135.611 268.126 135.801 268.695C136.077 269.391 136.503 270.017 137.049 270.528C137.68 271.171 138.271 271.852 138.819 272.566C139.08 272.874 139.248 273.25 139.304 273.65C139.36 274.05 139.301 274.458 139.135 274.826C138.492 275.888 137.479 276.676 136.291 277.038C134.322 277.858 132.214 278.298 130.081 278.333C127.778 278.409 125.479 278.082 123.287 277.369L119.922 278.823L115.972 276.895L119.243 275.489C118.651 275.099 118.119 274.625 117.663 274.083C117.326 273.697 117.064 273.253 116.888 272.772C116.776 272.429 116.707 272.073 116.683 271.713C116.643 271.467 116.643 271.216 116.683 270.97L116.794 270.686H122.766C122.706 270.883 122.658 271.083 122.624 271.286C122.651 271.765 122.816 272.226 123.098 272.614C123.578 273.318 124.254 273.867 125.041 274.194C126.098 274.727 127.256 275.028 128.438 275.078C129.516 275.153 130.597 274.98 131.598 274.573C132.409 274.225 132.715 273.767 132.515 273.198C132.225 272.498 131.783 271.872 131.219 271.365C130.575 270.73 129.979 270.049 129.434 269.327C129.176 269.013 129.015 268.631 128.97 268.227C128.925 267.823 128.998 267.415 129.181 267.052C129.879 265.971 130.937 265.171 132.167 264.793C134.066 264.114 136.076 263.798 138.092 263.86C140.242 263.794 142.386 264.132 144.412 264.856L147.777 263.418L151.49 265.44L148.125 266.894C148.716 267.346 149.192 267.93 149.515 268.6Z" fill="#EA8B24"/>
<path d="M133.305 287.197C148.183 287.197 160.244 280.13 160.244 271.413C160.244 262.696 148.183 255.629 133.305 255.629C118.427 255.629 106.366 262.696 106.366 271.413C106.366 280.13 118.427 287.197 133.305 287.197Z" stroke="#F7931E" stroke-width="6" stroke-miterlimit="10"/>
<path d="M133.241 285.064C150.964 285.064 165.331 276.646 165.331 266.262C165.331 255.878 150.964 247.46 133.241 247.46C115.519 247.46 101.152 255.878 101.152 266.262C101.152 276.646 115.519 285.064 133.241 285.064Z" fill="#FF912E"/>
<path d="M101.152 266.261V260.826L104.643 265.171L101.152 266.261Z" fill="#E0944F"/>
<path d="M165.347 260.826V266.261H161.271L164.257 261.901L165.347 260.826Z" fill="#E0944F"/>
<path d="M133.241 279.628C150.964 279.628 165.331 271.21 165.331 260.826C165.331 250.442 150.964 242.024 133.241 242.024C115.519 242.024 101.152 250.442 101.152 260.826C101.152 271.21 115.519 279.628 133.241 279.628Z" fill="#FFB92C"/>
<path d="M149.515 258.314C149.737 258.753 149.825 259.248 149.768 259.736L149.642 260.242H143.78C143.833 260.077 143.87 259.908 143.891 259.736C143.87 259.354 143.75 258.983 143.543 258.662C143.215 258.092 142.718 257.64 142.121 257.366C141.27 256.921 140.331 256.673 139.372 256.639C138.479 256.572 137.582 256.707 136.749 257.034C135.927 257.382 135.611 257.84 135.801 258.409C136.077 259.104 136.503 259.73 137.049 260.242C137.69 260.884 138.292 261.564 138.85 262.28C139.112 262.588 139.28 262.964 139.336 263.364C139.392 263.764 139.333 264.171 139.166 264.539C138.523 265.602 137.511 266.389 136.322 266.751C134.353 267.572 132.246 268.012 130.113 268.047C127.81 268.122 125.511 267.796 123.319 267.083L119.954 268.537L116.004 266.609L119.274 265.203C118.683 264.812 118.151 264.339 117.694 263.797C117.358 263.411 117.095 262.966 116.92 262.485C116.807 262.142 116.738 261.787 116.715 261.427C116.674 261.181 116.674 260.93 116.715 260.684L116.825 260.4H122.766C122.706 260.596 122.658 260.797 122.624 261C122.651 261.479 122.816 261.94 123.098 262.327C123.578 263.031 124.254 263.58 125.041 263.907C126.098 264.44 127.256 264.742 128.438 264.792C129.516 264.866 130.597 264.693 131.598 264.286C132.409 263.939 132.715 263.481 132.515 262.912C132.225 262.212 131.783 261.585 131.219 261.079C130.567 260.47 129.96 259.815 129.402 259.12C129.144 258.806 128.983 258.423 128.939 258.02C128.894 257.616 128.967 257.208 129.149 256.845C129.848 255.763 130.905 254.963 132.135 254.585C134.029 253.822 136.05 253.425 138.092 253.416C140.242 253.35 142.386 253.687 144.412 254.411L147.777 252.974L151.459 254.98L148.093 256.434C148.718 256.931 149.207 257.578 149.515 258.314Z" fill="#EA8B24"/>
<path d="M133.305 276.832C148.183 276.832 160.244 269.765 160.244 261.048C160.244 252.331 148.183 245.264 133.305 245.264C118.427 245.264 106.366 252.331 106.366 261.048C106.366 269.765 118.427 276.832 133.305 276.832Z" stroke="#F7931E" stroke-width="6" stroke-miterlimit="10"/>
<path d="M133.241 274.667C150.964 274.667 165.331 266.25 165.331 255.865C165.331 245.481 150.964 237.063 133.241 237.063C115.519 237.063 101.152 245.481 101.152 255.865C101.152 266.25 115.519 274.667 133.241 274.667Z" fill="#FF912E"/>
<path d="M101.152 255.866V250.431L104.643 254.776L101.152 255.866Z" fill="#E0944F"/>
<path d="M165.347 250.431V255.866H161.271L164.257 251.505L165.347 250.431Z" fill="#E0944F"/>
<path d="M133.241 269.232C150.964 269.232 165.331 260.814 165.331 250.43C165.331 240.046 150.964 231.628 133.241 231.628C115.519 231.628 101.152 240.046 101.152 250.43C101.152 260.814 115.519 269.232 133.241 269.232Z" fill="#FFB92C"/>
<path d="M149.515 247.918C149.737 248.357 149.825 248.852 149.768 249.34L149.642 249.846H143.78C143.833 249.682 143.87 249.512 143.891 249.34C143.87 248.958 143.75 248.588 143.543 248.266C143.215 247.697 142.718 247.244 142.121 246.97C141.27 246.526 140.331 246.277 139.372 246.244C138.479 246.176 137.582 246.311 136.749 246.639C135.927 246.986 135.611 247.444 135.801 248.013C136.077 248.709 136.503 249.335 137.049 249.846C137.68 250.489 138.271 251.17 138.819 251.884C139.08 252.192 139.248 252.568 139.304 252.968C139.36 253.368 139.301 253.776 139.135 254.144C138.492 255.206 137.479 255.994 136.291 256.356C134.322 257.177 132.214 257.616 130.081 257.651C127.778 257.727 125.479 257.4 123.287 256.687L119.922 258.141L115.972 256.213L119.243 254.807C118.651 254.417 118.119 253.943 117.663 253.401C117.326 253.015 117.064 252.571 116.888 252.09C116.776 251.747 116.707 251.391 116.683 251.031C116.643 250.785 116.643 250.534 116.683 250.288L116.794 250.004H122.766C122.706 250.201 122.658 250.401 122.624 250.604C122.651 251.083 122.816 251.544 123.098 251.932C123.578 252.636 124.254 253.185 125.041 253.512C126.098 254.045 127.256 254.346 128.438 254.396C129.516 254.471 130.597 254.298 131.598 253.891C132.409 253.543 132.715 253.085 132.515 252.516C132.225 251.816 131.783 251.19 131.219 250.683C130.575 250.048 129.979 249.367 129.434 248.645C129.176 248.331 129.015 247.949 128.97 247.545C128.925 247.141 128.998 246.733 129.181 246.37C129.879 245.289 130.937 244.489 132.167 244.111C134.06 243.347 136.082 242.95 138.124 242.941C140.274 242.875 142.418 243.213 144.444 243.937L147.809 242.499L151.49 244.506L148.125 245.959C148.749 246.482 149.228 247.157 149.515 247.918Z" fill="#EA8B24"/>
<path d="M133.305 266.436C148.183 266.436 160.244 259.369 160.244 250.651C160.244 241.934 148.183 234.867 133.305 234.867C118.427 234.867 106.366 241.934 106.366 250.651C106.366 259.369 118.427 266.436 133.305 266.436Z" stroke="#F7931E" stroke-width="6" stroke-miterlimit="10"/>
<path d="M133.241 266.973C150.964 266.973 165.331 258.555 165.331 248.171C165.331 237.787 150.964 229.369 133.241 229.369C115.519 229.369 101.152 237.787 101.152 248.171C101.152 258.555 115.519 266.973 133.241 266.973Z" fill="#FF912E"/>
<path d="M101.152 248.171V242.735L104.643 247.08L101.152 248.171Z" fill="#E0944F"/>
<path d="M165.347 242.735V248.171H161.271L164.257 243.81L165.347 242.735Z" fill="#E0944F"/>
<path d="M133.241 261.538C150.964 261.538 165.331 253.12 165.331 242.736C165.331 232.352 150.964 223.934 133.241 223.934C115.519 223.934 101.152 232.352 101.152 242.736C101.152 253.12 115.519 261.538 133.241 261.538Z" fill="#FFB92C"/>
<path d="M149.515 240.16C149.737 240.599 149.825 241.093 149.768 241.582L149.642 242.088H143.78C143.833 241.923 143.87 241.754 143.891 241.582C143.87 241.2 143.75 240.829 143.543 240.508C143.215 239.938 142.718 239.486 142.121 239.212C141.27 238.767 140.331 238.519 139.372 238.485C138.479 238.417 137.582 238.552 136.749 238.88C135.927 239.228 135.611 239.686 135.801 240.255C136.077 240.95 136.503 241.576 137.049 242.088C137.68 242.731 138.271 243.411 138.819 244.126C139.08 244.434 139.248 244.81 139.304 245.21C139.36 245.61 139.301 246.017 139.135 246.385C138.492 247.448 137.479 248.235 136.291 248.597C134.322 249.418 132.214 249.858 130.081 249.893C127.778 249.968 125.479 249.642 123.287 248.929L119.922 250.383L115.972 248.455L119.243 247.049C118.651 246.658 118.119 246.185 117.663 245.643C117.326 245.257 117.064 244.812 116.888 244.331C116.776 243.988 116.707 243.633 116.683 243.273C116.643 243.027 116.643 242.776 116.683 242.53L116.794 242.246H122.766C122.706 242.442 122.658 242.643 122.624 242.846C122.651 243.325 122.816 243.785 123.098 244.173C123.578 244.877 124.254 245.426 125.041 245.753C126.098 246.286 127.256 246.588 128.438 246.638C129.516 246.712 130.597 246.539 131.598 246.132C132.409 245.785 132.715 245.327 132.515 244.758C132.225 244.057 131.783 243.431 131.219 242.925C130.575 242.289 129.979 241.608 129.434 240.887C129.176 240.573 129.015 240.19 128.97 239.787C128.925 239.383 128.998 238.975 129.181 238.612C129.879 237.53 130.937 236.73 132.167 236.352C134.066 235.673 136.076 235.357 138.092 235.42C140.242 235.354 142.386 235.691 144.412 236.415L147.777 234.978L151.49 237L148.125 238.454C148.716 238.905 149.192 239.49 149.515 240.16Z" fill="#EA8B24"/>
<path d="M133.305 258.757C148.183 258.757 160.244 251.69 160.244 242.973C160.244 234.255 148.183 227.188 133.305 227.188C118.427 227.188 106.366 234.255 106.366 242.973C106.366 251.69 118.427 258.757 133.305 258.757Z" stroke="#F7931E" stroke-width="6" stroke-miterlimit="10"/>
<path d="M138.455 256.577C156.178 256.577 170.545 248.159 170.545 237.775C170.545 227.391 156.178 218.973 138.455 218.973C120.733 218.973 106.366 227.391 106.366 237.775C106.366 248.159 120.733 256.577 138.455 256.577Z" fill="#FF912E"/>
<path d="M106.35 237.774V232.339L109.857 236.684L106.35 237.774Z" fill="#E0944F"/>
<path d="M170.545 232.339V237.774H166.469L169.455 233.413L170.545 232.339Z" fill="#E0944F"/>
<path d="M138.455 251.141C156.178 251.141 170.545 242.723 170.545 232.339C170.545 221.955 156.178 213.537 138.455 213.537C120.733 213.537 106.366 221.955 106.366 232.339C106.366 242.723 120.733 251.141 138.455 251.141Z" fill="#FFB92C"/>
<path d="M154.729 229.827C154.951 230.266 155.039 230.761 154.982 231.249L154.856 231.755H148.994C149.047 231.59 149.084 231.421 149.105 231.249C149.084 230.867 148.965 230.496 148.757 230.175C148.429 229.606 147.932 229.153 147.335 228.879C146.484 228.434 145.545 228.186 144.586 228.152C143.693 228.085 142.796 228.22 141.963 228.547C141.141 228.895 140.825 229.353 141.015 229.922C141.291 230.618 141.717 231.243 142.263 231.755C142.901 232.413 143.497 233.109 144.049 233.84C144.31 234.148 144.478 234.524 144.534 234.924C144.59 235.324 144.531 235.732 144.365 236.1C143.722 237.162 142.709 237.95 141.521 238.312C139.551 239.133 137.444 239.572 135.311 239.607C133.008 239.683 130.709 239.357 128.517 238.644L125.152 240.097L121.202 238.17L124.472 236.763C123.881 236.373 123.349 235.899 122.892 235.357C122.556 234.971 122.294 234.527 122.118 234.046C122.006 233.703 121.937 233.347 121.913 232.987C121.872 232.741 121.872 232.49 121.913 232.245L122.023 231.96H127.98C127.92 232.157 127.872 232.358 127.838 232.561C127.865 233.039 128.03 233.5 128.312 233.888C128.793 234.592 129.468 235.141 130.255 235.468C131.312 236.001 132.47 236.302 133.652 236.353C134.73 236.427 135.811 236.254 136.812 235.847C137.623 235.499 137.929 235.041 137.729 234.472C137.439 233.772 136.997 233.146 136.433 232.64C135.782 232.031 135.174 231.376 134.616 230.68C134.358 230.366 134.197 229.984 134.153 229.58C134.108 229.176 134.181 228.768 134.363 228.405C135.062 227.324 136.119 226.524 137.349 226.146C139.243 225.382 141.264 224.985 143.306 224.977C145.456 224.91 147.6 225.248 149.626 225.972L152.991 224.534L156.673 226.541L153.307 227.994C153.926 228.478 154.415 229.108 154.729 229.827Z" fill="#EA8B24"/>
<path d="M138.503 248.36C153.381 248.36 165.442 241.294 165.442 232.576C165.442 223.859 153.381 216.792 138.503 216.792C123.625 216.792 111.564 223.859 111.564 232.576C111.564 241.294 123.625 248.36 138.503 248.36Z" stroke="#F7931E" stroke-width="3" stroke-miterlimit="10"/>
<path d="M149.816 245.454C167.538 245.454 181.905 237.036 181.905 226.652C181.905 216.268 167.538 207.85 149.816 207.85C132.093 207.85 117.726 216.268 117.726 226.652C117.726 237.036 132.093 245.454 149.816 245.454Z" fill="#FF912E"/>
<path d="M117.726 226.651V221.216L121.218 225.561L117.726 226.651Z" fill="#E0944F"/>
<path d="M181.921 221.216V226.651H177.845L180.831 222.29L181.921 221.216Z" fill="#E0944F"/>
<path d="M149.816 240.018C167.538 240.018 181.905 231.6 181.905 221.216C181.905 210.832 167.538 202.414 149.816 202.414C132.093 202.414 117.726 210.832 117.726 221.216C117.726 231.6 132.093 240.018 149.816 240.018Z" fill="#FFB92C"/>
<path d="M166.105 218.703C166.327 219.142 166.415 219.637 166.358 220.125L166.232 220.631H160.37C160.423 220.467 160.46 220.297 160.481 220.125C160.46 219.743 160.34 219.373 160.133 219.051C159.805 218.482 159.308 218.029 158.711 217.755C157.86 217.311 156.921 217.062 155.962 217.029C155.069 216.961 154.172 217.096 153.339 217.424C152.517 217.771 152.201 218.229 152.391 218.798C152.667 219.494 153.093 220.12 153.639 220.631C154.279 221.309 154.875 222.027 155.425 222.78C155.686 223.088 155.854 223.464 155.91 223.864C155.966 224.264 155.907 224.671 155.741 225.039C155.097 226.102 154.085 226.889 152.897 227.251C150.927 228.072 148.82 228.512 146.687 228.547C144.384 228.622 142.085 228.296 139.893 227.583L136.528 229.037L132.578 227.109L135.848 225.703C135.257 225.312 134.725 224.839 134.268 224.297C133.932 223.911 133.67 223.466 133.494 222.985C133.382 222.642 133.313 222.287 133.289 221.927C133.248 221.681 133.248 221.43 133.289 221.184L133.399 220.9H139.261C139.201 221.096 139.153 221.297 139.119 221.5C139.146 221.979 139.311 222.44 139.593 222.827C140.074 223.531 140.749 224.08 141.536 224.407C142.593 224.94 143.751 225.242 144.933 225.292C146.011 225.366 147.092 225.193 148.093 224.786C148.904 224.439 149.21 223.981 149.01 223.412C148.721 222.712 148.278 222.085 147.714 221.579C147.095 220.967 146.52 220.312 145.992 219.62C145.734 219.306 145.573 218.923 145.529 218.52C145.484 218.116 145.557 217.708 145.739 217.345C146.438 216.263 147.495 215.463 148.725 215.085C150.619 214.322 152.64 213.925 154.682 213.916C156.832 213.85 158.976 214.187 161.002 214.911L164.367 213.474L168.049 215.48L164.683 216.934C165.294 217.4 165.782 218.007 166.105 218.703Z" fill="#EA8B24"/>
<path d="M149.879 237.237C164.757 237.237 176.818 230.171 176.818 221.453C176.818 212.736 164.757 205.669 149.879 205.669C135.001 205.669 122.94 212.736 122.94 221.453C122.94 230.171 135.001 237.237 149.879 237.237Z" stroke="#F7931E" stroke-width="2" stroke-miterlimit="10"/>
<path d="M134.253 229.637C151.975 229.637 166.342 221.219 166.342 210.835C166.342 200.451 151.975 192.033 134.253 192.033C116.53 192.033 102.163 200.451 102.163 210.835C102.163 221.219 116.53 229.637 134.253 229.637Z" fill="#FF912E"/>
<path d="M102.147 210.836V205.4L105.639 209.745L102.147 210.836Z" fill="#E0944F"/>
<path d="M166.342 205.4V210.836H162.266L165.252 206.475L166.342 205.4Z" fill="#E0944F"/>
<path d="M134.253 224.203C151.975 224.203 166.342 215.785 166.342 205.401C166.342 195.017 151.975 186.599 134.253 186.599C116.53 186.599 102.163 195.017 102.163 205.401C102.163 215.785 116.53 224.203 134.253 224.203Z" fill="#FFB92C"/>
<path d="M150.527 202.888C150.748 203.327 150.836 203.821 150.779 204.31L150.653 204.815H144.791C144.844 204.651 144.882 204.482 144.902 204.31C144.882 203.928 144.762 203.557 144.554 203.235C144.226 202.666 143.729 202.213 143.132 201.94C142.282 201.495 141.342 201.247 140.383 201.213C139.49 201.145 138.594 201.28 137.76 201.608C136.939 201.956 136.623 202.414 136.812 202.983C137.088 203.678 137.514 204.304 138.06 204.815C138.7 205.499 139.297 206.222 139.846 206.98C140.107 207.288 140.275 207.664 140.331 208.064C140.387 208.464 140.328 208.872 140.162 209.239C139.519 210.302 138.506 211.09 137.318 211.451C135.349 212.272 133.242 212.712 131.108 212.747C128.805 212.822 126.506 212.496 124.314 211.783L120.949 213.237L116.999 211.309L120.27 209.903C119.678 209.512 119.146 209.039 118.69 208.497C118.353 208.111 118.091 207.666 117.915 207.185C117.803 206.843 117.734 206.487 117.71 206.127C117.67 205.881 117.67 205.63 117.71 205.384L117.821 205.1H123.682C123.622 205.297 123.575 205.497 123.54 205.7C123.567 206.179 123.732 206.64 124.014 207.027C124.495 207.732 125.17 208.281 125.958 208.607C127.014 209.14 128.172 209.442 129.355 209.492C130.433 209.567 131.514 209.394 132.515 208.987C133.326 208.639 133.631 208.181 133.431 207.612C133.142 206.912 132.699 206.285 132.135 205.779C131.517 205.167 130.941 204.512 130.413 203.82C130.156 203.506 129.995 203.124 129.95 202.72C129.905 202.316 129.978 201.908 130.16 201.545C130.859 200.464 131.916 199.664 133.147 199.285C135.04 198.522 137.062 198.125 139.103 198.116C141.254 198.05 143.397 198.388 145.423 199.112L148.789 197.674L152.47 199.68L149.105 201.134C149.713 201.596 150.201 202.197 150.527 202.888Z" fill="#EA8B24"/>
<path d="M134.3 221.405C149.178 221.405 161.239 214.338 161.239 205.621C161.239 196.904 149.178 189.837 134.3 189.837C119.422 189.837 107.361 196.904 107.361 205.621C107.361 214.338 119.422 221.405 134.3 221.405Z" stroke="#F7931E" stroke-width="2" stroke-miterlimit="10"/>
<path d="M282.504 123.62L227.52 276.406C225.45 282.141 234.377 285.364 236.447 279.566L291.368 126.78C293.501 121.092 284.574 117.868 282.504 123.62Z" fill="#56403D"/>
<path d="M317.501 177.434L330.852 339.242C331.358 345.325 340.806 344.551 340.332 338.468L326.981 176.66C326.444 170.64 316.995 171.351 317.501 177.434Z" fill="#56403D"/>
<path d="M292.174 116.493L294.544 278.838C294.638 284.937 304.118 284.811 304.024 278.696L301.654 116.351C301.559 110.252 292.079 110.395 292.174 116.493Z" fill="#56403D"/>
<path d="M339.036 232.26L246.622 181.526C245.991 181.179 245.465 180.669 245.098 180.049C244.732 179.43 244.538 178.723 244.537 178.003V16.527C244.537 15.8207 244.723 15.1269 245.076 14.5152C245.429 13.9035 245.937 13.3953 246.548 13.0416C247.159 12.6879 247.853 12.5011 248.559 12.5C249.266 12.4989 249.96 12.6835 250.572 13.0352L342.986 66.3602C343.598 66.7151 344.105 67.2245 344.457 67.8374C344.81 68.4503 344.994 69.1451 344.993 69.852V228.784C344.982 229.478 344.793 230.157 344.443 230.756C344.093 231.354 343.594 231.853 342.995 232.202C342.396 232.552 341.717 232.741 341.023 232.751C340.33 232.761 339.645 232.592 339.036 232.26Z" fill="#8805FA"/>
<path d="M325.48 124.504V159.928C325.48 170.214 309.49 170.23 309.49 159.928V124.504C309.475 114.219 325.48 114.203 325.48 124.504Z" fill="#E2E2E2"/>
<path d="M303.739 88.1646V145.361C303.739 155.646 287.75 155.662 287.75 145.361V88.1646C287.75 77.8788 303.739 77.863 303.739 88.1646Z" fill="#CB9BEA"/>
<path d="M277.985 46.7525V134.49C277.985 144.776 261.996 144.791 261.996 134.49V46.7525C261.996 36.4667 277.985 36.4509 277.985 46.7525Z" fill="#FBB03B"/>
<path d="M297.877 169.85L317.58 180.231C320.377 181.7 317.896 185.95 315.099 184.481L295.46 174.1C292.584 172.615 295.065 168.381 297.877 169.85Z" fill="#F2F2F2"/>
<path d="M263.212 167.259C281.603 177.119 300.179 186.599 318.939 195.699C321.783 197.09 319.286 201.324 316.458 199.95C297.698 190.817 279.123 181.337 260.732 171.51C257.951 170.009 260.431 165.758 263.212 167.259Z" fill="#F2F2F2"/>
<path d="M312.255 126.274C312.255 126.274 308.037 112.954 305.935 112.954C303.834 112.954 307.152 118.121 305.935 117.852C304.719 117.584 296.55 107.661 294.243 108.072C291.937 108.483 290.436 114.392 291.083 117.994C291.731 121.597 305.635 131.993 305.635 131.993C305.635 131.993 313.488 131.993 312.255 126.274Z" fill="#F9D7B4"/>
<path d="M341.011 147.778C336.271 147.573 321.388 133.89 312.666 125.405C307.926 127.191 303.328 130.145 302.222 134.885C311.434 144.365 329.304 163.689 337.346 165.948C348.074 168.95 370.241 159.628 370.241 159.628V136.307C370.241 136.307 347.995 148.078 341.011 147.778Z" fill="#CCCCCC"/>
<path d="M374.681 378.031C379.974 374.192 378.9 369.594 378.9 369.594L396.517 371.063C396.785 377.905 396.659 384.73 396.817 391.603L390.497 391.066L388.68 388.317C383.261 388.317 378.821 392.14 372.469 393.167C366.118 394.194 359.339 389.075 359.829 385.378C360.319 381.681 369.404 381.855 374.681 378.031Z" fill="#A04E2A"/>
<path d="M364.443 184.686C363.828 184.53 363.266 184.214 362.814 183.77C362.362 183.326 362.035 182.77 361.867 182.158C361.141 179.946 360.287 175.554 358.233 175.364C356.179 175.175 349.97 174.685 348.09 176.044C346.305 177.348 345.067 179.268 344.614 181.431C344.456 183.011 347.568 184.275 347.568 184.275C347.568 184.275 350.476 189.015 359.813 193.755" fill="#F9D7B4"/>
<path d="M394.542 384.083C394.542 384.083 384.856 394.084 381.444 396.47C378.031 398.856 375.203 398.856 376.087 402.284C376.972 405.713 383.987 406.471 388.727 405.713C393.467 404.954 403.437 397.908 405.412 396.486V398.871L412.585 396.486C412.585 396.486 414.165 383.087 410.437 380.686" fill="#A04E2A"/>
<path d="M395 234.093L367.634 228.294C366.718 225.134 365.422 293.564 367.366 316.032C368.14 324.911 372.106 362.5 373.686 374.492C380.685 375.155 390.75 375.392 394.589 374.318C395.727 340.095 395 234.093 395 234.093Z" fill="#252726"/>
<path d="M379.453 235.531L409.82 228.658C413.612 228.263 413.66 314.831 413.439 319.128C413.439 319.713 413.439 320.282 413.439 320.866C413.425 321.034 413.469 321.202 413.565 321.34C414.276 349.78 414.955 379.026 412.917 381.175C410.555 383.513 407.519 385.052 404.237 385.573C400.954 386.095 397.591 385.573 394.621 384.082C394.621 384.082 383.94 276.105 382.012 265.44C380.399 255.55 379.544 245.551 379.453 235.531Z" fill="#252726"/>
<path d="M395.126 141.837C395.126 141.837 395.964 142.248 397.291 143.022C401.557 145.519 410.753 151.728 412.301 159.612C414.308 169.93 407.419 232.735 407.419 232.735C407.419 232.735 378.979 240.208 366.971 226.193C366.971 226.193 361.362 170.356 363.526 156.958C365.691 143.559 370.652 135.249 378.157 135.754" fill="#F4F4F4"/>
<path d="M380.985 202.019C391.477 202.304 403.895 193.187 412.996 188.194C412.554 204.863 411.606 224.534 411.195 232.877C402.284 237.743 389.249 240.777 379.232 239.481C379.065 239.449 378.893 239.468 378.738 239.536C378.583 239.604 378.452 239.717 378.363 239.86C373.749 238.256 369.399 235.977 365.454 233.098C365.454 226.509 365.454 211.057 364.696 200.234C370.053 201.368 375.51 201.966 380.985 202.019Z" fill="#252726"/>
<path d="M396.201 132.53L395.363 141.599C395.363 141.599 391.571 147.761 383.055 144.759L383.292 135.564" fill="#EFC095"/>
<path d="M363.605 153.26C364.822 147.398 366.086 138.202 370.241 136.338C373.085 135.074 379.058 135.69 379.058 135.69C379.058 135.69 372.201 149.104 372.169 156.041C372.137 162.977 374.934 182.553 374.934 182.553C374.934 182.553 383.387 165.394 388.095 159.011C392.015 154.116 396.385 149.599 401.146 145.518C401.146 145.518 408.367 150.147 409.773 152.249C402.047 158.016 395.853 163.988 393.183 173.784C391.382 180.373 390.56 187.23 388.964 193.882C388.308 196.445 387.781 199.039 387.384 201.655C383.292 200.265 364.759 193.882 364.253 192.381C363.748 190.88 362.389 159.09 363.605 153.26Z" fill="#252726"/>
<path d="M375.203 105.102C376.319 104.268 377.613 103.705 378.984 103.455C380.354 103.206 381.764 103.277 383.103 103.664C383.353 103.617 383.606 103.585 383.861 103.569C391.097 103.364 399.345 104.801 402.442 112.291C405.539 119.78 400.988 127.474 395.964 132.657C391.935 136.796 386.263 132.53 386.484 127.917C385.105 127.325 383.919 126.361 383.057 125.133C382.195 123.906 381.691 122.462 381.602 120.965C379.411 121.332 377.162 120.882 375.282 119.701C373.595 118.582 372.358 116.903 371.79 114.961C371.332 113.164 371.411 111.272 372.018 109.52C372.624 107.767 373.732 106.231 375.203 105.102Z" fill="#252726"/>
<path d="M375.882 115.514C375.882 115.514 376.482 124.314 376.277 127.743C376.072 131.171 378.489 138.708 381.981 140.936C385.473 143.164 395.095 133.81 396.201 132.53C397.307 131.25 398.776 124.883 396.406 124.472C394.036 124.061 392.014 129.307 392.014 129.307C392.014 129.307 388.996 126.779 389.549 123.461C390.102 120.143 390.355 116.367 386.91 115.798C383.466 115.229 379.69 119.527 375.882 115.514Z" fill="#F9D7B4"/>
<path d="M381.965 146.245L384.477 153.197L381.017 155.804L383.403 163.846L374.46 185.761L373.085 160.086C373.085 160.086 377.825 155.615 377.825 155.346C377.825 155.077 376.245 151.206 376.245 151.206L381.965 146.245Z" fill="#E55600"/>
<path d="M388.933 196.126C388.933 196.126 395.174 154.335 405.507 151.886C415.84 149.437 417.199 160.307 414.845 177.845C412.491 195.383 406.013 215.765 394.652 215.481C383.292 215.197 359.134 197.121 359.134 197.121C359.134 197.121 359.434 185.335 363.795 184.639C368.156 183.944 388.933 196.126 388.933 196.126Z" fill="#CCCCCC"/>
<path d="M388.601 177.718L384.019 175.396C383.024 174.89 382.155 176.391 383.15 176.897L387.732 179.219C388.68 179.709 389.596 178.224 388.601 177.718Z" fill="#F4F4F4"/>
<defs>
<linearGradient id="paint0_linear_228_2316" x1="319.492" y1="248.74" x2="263.339" y2="327.661" gradientUnits="userSpaceOnUse">
<stop stop-color="#060094"/>
<stop offset="1" stop-color="white"/>
</linearGradient>
<linearGradient id="paint1_linear_228_2316" x1="396.88" y1="375.282" x2="349.464" y2="414.545" gradientUnits="userSpaceOnUse">
<stop stop-color="#060094"/>
<stop offset="1" stop-color="white"/>
</linearGradient>
<linearGradient id="paint2_linear_228_2316" x1="561.769" y1="274.668" x2="490.637" y2="329.004" gradientUnits="userSpaceOnUse">
<stop stop-color="#060094"/>
<stop offset="1" stop-color="white"/>
</linearGradient>
<linearGradient id="paint3_linear_228_2316" x1="139.672" y1="266.309" x2="95.1949" y2="303.123" gradientUnits="userSpaceOnUse">
<stop stop-color="#060094"/>
<stop offset="1" stop-color="white"/>
</linearGradient>
</defs>
</svg>
