<svg width="42" height="42" viewBox="0 0 42 42" fill="none" xmlns="http://www.w3.org/2000/svg">
<path d="M21 32.6667C21.6611 32.6667 22.2153 32.4431 22.6625 31.9958C23.1097 31.5486 23.3333 30.9944 23.3333 30.3333C23.3333 29.6722 23.1097 29.1181 22.6625 28.6708C22.2153 28.2236 21.6611 28 21 28C20.3389 28 19.7847 28.2236 19.3375 28.6708C18.8903 29.1181 18.6667 29.6722 18.6667 30.3333C18.6667 30.9944 18.8903 31.5486 19.3375 31.9958C19.7847 32.4431 20.3389 32.6667 21 32.6667ZM18.6667 23.3333H23.3333V9.33333H18.6667V23.3333ZM12.25 42L0 29.75V12.25L12.25 0H29.75L42 12.25V29.75L29.75 42H12.25ZM14.2333 37.3333H27.7667L37.3333 27.7667V14.2333L27.7667 4.66667H14.2333L4.66667 14.2333V27.7667L14.2333 37.3333Z" fill="#292B30"/>
</svg>
